<svg xmlns="http://www.w3.org/2000/svg" width="34.564" height="28.938" viewBox="0 0 34.564 28.938">
  <g id="shopping-basket_1" data-name="shopping-basket 1" transform="translate(0.25 -42.366)">
    <g id="Group_3356" data-name="Group 3356" transform="translate(0 42.669)">
      <path id="Path_699" data-name="Path 699" d="M33.354,54.023H27.34L19.746,42.976a.71.71,0,0,0-1.17.8l7.042,10.243H8.446L15.488,43.78a.71.71,0,0,0-1.17-.8L6.723,54.023H.71a.71.71,0,1,0,0,1.419h.9L5.948,69.077a2.829,2.829,0,0,0,2.7,1.978H25.41a2.829,2.829,0,0,0,2.7-1.979l4.338-13.634h.9a.71.71,0,1,0,0-1.419ZM26.762,68.646a1.415,1.415,0,0,1-1.352.99H8.653A1.415,1.415,0,0,1,7.3,68.646l-4.2-13.2H30.964Z" transform="translate(0 -42.669)" fill="#fff" stroke="#fff" stroke-width="0.5"/>
    </g>
  </g>
</svg>
