<svg id="Coat_Of_Arms_Logo" data-name="Coat Of Arms Logo" xmlns="http://www.w3.org/2000/svg" width="146.395" height="101.968" viewBox="0 0 146.395 101.968">
  <path id="Fill_1" data-name="Fill 1" d="M1.008,0C.43,1.114-.073,1.758.009,2.609S.983,4.062,1.4,4.937c.388-1,1.032-1.759.958-2.535C2.279,1.61,1.19.561,1.008,0" transform="translate(61.499 16.561)" fill="#f3f2f1"/>
  <path id="Fill_3" data-name="Fill 3" d="M1.36,0c.57,1.114,1.081,1.758,1,2.609S1.385,4.062.964,4.937C.576,3.938-.068,3.178.006,2.4.089,1.61,1.162.561,1.36,0" transform="translate(78.771 16.561)" fill="#f3f2f1"/>
  <path id="Fill_5" data-name="Fill 5" d="M1.007,2.014a1.015,1.015,0,0,0,1.007-1A1.018,1.018,0,0,0,1.007,0a1.007,1.007,0,1,0,0,2.014" transform="translate(51.298 13.903)" fill="#f3f2f1"/>
  <path id="Fill_7" data-name="Fill 7" d="M2.006,1A1,1,0,1,0,1,2.014,1.009,1.009,0,0,0,2.006,1" transform="translate(50.904 16.352)" fill="#f3f2f1"/>
  <path id="Fill_9" data-name="Fill 9" d="M2.006,1A1.015,1.015,0,0,0,1,0,1,1,0,0,0,1,2,1.015,1.015,0,0,0,2.006,1" transform="translate(51.49 18.787)" fill="#f3f2f1"/>
  <path id="Fill_11" data-name="Fill 11" d="M1,2A1.009,1.009,0,0,0,2.006,1,1,1,0,1,0,1,2" transform="translate(57.913 9.13)" fill="#f3f2f1"/>
  <path id="Fill_13" data-name="Fill 13" d="M1.007,2.014A1.018,1.018,0,0,0,2.014,1,1.007,1.007,0,0,0,0,1,1.013,1.013,0,0,0,1.007,2.014" transform="translate(54.942 9.887)" fill="#f3f2f1"/>
  <path id="Fill_15" data-name="Fill 15" d="M1.007,2a1,1,0,1,0,0-2A1.009,1.009,0,0,0,0,1,1,1,0,0,0,1.007,2" transform="translate(52.602 11.613)" fill="#f3f2f1"/>
  <path id="Fill_17" data-name="Fill 17" d="M1.007,2.014A1.007,1.007,0,0,0,1.007,0,1.015,1.015,0,0,0,0,1,1.013,1.013,0,0,0,1.007,2.014" transform="translate(61.03 9.356)" fill="#f3f2f1"/>
  <path id="Fill_19" data-name="Fill 19" d="M1.007,2.014A1.007,1.007,0,1,0,0,1,1.008,1.008,0,0,0,1.007,2.014" transform="translate(63.993 10.081)" fill="#f3f2f1"/>
  <path id="Fill_21" data-name="Fill 21" d="M1.007,2.014A1.007,1.007,0,1,0,1.007,0,1.015,1.015,0,0,0,0,1,1.018,1.018,0,0,0,1.007,2.014" transform="translate(66.774 11.178)" fill="#f3f2f1"/>
  <path id="Fill_23" data-name="Fill 23" d="M0,1.015A1,1,0,1,0,1.007,0,1.009,1.009,0,0,0,0,1.015" transform="translate(89.288 13.902)" fill="#f3f2f1"/>
  <path id="Fill_25" data-name="Fill 25" d="M1.007,0A1,1,0,0,0,0,1,1.018,1.018,0,0,0,1.007,2.014,1.013,1.013,0,0,0,2.014,1,1,1,0,0,0,1.007,0" transform="translate(89.683 16.352)" fill="#f3f2f1"/>
  <path id="Fill_27" data-name="Fill 27" d="M1,0A1.008,1.008,0,0,0,0,1,1,1,0,0,0,2.006,1,1.009,1.009,0,0,0,1,0" transform="translate(89.107 18.786)" fill="#f3f2f1"/>
  <path id="Fill_29" data-name="Fill 29" d="M1.007,2A1.009,1.009,0,0,0,2.014,1,1,1,0,0,0,1.007,0,1,1,0,0,0,0,1,1.015,1.015,0,0,0,1.007,2" transform="translate(82.674 9.13)" fill="#f3f2f1"/>
  <path id="Fill_31" data-name="Fill 31" d="M1.007,2.014A1.007,1.007,0,1,0,0,1,1.013,1.013,0,0,0,1.007,2.014" transform="translate(85.646 9.887)" fill="#f3f2f1"/>
  <path id="Fill_33" data-name="Fill 33" d="M1.007,2A1,1,0,0,0,2.014,1,1.007,1.007,0,0,0,0,1,1,1,0,0,0,1.007,2" transform="translate(87.986 11.613)" fill="#f3f2f1"/>
  <path id="Fill_35" data-name="Fill 35" d="M1.007,2.014A1.007,1.007,0,1,0,0,1,1.008,1.008,0,0,0,1.007,2.014" transform="translate(79.557 9.356)" fill="#f3f2f1"/>
  <path id="Fill_37" data-name="Fill 37" d="M1.007,2.014A1.007,1.007,0,1,0,0,1,1.018,1.018,0,0,0,1.007,2.014" transform="translate(76.594 10.081)" fill="#f3f2f1"/>
  <path id="Fill_39" data-name="Fill 39" d="M0,1A1,1,0,1,0,1,0,1.006,1.006,0,0,0,0,1" transform="translate(73.812 11.177)" fill="#f3f2f1"/>
  <path id="Fill_41" data-name="Fill 41" d="M0,4.656H1.131V.355A3.943,3.943,0,0,1,0,0Z" transform="translate(69.369 12.97)" fill="#f3f2f1"/>
  <path id="Fill_43" data-name="Fill 43" d="M1.131,0A4.208,4.208,0,0,1,0,.355v4.3H1.131Z" transform="translate(72.105 12.965)" fill="#f3f2f1"/>
  <path id="Fill_45" data-name="Fill 45" d="M2.468,2.567V0A3.19,3.19,0,0,0,0,2.567Z" transform="translate(67.829 5.658)" fill="#f3f2f1"/>
  <path id="Fill_47" data-name="Fill 47" d="M0,2.567H2.452A3.2,3.2,0,0,0,0,0Z" transform="translate(72.32 5.658)" fill="#f3f2f1"/>
  <path id="Fill_49" data-name="Fill 49" d="M0,0A3.144,3.144,0,0,0,3.079,2.468,3.16,3.16,0,0,0,6.167,0Z" transform="translate(68.211 9.451)" fill="#f3f2f1"/>
  <path id="Fill_51" data-name="Fill 51" d="M4.359,5.275a3.5,3.5,0,0,1-1.37-2.237A4.02,4.02,0,0,1,5.267,4.483V1.032A3.953,3.953,0,0,1,2.989,2.485,5.19,5.19,0,0,1,4.3,0H.966a5.083,5.083,0,0,1,1.3,2.485A3.934,3.934,0,0,1,0,1.032V4.483A4,4,0,0,1,2.27,3.038,3.459,3.459,0,0,1,.9,5.275Z" transform="translate(68.658)" fill="#f3f2f1"/>
  <path id="Fill_53" data-name="Fill 53" d="M24.072,21.669a26.036,26.036,0,0,1-6.448-1.015,28.131,28.131,0,0,1-5.6-2.179,2.632,2.632,0,0,1-1.538.533,2.387,2.387,0,0,1-1.038-.244A3.182,3.182,0,0,1,7.7,16.345c0-.092.009-.194.017-.294,0-.036.006-.07.008-.1A28.181,28.181,0,0,1,5.7,13.91,24.068,24.068,0,0,1,1.164,6.29,27.065,27.065,0,0,1,0,2.2a4.127,4.127,0,0,0,1.344.262A2.23,2.23,0,0,0,3.1,1.626c.174.049.188.575.165.776A3.3,3.3,0,0,0,6.563,0a17.983,17.983,0,0,0,.916,3.582,17.2,17.2,0,0,0,3.1,5.383,13.706,13.706,0,0,0,1.453,1.494,2.929,2.929,0,0,1,.958-.19,2.658,2.658,0,0,1,1.99.982,2.7,2.7,0,0,1,.718,2.13l-.008.05A64.494,64.494,0,0,0,26.136,17.17a21.922,21.922,0,0,0,4.9.754,6.787,6.787,0,0,0,.951-.061,1.262,1.262,0,0,1-.215.206,15.144,15.144,0,0,1-2.112,1.618A11.519,11.519,0,0,1,24.072,21.669ZM22.52,17.781a1.242,1.242,0,1,0,1.247,1.246A1.248,1.248,0,0,0,22.52,17.781ZM8.783,12.514a6.124,6.124,0,0,0,.454.851l.091.165-.1.14a5.343,5.343,0,0,0-.949,2.675A2.688,2.688,0,0,0,9.7,18.252a1.787,1.787,0,0,0,.772.184,1.975,1.975,0,0,0,.952-.266c-.294-.152-.707-.4-1.006-.594l-.157-.1a1.085,1.085,0,0,1-.627-.661.673.673,0,0,1-.032-.222,2.537,2.537,0,0,1,.4-1.165c.033-.056.065-.1.093-.144l.015-.023c.02-.03.039-.058.057-.088l.014-.017a1.058,1.058,0,0,0,.111-.165l.149-.239.248.149a2.16,2.16,0,0,0,1.028.328.91.91,0,0,0,.211-.023.516.516,0,0,0,.33-.265c.19-.337.093-.9-.553-1.411l-.231-.2.346-.388a6.278,6.278,0,0,1,.727-.76,1.252,1.252,0,0,1,.816-.36,1.445,1.445,0,0,1,.859.352l.338.239c.068.051.139.105.209.16l.011.009c.12.093.234.182.341.252a2.411,2.411,0,0,0-.577-1.213,2.157,2.157,0,0,0-1.561-.776c-1.344,0-2.78,1.579-2.939,1.759l-.115.115-.165-.032A8.04,8.04,0,0,0,8.783,12.514Zm7.818,3.2a1.354,1.354,0,1,0,1.354,1.354A1.352,1.352,0,0,0,16.6,15.717Z" transform="translate(49.305 57.096)" fill="#f3f2f1"/>
  <path id="Fill_55" data-name="Fill 55" d="M5.573,13.448a1.509,1.509,0,0,1-1.511-1.5,1.568,1.568,0,0,1,.1-.527c-1.209-.052-1.542-1.37-1.784-2.331-.144-.57-.257-1.02-.5-1.02-.334,0-.569.5-.8,1.064A4.02,4.02,0,0,1,0,6.7,2.164,2.164,0,0,1,2.155,4.532a1.743,1.743,0,0,1,.67.115V0A25.7,25.7,0,0,0,8.355.842V4.631a1.964,1.964,0,0,1,.635-.1A2.164,2.164,0,0,1,11.145,6.7,4.022,4.022,0,0,1,10.072,9.13c-.3-.66-.5-1.064-.826-1.064-.244,0-.354.449-.493,1.018-.235.963-.557,2.282-1.769,2.334a1.575,1.575,0,0,1,.091.527A1.5,1.5,0,0,1,5.573,13.448Zm0-2.335a.838.838,0,0,0-.842.833.853.853,0,0,0,.842.842.843.843,0,0,0,.842-.842A.829.829,0,0,0,5.573,11.112Zm0-2.807c.4,0,.635.2.635.527a.852.852,0,0,1-.152.447l0,.007a1.045,1.045,0,0,0-.182.57.938.938,0,0,0,1.032.9c.807,0,1.052-.923,1.29-1.815.218-.816.424-1.586,1.039-1.586a1.1,1.1,0,0,1,.85.661,3.177,3.177,0,0,0,.4-1.321,1.5,1.5,0,0,0-1.486-1.5c-1.02,0-1.3.828-1.521,1.494-.155.46-.289.858-.626.858a.576.576,0,0,1-.635-.577,1.658,1.658,0,0,1,.517-.922,2.2,2.2,0,0,0,.68-1.339c0-.976-.905-1.792-1.832-2.543C4.646,2.915,3.74,3.731,3.74,4.706A2.2,2.2,0,0,0,4.42,6.045a1.658,1.658,0,0,1,.517.923.576.576,0,0,1-.636.577c-.337,0-.47-.4-.625-.855-.224-.667-.5-1.5-1.522-1.5A1.5,1.5,0,0,0,.669,6.7a2.979,2.979,0,0,0,.405,1.321,1.09,1.09,0,0,1,.842-.661c.619,0,.824.772,1.041,1.589.237.891.482,1.813,1.287,1.813a.937.937,0,0,0,1.03-.9,1.049,1.049,0,0,0-.183-.573.851.851,0,0,1-.155-.451C4.937,8.5,5.175,8.305,5.573,8.305Z" transform="translate(65.743 79.07)" fill="#f3f2f1"/>
  <path id="Fill_57" data-name="Fill 57" d="M118.724,11.962a.54.54,0,0,0-.614-.239c-5.5,1.287-12.316-2.37-18.9-5.919C93.661,2.824,88.42,0,83.936,0a11.115,11.115,0,0,0-4.413.834,7.071,7.071,0,0,0-3.491,3.277A19,19,0,0,1,73.841,7.43c-.757.966-1.331,1.659-1.331,2.551a2.544,2.544,0,0,0,1.157,1.964,12,12,0,0,0,2.877,1.577,8.109,8.109,0,0,0,.85.339c1.075.437,1.761.726,1.884,1.23a44.219,44.219,0,0,1-8.17,1.857,84.1,84.1,0,0,1-11.722.768,83.777,83.777,0,0,1-11.722-.768,43.31,43.31,0,0,1-8.2-1.874c.092-.726.768-1.032,1.955-1.486.286-.107.563-.206.861-.338a14.52,14.52,0,0,0,2.815-1.437,2.194,2.194,0,0,0,1.136-1.832,4.361,4.361,0,0,0-1.31-2.551,19,19,0,0,1-2.191-3.319,6.947,6.947,0,0,0-3.5-3.26A11.088,11.088,0,0,0,34.834.017c-4.494,0-9.747,2.807-15.3,5.787C12.965,9.353,6.147,13.01.649,11.723a.56.56,0,0,0-.624.256.392.392,0,0,0,.286.5,24.055,24.055,0,0,1,4.566,2.411c1.966,1.246,3.85,2.418,5.907,2.418a17.12,17.12,0,0,0,6.6-1.56c2.2-.933,4.506-2.2,6.727-3.418C28.456,9.948,32.94,7.479,37.2,7.207q-.675.533-1.29.966c-1.259.9-2.344,1.692-2.344,3.269a6.322,6.322,0,0,0,1.269,3.393c.216.355.461.751.717,1.222a11.408,11.408,0,0,1,.952,2.468c.113.4.265.85.44,1.387.265.825.778,2.352,3.9,3.624,3.614,1.486,9.838,2.245,18.541,2.245,8.671,0,14.917-.759,18.531-2.245,3.112-1.272,3.624-2.8,3.9-3.624.174-.537.317-.983.43-1.387a11.408,11.408,0,0,1,.952-2.468c.347-.628.7-1.131.992-1.577a5.144,5.144,0,0,0,1.167-2.889c0-1.594-1.146-2.419-2.467-3.385-.42-.306-.871-.627-1.331-1.015,4.269.272,8.743,2.74,13.084,5.142,2.221,1.206,4.525,2.485,6.727,3.4a16.924,16.924,0,0,0,6.6,1.576c2.048,0,3.931-1.172,5.907-2.427a25.189,25.189,0,0,1,4.566-2.4.4.4,0,0,0,.277-.52" transform="translate(12.243 76.187)" fill="#f3f2f1"/>
  <path id="Fill_59" data-name="Fill 59" d="M30.4,55.6h0a23.726,23.726,0,0,1-5.166-.863c-.478-.108-.785-.2-1.211-.326l-.407-.12a5.564,5.564,0,0,1,.322-1.4,3.57,3.57,0,0,1,.677-1.247.667.667,0,0,0,.277-.232.735.735,0,0,1,.259-.229,14.347,14.347,0,0,0,4.6-3.616,17.342,17.342,0,0,0,3.1-5.382,19.427,19.427,0,0,0,1.122-6.092H20.159V51.471c1.093.048,3.141.254,3.162.256a4.15,4.15,0,0,0-.875,2.246c-1.46-.458-3.01-1.023-4.739-1.725a2.173,2.173,0,0,1,1.618-.776V36.092H5.2a4.9,4.9,0,0,0-.554-1.907A3.744,3.744,0,0,1,3.64,31.526a4.606,4.606,0,0,0-1.155-2.484C2.106,28.55.407,26.693,0,26.268a24.106,24.106,0,0,1,4.532-7.563,22.131,22.131,0,0,1,4.3-3.722,3.086,3.086,0,0,1-1.692-2.659,2.479,2.479,0,0,1,.842-1.858C7.16,7.8,5.582,4.269,4.16,2.7L7,1.5A4.4,4.4,0,0,0,6.381,4.73a3.594,3.594,0,0,0,1.61-2.18,13.935,13.935,0,0,0,1.048,3.1A3.388,3.388,0,0,0,7.6,5.24a2.194,2.194,0,0,0-.9.2,3.345,3.345,0,0,0,2.663,1.3,3.954,3.954,0,0,0,.9-.108c.478-.121,2.034-.591,1.982-1.578a.99.99,0,0,0-.931-.969l-.077,0a.554.554,0,0,0-.429.3,1.444,1.444,0,0,0-.041,1.131A2.905,2.905,0,0,1,9.754,3.13a.869.869,0,0,1,.631-.8,1,1,0,0,1,.274-.039c.949,0,1.723,1.335,1.987,2.176.1-.728.476-2.421,1.656-2.421l.069,0a.821.821,0,0,1,.721.525,3.314,3.314,0,0,1-.3,2.6C14.721,4.349,14.279,3.9,13.9,3.9l-.04,0c-.194.019-.821.15-.734,1.048.085.718,1.109,1.238,2.435,1.238.988,0,3.309-.262,3.517-2.691a4.273,4.273,0,0,0-2.485,1.519,15.311,15.311,0,0,0,0-3.873,3.877,3.877,0,0,0,2.452,1.519A4.682,4.682,0,0,0,16.981,0h5.167a4.673,4.673,0,0,0-2.072,2.666A3.88,3.88,0,0,0,22.57,1.147a15.147,15.147,0,0,0,0,3.873A4.392,4.392,0,0,0,20.035,3.5c.217,2.429,2.532,2.691,3.517,2.691,1.33,0,2.358-.521,2.443-1.238a1.019,1.019,0,0,0-.18-.77.816.816,0,0,0-.553-.278l-.041,0c-.382,0-.812.437-.892,1.273a3.337,3.337,0,0,1-.3-2.607.827.827,0,0,1,.727-.522l.069,0c1.169,0,1.547,1.693,1.656,2.421.334-1.055,1.14-2.176,1.974-2.176a.979.979,0,0,1,.272.039.877.877,0,0,1,.636.815A2.883,2.883,0,0,1,28.34,5.514,1.375,1.375,0,0,0,28.319,4.4a.562.562,0,0,0-.441-.31l-.077,0a.971.971,0,0,0-.931.969c-.042.985,1.506,1.457,1.982,1.578a3.987,3.987,0,0,0,.906.108,3.292,3.292,0,0,0,2.668-1.313,2.285,2.285,0,0,0-.872-.181,3.434,3.434,0,0,0-1.439.4,13.11,13.11,0,0,0,1.049-3.1A3.612,3.612,0,0,0,32.74,4.7a4.407,4.407,0,0,0-.619-3.2l2.848,1.2c-1.418,1.566-3,5.084-3.83,7.752a2.4,2.4,0,0,1,.884,1.874,3.092,3.092,0,0,1-1.7,2.659,21.9,21.9,0,0,1,4.3,3.722A21.1,21.1,0,0,1,37.3,22.322a2.889,2.889,0,0,0-.405.512,5.27,5.27,0,0,1-.529.638c-.115.126-.223.245-.288.328a1.886,1.886,0,0,0-.471,1.147,2.648,2.648,0,0,0,.43,1.288c.342.563,2.529,4.893,3.071,5.985a5.609,5.609,0,0,0,1.7,1.981c.028.418.025.632.021.929,0,.125,0,.265,0,.441a26.419,26.419,0,0,1-1.66,9.321,24.262,24.262,0,0,1-4.54,7.627,21.748,21.748,0,0,1-3.054,2.866h-.009A1.961,1.961,0,0,1,30.4,55.6ZM20.159,18.64V35.266H33.977a19.276,19.276,0,0,0-1.129-6.323,17.331,17.331,0,0,0-3.1-5.383,14.456,14.456,0,0,0-4.6-3.632A12.489,12.489,0,0,0,20.159,18.64Zm-.834-.016a12.508,12.508,0,0,0-5.333,1.3A14.582,14.582,0,0,0,9.4,23.56a17.372,17.372,0,0,0-3.1,5.383,19.066,19.066,0,0,0-1.123,6.323h14.14Zm.257-6.917a17.6,17.6,0,0,1,9.841,2.65C30.512,13.717,31,13.09,31,12.325c0-1.158-1.436-1.984-4.269-2.452a45.01,45.01,0,0,0-7.148-.453h-.008a44.95,44.95,0,0,0-7.144.453c-2.83.469-4.265,1.294-4.265,2.452,0,.766.479,1.392,1.552,2.031A17.523,17.523,0,0,1,19.581,11.706Z" transform="translate(51.854 18.492)" fill="#f3f2f1"/>
  <path id="Fill_61" data-name="Fill 61" d="M5.688,14.159h0a.928.928,0,0,1-.24-.891H1.37a.246.246,0,0,0,.068.176.27.27,0,0,0,.192.075.322.322,0,0,0,.261-.134.515.515,0,0,1-.483.554.3.3,0,0,1-.127-.026.412.412,0,0,1-.207-.446.978.978,0,0,1-.619.24.992.992,0,0,1,.223-.628.638.638,0,0,1-.089.006.361.361,0,0,1-.357-.221.389.389,0,0,1,.052-.354.561.561,0,0,1,.484-.241.3.3,0,0,0-.125.338.242.242,0,0,0,.246.166h.02V6.9a1,1,0,0,1-.256.034A.9.9,0,0,1,0,6.655a.916.916,0,0,1,.635-.263.955.955,0,0,1,.273.04v-5.4H.888A.236.236,0,0,0,.651,1.2a.283.283,0,0,0,.108.315A.545.545,0,0,1,.3,1.247.416.416,0,0,1,.272.868.426.426,0,0,1,.636.694a.99.99,0,0,1-.19-.66.892.892,0,0,1,.626.322.386.386,0,0,1,.24-.338A.319.319,0,0,1,1.421,0a.451.451,0,0,1,.321.148.57.57,0,0,1,.14.447A.326.326,0,0,0,1.6.435a.232.232,0,0,0-.243.226A10.98,10.98,0,0,1,4.7,2.189a13.421,13.421,0,0,1,3,2.79c.1.15.2.273.3.4a.887.887,0,0,1,.761-.411,1.079,1.079,0,0,1,.123.007.915.915,0,0,1-.587.743.086.086,0,0,1-.021.015.042.042,0,0,0-.02.018,15.613,15.613,0,0,1,2.65,7.017h.03a.247.247,0,0,0,.253-.178.3.3,0,0,0-.126-.328h.022a.536.536,0,0,1,.464.23.384.384,0,0,1,.051.349.371.371,0,0,1-.384.233l-.054,0a.954.954,0,0,1,.248.611.919.919,0,0,1-.619-.223.388.388,0,0,1-.215.446.257.257,0,0,1-.134.034.512.512,0,0,1-.477-.529.3.3,0,0,0,.241.122.275.275,0,0,0,.2-.085.238.238,0,0,0,.06-.187H5.927a.911.911,0,0,1-.239.891ZM6.305,12.3a.332.332,0,0,1,.118.021.43.43,0,0,1,.238.47h3.451a.857.857,0,0,1-.282-.653.805.805,0,0,1,.5.149A14.96,14.96,0,0,0,8.263,6.671a.4.4,0,0,1-.19.05.307.307,0,0,1-.172-.05.4.4,0,0,1-.14-.462,1.137,1.137,0,0,1-.532.147.959.959,0,0,1-.12-.008.916.916,0,0,1,.322-.578A.432.432,0,0,1,7.017,5.5a.412.412,0,0,1,.131-.388A12.458,12.458,0,0,0,4.417,2.593a11.263,11.263,0,0,0-2.651-1.3,1.084,1.084,0,0,1,.14.578.943.943,0,0,1-.52-.207V5.705a.45.45,0,0,1,.1-.011.4.4,0,0,1,.382.234.393.393,0,0,1-.174.471.967.967,0,0,1,.611.256.83.83,0,0,1-.611.281c.222.186.217.354.174.463a.372.372,0,0,1-.389.23.626.626,0,0,1-.09-.007v4.8a.861.861,0,0,1,.594-.231.96.96,0,0,1-.206.6H4.714a.443.443,0,0,1,.239-.47.333.333,0,0,1,.119-.021.46.46,0,0,1,.344.178.911.911,0,0,1,.273-.595.953.953,0,0,1,.272.595A.466.466,0,0,1,6.305,12.3Z" transform="translate(73.898 38.781)" fill="#f3f2f1"/>
  <path id="Fill_63" data-name="Fill 63" d="M6.762,7.141a.817.817,0,0,0,.38-.338.473.473,0,0,1-.388-.05c.132-.1.289,0,.132-.256s-.273-.256-.438-.082a.978.978,0,0,1-1.254-.867.753.753,0,0,0,.371.305.39.39,0,0,0,.132.066.859.859,0,0,0,.149.025.526.526,0,0,0,.313.05.5.5,0,0,1,.058.016V5.961a.467.467,0,0,0,.421-.413c.041-.454-.388-.661-.858-1.065a6.024,6.024,0,0,1-.446-.4,4.134,4.134,0,0,0-.462-1.213,3.43,3.43,0,0,0-.133-.529,1.5,1.5,0,0,0,.248,1.742c.462.5,1.445,1,1.395,1.42a.29.29,0,0,1-.239.223A.473.473,0,0,1,5.994,5.7.342.342,0,0,1,5.9,5.672,1.461,1.461,0,0,1,5.7,5.581a1.914,1.914,0,0,1-.338-.264A9.2,9.2,0,0,1,4.351,4.062a1.792,1.792,0,0,1-.181-1.61C4.492,2,3.972,1.1,3.675.884A.871.871,0,0,0,3.658.405.477.477,0,0,1,3.377.43C3.287.273,3.254.24,3.146.223,2.94.19,2.948.083,2.923,0c-.107.091-.14.207-.264.207-.165.016-.223,0-.289.066a.417.417,0,0,1-.338.115c-.2,0-.19.108-.174.24A.266.266,0,0,0,2,.884a.084.084,0,0,0,.058.033l.14.165L2.3.9c.083-.066.314-.1.363.083.033.115.058.14-.1.157a3.149,3.149,0,0,1-.4.049c-.1,0-.1.132-.091.215.008.107.116.157.339.107s.61-.091.61.1c0,.487-.561.471-.685,1.048a1,1,0,0,1-.346-.322,2.3,2.3,0,0,0-.422-.52,2.547,2.547,0,0,0-.421-.338C.967,1.371.959,1.272.959,1.065c0-.165.074-.322.074-.487A1.071,1.071,0,0,0,.983.421.3.3,0,0,0,.719.256a.308.308,0,0,1,.1.174.212.212,0,0,0-.074.1.115.115,0,0,0,0,.165C.752.694.752.71.752.727A.21.21,0,0,1,.744.8C.744.834.736.834.727.8.686.694.628.512.505.5H.43A.083.083,0,0,0,.439.463C.439.339.306.24.141.405c.033,0,.108.016.124.041A.616.616,0,0,0,.24.578C.224.694.323.76.455.76.48.76.5.776.5.785S.505.818.513.834C.521.867.505.867.5.851.273.76.174.867.166.966a.358.358,0,0,0,.008.083c-.082.049-.1.173.05.272,0-.049,0-.115.049-.148.017,0,.025,0,.033-.017.025.033.058.066.067.066.008.017.049,0,.115-.049.017-.017.033-.017.058,0l.074.049c.017.017.008.017,0,.033C.472,1.4.5,1.527.67,1.577c-.083.149-.339.1-.331-.14-.189.3.124.512.388.4.009.116.009.338.042.338-.009-.016.016-.057.058-.057.016,0,.024.016.024.033a.16.16,0,0,0,.141.173c-.017-.05.008-.066.033-.083.041.066.082.149.123.215a2.231,2.231,0,0,0,.966,1.065,2.339,2.339,0,0,0-.685.644c-.157.157-.4.338-.553.239C.81,4.367.794,4.3.711,4.219a.646.646,0,0,0-.2-.042c-.008.017-.058.017-.091.042a.3.3,0,0,0-.314.1.226.226,0,0,1,.223.033c0,.033,0,.1-.008.1-.008.082.05.14.355.124.016,0,.049.016.033.049a.168.168,0,0,1-.165.033c-.14-.033-.19-.14-.289-.016a.3.3,0,0,1-.074.082H.15c-.108.033-.223.273-.091.372A.238.238,0,0,1,.15,4.9l.074.074c.082.132.173.2.38-.107.024-.033.033,0,.024.016-.008.141-.156.339.033.364a.2.2,0,0,1,.083.016V5.3a.27.27,0,0,0,.347.165A.331.331,0,0,1,.9,5.251H1c.1-.108-.025-.24.033-.339a.037.037,0,0,1,.041,0,.2.2,0,0,0,.289.132.266.266,0,0,0,.107-.19.905.905,0,0,1,.545-.115c-.024-.1.1-.256.314-.306a.351.351,0,0,1,.388.066,1,1,0,0,1,.206-.371c-.016.867,1.148.85,1.412,1.354A2.051,2.051,0,0,0,3.386,5.3c-.281.05-.785.306-.851.636a1.221,1.221,0,0,0,.512.933c-.33.066-.462-.033-.759.033H2.246c-.255.016-.289-.438-.61-.322-.017.016-.075.041-.091.057-.116,0-.281.149-.256.281a.371.371,0,0,1,.19-.115v.066c-.009.049.008.1.124.1.066,0,.082-.033.123-.033a.037.037,0,0,1,.033.041c0,.115-.388-.074-.322.264a.23.23,0,0,0,.058.091c-.016.1.066.2.248.148-.033-.016-.1-.066-.083-.132a.245.245,0,0,1,.075.017c.024,0,.041-.017.041-.05,0-.008.008-.008.016-.008a.084.084,0,0,1,.033.008c0,.017-.024.05-.024.083a.4.4,0,0,0,.033.115c-.017.116.165.24.33.116-.05,0-.149-.033-.165-.082a.774.774,0,0,1,.082-.034A.173.173,0,0,0,2.114,7.4c0-.05.009-.05.033-.05H2.23c.033-.016.041,0,.058.033a.212.212,0,0,0,.239.1A.168.168,0,0,0,2.634,7.4a.477.477,0,0,1,.141.082c-.033-.132.049-.222.33-.049l.182-.14s.255.107.355-.017c.173-.149.082-.149.082-.3C3.6,6.72,3.542,6.753,3.493,6.5c-.083-.421.5-.66.858-.594a1.978,1.978,0,0,0,1.09,1.2c.4.132.553-.3.694-.239a.187.187,0,0,1,.066.107,2.157,2.157,0,0,1-.042.47c-.041.1-.256.017-.4.017a.146.146,0,0,0-.157.066.315.315,0,0,0-.264.272.735.735,0,0,1,.223-.132.241.241,0,0,1,.008.066.194.194,0,0,0,.33.116c.008-.033.05,0,.025.016-.091.066-.281.24-.116.306a.667.667,0,0,1,.083.033.2.2,0,0,0,.149.223c-.033-.066-.042-.091.016-.207a.248.248,0,0,0,.091.017c.1,0,.058-.215.173-.272.008-.017.025-.017.017,0-.042.123-.058.272.049.305a.849.849,0,0,0,.1.016c.033.091.141.174.306.075-.033-.017-.132-.042-.149-.091a.726.726,0,0,0,.083-.1C6.8,7.917,6.572,7.9,6.572,7.8c0-.132.264-.049.264-.305a.091.091,0,0,1-.008-.033c.116-.066.239-.149.248-.239a.779.779,0,0,1-.314-.066Z" transform="translate(75.666 42.409)" fill="#f3f2f1"/>
  <path id="Fill_65" data-name="Fill 65" d="M7.95,12.349a.918.918,0,0,1-.974-.916.716.716,0,0,1,.752-.693.436.436,0,0,1,.356.117.287.287,0,0,1,.032.255c-.022.093-.134.107-.253.122-.144.018-.292.036-.292.2s.145.306.413.306a.526.526,0,0,0,.594-.6c0-.6-.492-.691-.785-.691a2.005,2.005,0,0,0-.485.065C2.991,9.235.651,5.022.958,1.849a1.171,1.171,0,0,1-.178-.065c-.035-.015-.068-.029-.1-.041L.95,1.1a.579.579,0,0,1-.421.19A.536.536,0,0,1,0,.759.54.54,0,0,1,.529.223a.532.532,0,0,1,.527.535V.817L1.321.173A5.9,5.9,0,0,0,4,1.015,9.461,9.461,0,0,0,7.278.325,4.242,4.242,0,0,1,8.487,0a1.344,1.344,0,0,1,1,.387A1.4,1.4,0,0,1,9.84,1.453l-.008.206.24.017a.448.448,0,0,1,.437.47.429.429,0,0,1-.479.4l-.049,0-.165-.007L9.634,10l.231.032-.049.661c-.061.215-.336.239-.537.239a1.215,1.215,0,0,1-.261.987A1.472,1.472,0,0,1,7.95,12.349ZM2.378,2.253A6.5,6.5,0,0,0,3.8,7.033,9.041,9.041,0,0,0,7.551,9.707ZM3,2.2,7.7,9c.056-.316.119-.72.174-1.076l0-.011L7.925,7.6,4.153,2.179a6.791,6.791,0,0,1-.726.041A3.943,3.943,0,0,1,3,2.2Zm2.79-.446h0c-.356.131-.728.233-1.056.322L8.047,6.833c.094-.554.169-1.022.241-1.516l-2.5-3.559ZM8.52.743a4.859,4.859,0,0,0-1.481.5l-.011,0c-.21.092-.461.2-.729.31L8.41,4.579,8.5,3.993l0-.012c.095-.621.162-1.059.206-1.341l.024-.189h-.14A.5.5,0,0,1,8.248,2.3a.435.435,0,0,1,.365-.73l.047,0,.2.017C8.9,1.137,8.884.93,8.792.829A.337.337,0,0,0,8.52.743Z" transform="translate(58.032 55.661)" fill="#f3f2f1"/>
  <path id="Fill_67" data-name="Fill 67" d="M.7,5.063h0a.257.257,0,0,1-.176-.094.169.169,0,0,1-.036-.146s0-.015.008-.015c-.024-.031-.048-.05-.066-.05a.1.1,0,0,1-.043-.069c0-.047.037-.095.081-.144a.541.541,0,0,0,.07-.092c.007,0,.011-.008.011-.015a.015.015,0,0,0,0-.009.011.011,0,0,0-.009,0,.042.042,0,0,0-.023.011.437.437,0,0,1-.218.1c-.083,0-.108-.081-.122-.161A.358.358,0,0,0,.15,4.3a.228.228,0,0,0-.12.085L.018,4.4a.108.108,0,0,1,0-.115.271.271,0,0,1,.209-.124s.008,0,.012.008.009.008.013.008A.187.187,0,0,0,.324,4.13a.14.14,0,0,1,.064-.02c.04,0,.063.029.093.067a.412.412,0,0,0,.074.077.126.126,0,0,0,.08.028A.111.111,0,0,0,.686,4.27.021.021,0,0,0,.7,4.257c0-.008,0-.016-.011-.024L.678,4.222C.5,4.169.452,4.114.439,4.077a.068.068,0,0,1,.009-.063.127.127,0,0,1,.041-.083A.177.177,0,0,0,.34,3.841.122.122,0,0,1,.44,3.8.192.192,0,0,1,.6,3.874h.1a.165.165,0,0,1,.124.091.39.39,0,0,1,.045.119.235.235,0,0,0,.029.079.216.216,0,0,0,.185.071A1.25,1.25,0,0,0,1.561,4.1a.568.568,0,0,1,.266-.042c.069,0,.134,0,.177.006l.045,0a3.376,3.376,0,0,0,.627-.182A1.429,1.429,0,0,1,2.49,3.62c-.032-.054-.055-.093-.07-.093a.041.041,0,0,0-.031.016.106.106,0,0,0-.019.083.1.1,0,0,1-.065-.042.136.136,0,0,1-.017-.1.038.038,0,0,0-.006-.027.025.025,0,0,0-.019-.006c-.04,0-.065.05-.066.05-.037,0-.056-.024-.066-.083,0-.009-.007-.013-.011-.013s-.01,0-.022.013a.406.406,0,0,1-.152.03A.258.258,0,0,1,1.7,3.325a.227.227,0,0,1,.064-.242.156.156,0,0,0,.026.137.161.161,0,0,0,.125.057.173.173,0,0,0,.171-.145A.044.044,0,0,0,2.084,3.1a.014.014,0,0,0-.01,0c-.083-.023-.131-.059-.138-.106s.032-.11.114-.165c.007-.017.007-.017,0-.033a.185.185,0,0,0-.025-.014A.044.044,0,0,1,2,2.76a.061.061,0,0,0-.031-.013.019.019,0,0,0-.018.013.213.213,0,0,1-.1.043.04.04,0,0,1-.028-.01s-.025-.034-.041-.05c-.013,0-.024,0-.024.017a.1.1,0,0,0-.067.107A.143.143,0,0,1,1.6,2.755a.135.135,0,0,1,.066-.111c0-.015.009-.065.009-.066a.159.159,0,0,1,.167-.113.426.426,0,0,1,.146.03c.007,0,.018,0,.019,0s0,0,0,0A.1.1,0,0,0,2,2.438a.038.038,0,0,0-.033-.016A.208.208,0,0,1,1.8,2.365a.1.1,0,0,1-.015-.092s.005-.014.009-.025a.363.363,0,0,1,.041-.091c-.017-.025-.076-.025-.108-.025a.267.267,0,0,1,.158-.068.1.1,0,0,1,.08.034.091.091,0,0,1,.018.076v.034h.074c.093.016.124.15.141.264a.009.009,0,0,1,.006,0,.01.01,0,0,0,.007,0,.02.02,0,0,0,.012-.007c0-.013.006-.023.009-.032a.12.12,0,0,0,.007-.034.151.151,0,0,0-.008-.05.051.051,0,0,1-.021-.036.143.143,0,0,1,.046-.1s.01-.008.018-.017a.212.212,0,0,1,.056-.049.146.146,0,0,0-.059-.132l-.007-.007.011,0h.014a.2.2,0,0,1,.189.142,1.076,1.076,0,0,1,.025.132.653.653,0,0,1-.063.189.8.8,0,0,0-.069.2c-.025.16-.03.241.132.339a1.179,1.179,0,0,1,.223.173,2.721,2.721,0,0,1,.148-.644A.339.339,0,0,1,2.827,2.5L2.8,2.471c.061-.012.1-.1.144-.2a1.5,1.5,0,0,1,.071-.143c-.032,0-.057-.029-.1-.114a.061.061,0,0,0,.018,0c.047,0,.1-.058.144-.113s.1-.113.143-.113a.433.433,0,0,1,.025-.314.29.29,0,0,1,.2.083c.009-.066.082-.066.14-.066l.031-.006a.512.512,0,0,1,.1-.016.064.064,0,0,1,.027,0,.453.453,0,0,1,.247.066.785.785,0,0,1,.257.183.28.28,0,0,1,.047.107.317.317,0,0,0,.011.032.114.114,0,0,1,.049.149.33.33,0,0,1,.207.1.252.252,0,0,1-.182.206c.085.1-.011.265-.1.424a.731.731,0,0,0-.119.27,2.867,2.867,0,0,1,.707-.095,2.95,2.95,0,0,1,.8.127,2.206,2.206,0,0,0,.574.1c.762,0,1.254-.178,1.254-.454,0-.359-.605-.4-1.246-.437-.767-.048-1.561-.1-1.561-.661a.5.5,0,0,1,.289-.4A.244.244,0,0,1,5.021.985,1.512,1.512,0,0,1,5.6.595,1.293,1.293,0,0,0,6.1.258a.619.619,0,0,1-.355.578.9.9,0,0,0,.5-.316A1.476,1.476,0,0,1,7.358,0,2,2,0,0,1,7.63.02a1.806,1.806,0,0,0-.95.568,2.177,2.177,0,0,1-1.461.72H5.186a.429.429,0,0,0-.206.305c0,.3.524.33,1.13.368.77.049,1.643.1,1.643.73,0,.31-.472.644-1.509.644-.018,0-.028,0-.029.006s.012.016.027.026a2.98,2.98,0,0,1,.5.1,1.071,1.071,0,0,0,.284.05.653.653,0,0,0,.085-.006h.017c.113,0,.14.055.15.076,0,.005,0,.008.005.008,0,.075.041.09.072.09a.244.244,0,0,0,.159-.09.213.213,0,0,1-.067.23.058.058,0,0,0-.007.033.343.343,0,0,1,0,.057c0,.063,0,.134.1.134h.024a.091.091,0,0,1-.1.083H7.423a.155.155,0,0,1,.091.124.171.171,0,0,1-.127.181c-.042.019-.079.035-.079.083,0,.027.021.044.046.064a.181.181,0,0,1,.069.225.192.192,0,0,1-.067.092.229.229,0,0,0,.108.066.213.213,0,0,1-.1.031.129.129,0,0,1-.128-.1.373.373,0,0,1-.059-.006l-.015,0c-.083-.016-.063-.125-.045-.221l0-.027c0-.006,0-.01,0-.012s-.007,0-.011.012a.193.193,0,0,0-.08.131c-.013.046-.025.085-.059.085H6.895c-.04.088-.034.123-.008.157a.152.152,0,0,1-.124-.174l-.009,0a.352.352,0,0,0-.065-.029.062.062,0,0,1-.044-.047c-.009-.065.1-.161.151-.2a.009.009,0,0,0,0-.01c0-.006-.015-.01-.025-.01a.017.017,0,0,0-.012,0,.139.139,0,0,1-.108.052.153.153,0,0,1-.148-.143V4.42a.68.68,0,0,0-.135.075c-.015.01-.028.019-.038.024-.01-.123.115-.2.206-.215a.128.128,0,0,1,.115-.067c.027,0,.057.011.088.018a.721.721,0,0,0,.146.023.086.086,0,0,0,.087-.041.174.174,0,0,0,.014-.108A.647.647,0,0,1,7,3.916a.051.051,0,0,0-.011-.044.092.092,0,0,0-.071-.03l-.009,0a.761.761,0,0,0-.2-.03.446.446,0,0,0-.256.073c-.03.017-.046.034-.049.052s.014.038.028.053.019.019.016.026-.057.018-.184.018A1.328,1.328,0,0,1,5.731,3.9a.269.269,0,0,1,.041.18c0,.051,0,.092.041.117a.415.415,0,0,1,.132.413c-.022.035-.094.054-.2.054a.873.873,0,0,1-.193-.022A.125.125,0,0,0,5.5,4.629a.094.094,0,0,0-.051.013c-.07.016-.072.062-.073.112a.139.139,0,0,1-.1.153.193.193,0,0,1-.046.006.17.17,0,0,1-.16-.1A.032.032,0,0,1,5.057,4.8a.072.072,0,0,0-.037-.012.116.116,0,0,0-.074.017c-.013,0-.025,0-.025.015,0,.056-.01.084-.033.092a.052.052,0,0,0-.017.01.1.1,0,0,1-.049.023c.008.05.1.067.139.067a.228.228,0,0,1-.126.041A.168.168,0,0,1,4.708,5a.1.1,0,0,1-.025-.084A.607.607,0,0,0,4.65,4.84.07.07,0,0,1,4.67,4.8a.041.041,0,0,0,.012-.022.038.038,0,0,0-.041-.033c-.008,0-.008,0-.008.016-.008.034-.026.05-.033.05H4.526c-.006.022.018.044.042.066a.279.279,0,0,1,.032.033.269.269,0,0,1-.069.01.142.142,0,0,1-.114-.048.113.113,0,0,1-.023-.094.187.187,0,0,1-.042-.083.164.164,0,0,1,.008-.141c.03-.039.092-.04.146-.041s.1,0,.1-.042c0-.017-.008-.033-.024-.033a.081.081,0,0,0-.044.015.113.113,0,0,1-.064.019A.107.107,0,0,1,4.39,4.44a.084.084,0,0,1-.014-.07V4.321a.245.245,0,0,0-.165.091L4.2,4.42a.165.165,0,0,1,.042-.137.27.27,0,0,1,.19-.1A.257.257,0,0,1,4.5,4.13a.179.179,0,0,1,.07-.016c.089,0,.146.085.2.161l0,.007c.052.079.1.154.175.154A.167.167,0,0,0,5.038,4.4a1.043,1.043,0,0,1,.23-.067c.009,0,.012,0,.013,0s0-.006,0-.013A.609.609,0,0,0,5,4.2.12.12,0,0,1,4.9,4.131a.592.592,0,0,1,.021-.454.611.611,0,0,1-.322.132C4.5,3.8,4.413,3.8,4.341,3.8c-.171,0-.268.021-.3.067a.147.147,0,0,0-.007.129.179.179,0,0,1-.006.141.263.263,0,0,1-.175.087.619.619,0,0,0-.122.081.842.842,0,0,1-.454.217h-.02c.057-.028.029-.116.015-.163l-.006-.02a.284.284,0,0,1-.238.136.172.172,0,0,1-.035,0l-.062.041c-.048.031-.086.055-.086.067,0,.134-.2.231-.289.231a.194.194,0,0,0,.1-.128c0-.01.007-.02,0-.025a.008.008,0,0,0-.007,0,.052.052,0,0,0-.021.007.615.615,0,0,1-.228.094c-.127.031-.218.054-.234.294A.244.244,0,0,1,2.1,4.882c0-.034-.007-.059-.024-.059s-.058.051-.058.067C1.981,4.855,1.984,4.8,2,4.724H2a.017.017,0,0,0,0-.011.017.017,0,0,0-.013,0,.646.646,0,0,1-.189.032.4.4,0,0,1-.116-.017s-.009,0-.009.017a.14.14,0,0,0-.049-.083.375.375,0,0,1-.24.257.234.234,0,0,0,.059-.257.236.236,0,0,1-.107.1.163.163,0,0,0-.074-.165s0,.01,0,.017a.225.225,0,0,1-.207.213H1.028c-.135,0-.164-.166-.169-.2a.013.013,0,0,0-.01-.013.08.08,0,0,0-.023,0,.153.153,0,0,0-.04.1c-.009.061-.019.13-.092.159L.675,4.868a.212.212,0,0,0-.055-.012A.212.212,0,0,0,.7,5.061ZM3.5,2.231a.043.043,0,0,1,.028.009c.012.012.016.022.013.031s-.025.024-.072.036l.023.018c.048.039.09.072.068.13s-.05.059-.106.059c-.034,0-.06.053-.084.1a.209.209,0,0,0-.016.157.116.116,0,0,0,.067.066.143.143,0,0,0,.064.016.154.154,0,0,0,.134-.107.059.059,0,0,1,0-.011l0-.008,0-.006L3.63,2.7c.012-.043.022-.076,0-.1a.083.083,0,0,1-.016-.123.063.063,0,0,1,.055-.032.221.221,0,0,1,.093.032c-.019-.051-.021-.087-.009-.1a.03.03,0,0,1,.026-.013c.025.009.038.039.049.069s.012.032.02.032l.005,0c.024-.012.023-.03.02-.061a.237.237,0,0,1,0-.038c0-.031-.015-.048-.058-.066l-.264-.132a.155.155,0,0,0-.045-.006.121.121,0,0,0-.039.006.09.09,0,0,1-.025.031l-.005,0c-.019.017-.031.03-.027.048a.016.016,0,0,0,.015.009.088.088,0,0,0,.026-.007l.007,0A.11.11,0,0,1,3.5,2.231Z" transform="translate(61.306 38.972)" fill="#f3f2f1"/>
  <path id="Fill_69" data-name="Fill 69" d="M.813,3.954h0A.3.3,0,0,1,.62,3.841a.222.222,0,0,1-.048-.192s.009-.017.017-.017L.549,3.6a.138.138,0,0,1-.042-.036A.106.106,0,0,1,.45,3.5c-.006-.048.04-.1.09-.153a.649.649,0,0,0,.09-.114.067.067,0,0,0,0-.03h0s-.007,0-.011.013a.548.548,0,0,1-.26.106c-.1,0-.122-.082-.136-.171,0-.007-.01-.02-.016-.035S.186,3.072.177,3.054a.235.235,0,0,0-.157.124.146.146,0,0,1,0-.152.288.288,0,0,1,.225-.138H.268c.008,0,.017,0,.017.017a.662.662,0,0,0,.09-.05.159.159,0,0,1,.078-.026c.045,0,.072.032.108.073a.479.479,0,0,0,.087.085.128.128,0,0,0,.09.04.111.111,0,0,0,.067-.023c.008,0,.01,0,.01-.007a.034.034,0,0,0-.027-.026C.552,2.892.51,2.806.5,2.773a.058.058,0,0,1,.014-.057.2.2,0,0,0,.025-.042.4.4,0,0,1,.032-.057.228.228,0,0,0-.154-.108L.392,2.5a.173.173,0,0,1,.123-.041A.241.241,0,0,1,.7,2.534H.805a.29.29,0,0,1,.156.116.5.5,0,0,1,.05.143.3.3,0,0,0,.033.1.248.248,0,0,0,.213.082,1.387,1.387,0,0,0,.563-.164,1.3,1.3,0,0,1,.408-.039c.095,0,.184,0,.236,0h.049a.006.006,0,0,0,.006,0c0-.008-.008-.035-.027-.072a.6.6,0,0,1-.085-.321.106.106,0,0,1-.08.038.386.386,0,0,1-.193-.1.973.973,0,0,0-.157-.1,1.252,1.252,0,0,1-.3-.257c-.045-.048-.074-.08-.093-.08A.05.05,0,0,0,1.54,1.9a.089.089,0,0,0-.01.078c-.091,0-.123-.085-.123-.165,0-.018,0-.05-.016-.05a.1.1,0,0,0-.067.083.126.126,0,0,1-.075-.116.018.018,0,0,0-.014-.006.09.09,0,0,0-.026.006.337.337,0,0,1-.179.052.3.3,0,0,1-.265-.15.28.28,0,0,1,.039-.3A.209.209,0,0,0,.851,1.5a.181.181,0,0,0,.135.06.185.185,0,0,0,.182-.181.071.071,0,0,0-.008-.039.028.028,0,0,0-.025-.012.174.174,0,0,1-.153-.1.229.229,0,0,1,.095-.217.03.03,0,0,0,0-.05A.1.1,0,0,0,1.018.925.06.06,0,0,0,.988.913.02.02,0,0,0,.97.925.211.211,0,0,1,.863.968.062.062,0,0,1,.828.958.217.217,0,0,1,.776.913l0,0C.763.925.755.925.738.925c-.058.016-.058.1-.058.14A.185.185,0,0,1,.588.924.163.163,0,0,1,.656.794a.248.248,0,0,1,0-.078c0-.01,0-.018,0-.022A.148.148,0,0,1,.817.562.394.394,0,0,1,.978.6l.013,0L1,.607l0,0s0-.008,0-.019A.1.1,0,0,0,1,.562a.1.1,0,0,1,0-.025C.986.52.97.5.961.5A.252.252,0,0,1,.766.444.138.138,0,0,1,.738.33.49.49,0,0,1,.772.2C.754.164.686.149.656.149A.233.233,0,0,1,.815.071.137.137,0,0,1,.953.216.051.051,0,0,1,.945.248.034.034,0,0,1,.969.241a.188.188,0,0,1,.039.006l.01,0c.1,0,.153.174.186.289l0,.016L1.216.56c.006.007.011.012.015.012s.008-.006.011-.019L1.259.488A.1.1,0,0,0,1.25.438a.109.109,0,0,1,0-.174c.005,0,.019-.017.035-.036S1.311.2,1.324.182A.2.2,0,0,0,1.233,0h.01a.256.256,0,0,1,.238.182A.708.708,0,0,1,1.522.33.908.908,0,0,1,1.48.565a1.17,1.17,0,0,0-.049.261c-.016.2-.014.289.19.4a1.577,1.577,0,0,1,.329.28c.033.034.064.066.093.093l.115.032a.153.153,0,0,1-.04-.008.158.158,0,0,0-.042-.009.142.142,0,0,0,.082.033h.058l.207.074c.007-.1.015-.222.024-.379-.042,0-.093-.053-.156-.131.073-.012.116-.113.166-.23.024-.057.049-.117.081-.175-.027,0-.069-.024-.115-.124a.069.069,0,0,0,.022,0c.056,0,.116-.07.173-.138s.11-.13.16-.13A.544.544,0,0,1,2.811.05l.062.023a.369.369,0,0,1,.168.093c.008-.082.1-.082.166-.082L3.253.074A1.282,1.282,0,0,1,3.38.05a.49.49,0,0,0,.106.033,1.274,1.274,0,0,1,.209.066,1.214,1.214,0,0,1,.275.186l.014.012C4,.352,4.012.4,4.024.44A.236.236,0,0,0,4.049.5l.02.03c.035.051.064.095.03.151a.48.48,0,0,1,.256.108.31.31,0,0,1-.214.239c.1.132-.029.343-.142.53-.03.049-.058.1-.081.139a5.77,5.77,0,0,1,1.19-.1c.7,0,1.455.075,2.059.135.4.04.752.075.97.075.514,0,1.28-.077,1.28-.29,0-.17-.156-.256-1.007-.256-.193,0-.481.031-.814.066a13.9,13.9,0,0,1-1.42.1A2.518,2.518,0,0,1,5.3,1.315.481.481,0,0,1,4.932.859c0-.4.408-.45.848-.45.136,0,.28.006.415.012A.224.224,0,0,1,6.278.347a1,1,0,0,1,.549-.13c.138,0,.281.014.407.027h.012c.134.013.261.025.383.025a.8.8,0,0,0,.448-.1c-.03.148-.193.322-.792.322a1.871,1.871,0,0,0,.388.039,3.9,3.9,0,0,0,.69-.079l.011,0A3.622,3.622,0,0,1,9.022.367a1.433,1.433,0,0,1,.9.3,1.359,1.359,0,0,0-.37-.043,6.667,6.667,0,0,0-.97.11L8.49.749A8.036,8.036,0,0,1,7.255.873,3.061,3.061,0,0,1,6.385.76.372.372,0,0,1,6.162.636c-.144-.009-.3-.018-.426-.018-.262,0-.531.029-.531.241s.3.3.935.3c.389,0,.842-.034,1.281-.068.379-.029.737-.056,1-.056.877,0,1.321.175,1.321.52s-.93.528-1.6.528c.2.017.35.037.484.054a3.473,3.473,0,0,0,.432.038,1.512,1.512,0,0,0,.165-.009.283.283,0,0,1,.055-.006.115.115,0,0,1,.123.094.075.075,0,0,0,0,.011.088.088,0,0,0,.092.085.272.272,0,0,0,.189-.1c.014.131-.014.217-.083.257a.041.041,0,0,0-.009.049.547.547,0,0,1,.006.067c0,.078.007.158.118.158h.026a.11.11,0,0,1-.121.083H9.572v.017a.161.161,0,0,1,.107.148.2.2,0,0,1-.155.212c-.045.017-.084.031-.084.077s.028.059.061.085a.2.2,0,0,1,.079.254.93.93,0,0,1-.067.115c.016.043.083.075.115.091a.226.226,0,0,1-.12.038.171.171,0,0,1-.16-.112.187.187,0,0,0-.083-.017c-.1-.036-.068-.2-.041-.3a.019.019,0,0,0,0-.017l0,0a.01.01,0,0,0-.006,0,.253.253,0,0,0-.092.161c-.015.058-.028.1-.077.1H8.961c-.05.106-.043.139-.009.206a.23.23,0,0,1-.14-.222.228.228,0,0,1-.091-.049.066.066,0,0,1-.05-.054c-.007-.069.1-.171.182-.219a.01.01,0,0,0,0-.011.025.025,0,0,0-.023-.012.015.015,0,0,0-.014.007.211.211,0,0,1-.129.047.167.167,0,0,1-.168-.163A.292.292,0,0,1,8.514,3.2a.386.386,0,0,0-.206.114.275.275,0,0,1,.231-.256.182.182,0,0,1,.14-.066c.034,0,.072.011.109.018a.971.971,0,0,0,.166.023c.051,0,.083-.013.1-.041a.219.219,0,0,0,.014-.128.612.612,0,0,1,.019-.244c.016-.085-.038-.1-.091-.115a.447.447,0,0,1-.062-.009,1.075,1.075,0,0,0-.189-.02.516.516,0,0,0-.286.078l-.009.005a1.133,1.133,0,0,1-.775.193,1.53,1.53,0,0,1-.536-.119L7.054,2.6a.289.289,0,0,1,.049.2c0,.055,0,.1.05.122a.456.456,0,0,1,.148.487c-.021.039-.1.062-.219.062a.992.992,0,0,1-.235-.028H6.723c-.077.02-.079.074-.081.132a.151.151,0,0,1-.118.174.2.2,0,0,1-.058.009.231.231,0,0,1-.189-.108c-.007-.016-.016-.033-.058-.033a.151.151,0,0,1-.083.016c-.008,0-.016,0-.016.017a.242.242,0,0,1-.041.132.341.341,0,0,0-.091.025c.016.067.133.082.173.082a.247.247,0,0,1-.148.055.191.191,0,0,1-.144-.064.147.147,0,0,1-.039-.115c-.016,0-.032-.082-.032-.1a.109.109,0,0,1,.01-.045A.059.059,0,0,0,5.815,3.6c0-.016-.009-.033-.024-.033s-.009,0-.009.017c-.008.049-.024.049-.05.049H5.65c-.008.052.063.1.091.116a.384.384,0,0,1-.084.01.171.171,0,0,1-.136-.053A.128.128,0,0,1,5.494,3.6a.238.238,0,0,1-.036-.253c.039-.05.117-.053.186-.055s.121,0,.121-.047-.016-.033-.041-.033a.148.148,0,0,0-.066.017.146.146,0,0,1-.065.017.126.126,0,0,1-.1-.032.1.1,0,0,1-.018-.083V3.071a.311.311,0,0,0-.2.124.2.2,0,0,1,.048-.166.314.314,0,0,1,.216-.123.216.216,0,0,1,.083-.05.208.208,0,0,1,.086-.02c.1,0,.158.083.224.183l.007.011c.059.088.115.171.2.171a.186.186,0,0,0,.1-.038A1.093,1.093,0,0,1,6.508,3.1a.093.093,0,0,1,.014-.012c.005,0,.009-.007.009-.01s0-.006-.007-.011A.586.586,0,0,0,6.2,2.939a.157.157,0,0,1-.117-.1.618.618,0,0,1,.042-.493.825.825,0,0,1-.338.157,2.558,2.558,0,0,0-.453-.048.638.638,0,0,0-.611.287L4.7,2.765a.5.5,0,0,1-.474.262c-.035,0-.072,0-.111-.006s-.121.011-.215.024l-.074.01a1.153,1.153,0,0,1-.778.584.3.3,0,0,1-.064-.007.2.2,0,0,0,.107-.148s.007-.015,0-.021a.008.008,0,0,0-.007,0,.054.054,0,0,0-.021.007.708.708,0,0,1-.262.1c-.152.033-.261.057-.283.354a.327.327,0,0,1-.078-.211c0-.037-.005-.061-.021-.061s-.075.064-.075.082a.216.216,0,0,1-.008-.165.031.031,0,0,0-.006-.021.009.009,0,0,0-.006,0,.02.02,0,0,0-.013.007,1,1,0,0,1-.19.019.448.448,0,0,1-.148-.019.016.016,0,0,0-.017.016.21.21,0,0,0-.074-.1.468.468,0,0,1-.24.282l-.025.015a.287.287,0,0,0,.058-.313.211.211,0,0,1-.132.132.141.141,0,0,0-.083-.175c0-.006-.005-.006-.007-.006a.02.02,0,0,0,0,.023.237.237,0,0,1-.223.239H1.208c-.152,0-.189-.141-.2-.224a.023.023,0,0,0-.022-.023.034.034,0,0,0-.019.007c-.03.017-.037.057-.046.1a.21.21,0,0,1-.119.186A.355.355,0,0,0,.721,3.7a.348.348,0,0,0,.09.254ZM3.141.916a.058.058,0,0,1,.033.009.052.052,0,0,1,.01.05c-.009.022-.037.039-.084.049l.021.013c.059.036.115.07.086.145s-.063.082-.124.082c-.035,0-.056.043-.078.089l-.013.027a.206.206,0,0,0-.02.158.13.13,0,0,0,.077.081.126.126,0,0,0,.072.023.185.185,0,0,0,.151-.122l0-.013c.028-.068.052-.127.029-.16-.058-.05-.075-.081-.033-.149a.071.071,0,0,1,.064-.039.294.294,0,0,1,.109.035l.009,0c-.025-.061-.029-.1-.016-.118a.035.035,0,0,1,.032-.014c.031.009.043.046.053.076s.013.041.023.041l.006,0c.022-.012.022-.037.022-.068a.287.287,0,0,1,0-.048c0-.031-.014-.039-.036-.053A.308.308,0,0,1,3.511.992L3.2.842A.155.155,0,0,0,3.146.83.106.106,0,0,0,3.1.842a.113.113,0,0,1-.031.034C3.049.9,3.037.907,3.042.925a.016.016,0,0,0,.016.009A.133.133,0,0,0,3.095.925.167.167,0,0,1,3.141.916ZM3.587.694a.3.3,0,0,0,.056.222.111.111,0,0,0,.084.042.125.125,0,0,0,.1-.033.3.3,0,0,1,.16-.066A1.394,1.394,0,0,1,3.587.694ZM3.025.373h0a.347.347,0,0,1,.048.181.119.119,0,0,0,.036.1A.128.128,0,0,0,3.2.694.2.2,0,0,0,3.355.587,1.416,1.416,0,0,1,3.025.373Z" transform="translate(58.965 44.547)" fill="#f3f2f1"/>
  <path id="Fill_71" data-name="Fill 71" d="M6.9,3.84a.187.187,0,0,1-.143-.063.114.114,0,0,1-.029-.091A.3.3,0,0,1,6.7,3.571.061.061,0,0,1,6.7,3.55a.114.114,0,0,0,.01-.045c0-.012,0-.015-.013-.022L6.69,3.472s-.006,0-.008.008,0,.008-.007.008a.1.1,0,0,1-.033.067.2.2,0,0,1-.091-.017c-.008.046.052.1.091.116a.32.32,0,0,1-.085.013.149.149,0,0,1-.119-.048A.139.139,0,0,1,6.41,3.5a.282.282,0,0,1-.058-.074.193.193,0,0,1,.017-.16.22.22,0,0,1,.17-.056c.059,0,.11-.006.11-.049,0-.017-.008-.033-.025-.033a.126.126,0,0,0-.061.016.146.146,0,0,1-.071.018.107.107,0,0,1-.087-.03.073.073,0,0,1-.012-.061V3.01a.357.357,0,0,0-.2.107.174.174,0,0,1,.045-.142.311.311,0,0,1,.219-.114l.025-.027c.021-.023.036-.04.041-.04A.215.215,0,0,1,6.6,2.782c.106,0,.173.1.226.18l.006.009c.059.088.115.171.2.171a.194.194,0,0,0,.1-.032.548.548,0,0,1,.215-.06l.031-.005A.025.025,0,0,0,7.4,3.03a.018.018,0,0,0-.006-.02.729.729,0,0,0-.314-.131.171.171,0,0,1-.13-.1A.458.458,0,0,1,7,2.383l-.044.028a.26.26,0,0,1-.163.062c-.149-.013-.286-.02-.408-.02a1.212,1.212,0,0,0-.917.275l-.028.024a.9.9,0,0,1-.711.252,3.265,3.265,0,0,1-.4-.028.071.071,0,0,0-.021,0c-.03,0-.049.024-.073.055-.008.011-.017.022-.026.033A.246.246,0,0,1,4,3.151H3.984a.018.018,0,0,0,.006-.017.342.342,0,0,1-.067.016.444.444,0,0,0-.072.017c0,.018-.007.035-.011.053a.4.4,0,0,0-.014.079l-.43.19A.047.047,0,0,1,3.4,3.478l0,0a.555.555,0,0,1-.291.116l-.032,0a.248.248,0,0,0,.123-.139c0-.007.006-.015,0-.018s-.018.007-.028.018a.809.809,0,0,1-.351.074c-.218.014-.424.028-.45.289a.29.29,0,0,1-.055-.178c0-.045-.006-.077-.028-.077s-.066.066-.066.082a.313.313,0,0,1-.025-.165.019.019,0,0,0,0-.017l0,0-.006,0a1.189,1.189,0,0,1-.21.024.289.289,0,0,1-.129-.024c0,.015-.007.016-.008.016A.167.167,0,0,0,1.795,3.4a.384.384,0,0,1-.264.273A.255.255,0,0,0,1.6,3.38a.187.187,0,0,1-.115.108c.014-.063-.016-.114-.092-.157-.006-.006-.009-.008-.011-.008s0,0,0,.008a.2.2,0,0,1-.041.153.23.23,0,0,1-.165.086H1.144c-.157,0-.176-.156-.183-.207a.026.026,0,0,0-.006-.016.02.02,0,0,0-.016-.008.037.037,0,0,0-.02.007.161.161,0,0,0-.048.11c-.012.063-.025.134-.1.163a.13.13,0,0,1-.029-.01C.727,3.6.706,3.6.681,3.587a.236.236,0,0,0,.1.239H.76a.237.237,0,0,1-.169-.088A.207.207,0,0,1,.54,3.571a.032.032,0,0,1,0-.016.034.034,0,0,0,0-.017.123.123,0,0,0-.066-.05.1.1,0,0,1-.057-.066c-.008-.047.037-.1.085-.155A.616.616,0,0,0,.6,3.15S.6,3.136.6,3.13a.007.007,0,0,0-.007,0,.05.05,0,0,0-.021.007.482.482,0,0,1-.241.106c-.089,0-.116-.083-.13-.163a.153.153,0,0,0-.011-.039.462.462,0,0,1-.014-.044.218.218,0,0,0-.157.124.151.151,0,0,1,0-.156.239.239,0,0,1,.187-.12.117.117,0,0,1,.032,0H.276a.549.549,0,0,0,.047-.03.132.132,0,0,1,.035-.021.155.155,0,0,1,.06-.014c.049,0,.077.035.113.078a.5.5,0,0,0,.083.086.146.146,0,0,0,.08.025.1.1,0,0,0,.068-.025c.009,0,.011,0,.011-.007a.034.034,0,0,0-.027-.026C.553,2.84.5,2.776.483,2.734a.069.069,0,0,1,.009-.062A.381.381,0,0,1,.54,2.588a.245.245,0,0,0-.173-.131.235.235,0,0,1,.111-.024.223.223,0,0,1,.178.073H.771c.04,0,.1.048.14.116a.4.4,0,0,1,.05.13.3.3,0,0,0,.025.076.264.264,0,0,0,.222.086,1.1,1.1,0,0,0,.513-.159,2.193,2.193,0,0,1,.531-.036l.218,0h.043l0,0a.286.286,0,0,0-.03-.111,1.247,1.247,0,0,1-.074-.275c-.049-.04-.074-.068-.074-.082a.213.213,0,0,1-.169.09l-.046.009a1.76,1.76,0,0,1-.542-.488c-.04-.051-.065-.082-.077-.082a.039.039,0,0,0-.034.017.112.112,0,0,0,0,.1.171.171,0,0,1-.14-.174c0-.016,0-.033-.009-.033-.046,0-.057.031-.057.041a.1.1,0,0,1-.091-.074c-.006-.013-.012-.023-.018-.023s-.005,0-.007.007a.35.35,0,0,1-.168.043A.313.313,0,0,1,.71,1.537a.276.276,0,0,1,.02-.285A.251.251,0,0,0,.8,1.427a.189.189,0,0,0,.133.058.158.158,0,0,0,.155-.168c0-.033,0-.049-.033-.049A.173.173,0,0,1,.9,1.158a.2.2,0,0,1,.086-.2.061.061,0,0,0,0-.05A.086.086,0,0,0,.957.9.086.086,0,0,1,.928.88.058.058,0,0,0,.9.868.054.054,0,0,0,.87.88.2.2,0,0,1,.747.93C.747.921.736.912.722.9A.185.185,0,0,1,.681.864C.672.88.664.88.656.88.612.895.614.962.615,1v.013a.177.177,0,0,1-.1-.137A.151.151,0,0,1,.573.748a.131.131,0,0,1,0-.055c0-.008,0-.014,0-.018A.139.139,0,0,1,.726.537.388.388,0,0,1,.879.575c.008.008.012.01.014.01s0-.013,0-.027A.118.118,0,0,0,.879.509C.87.491.863.491.837.491.7.475.615.441.623.319A.987.987,0,0,1,.648.187C.637.166.61.158.586.151A.141.141,0,0,1,.548.137.2.2,0,0,1,.686.067.143.143,0,0,1,.821.22V.236H.895c.092.017.151.177.2.306a.014.014,0,0,0,0,.01l.006,0A.019.019,0,0,0,1.118.542.433.433,0,0,0,1.126.459.052.052,0,0,0,1.118.426.125.125,0,0,1,1.074.334.09.09,0,0,1,1.11.269a.29.29,0,0,1,.075-.1.23.23,0,0,0-.1-.164A.054.054,0,0,1,1.117,0a.254.254,0,0,1,.216.17c0,.025.012.058.02.087a.444.444,0,0,1,.013.061A.716.716,0,0,1,1.34.55a1.068,1.068,0,0,0-.033.232c0,.2.01.274.2.388a1.381,1.381,0,0,1,.268.233c.087.091.156.163.236.172a.647.647,0,0,1,.091.009.5.5,0,0,0,.066.007.313.313,0,0,0,.148.017l.091.033a1.8,1.8,0,0,1,.033-.289.389.389,0,0,1-.091-.1c.071-.011.11-.107.154-.217A1.492,1.492,0,0,1,2.579.864c-.037,0-.07-.044-.1-.132A.054.054,0,0,0,2.5.737c.047,0,.1-.059.15-.121S2.76.491,2.81.491A.416.416,0,0,1,2.843.154a.291.291,0,0,1,.207.1C3.066.17,3.156.17,3.215.17c0,0,0,0,.013,0A.359.359,0,0,0,3.291.163.378.378,0,0,1,3.367.15a.044.044,0,0,1,.021,0,.356.356,0,0,0,.056.013.864.864,0,0,1,.225.069,1.955,1.955,0,0,1,.238.145L3.95.41a.467.467,0,0,1,.019.059c.013.048.03.106.047.106.041.048.082.114.049.157A.544.544,0,0,1,4.3.847a.309.309,0,0,1-.206.24c.1.117-.017.313-.12.486a1.436,1.436,0,0,0-.1.189A5.649,5.649,0,0,1,5.392,1.61c.851,0,1.821.08,2.529.138.439.036.785.065.973.065.429,0,1.239-.06,1.239-.289,0-.138-.16-.223-.959-.223-.168,0-.457.026-.792.055-.522.046-1.171.1-1.758.1a3.974,3.974,0,0,1-1.08-.112c-.3-.089-.455-.236-.455-.435,0-.382.53-.435,1.1-.435.143,0,.294,0,.44.007s.3.007.446.007A.408.408,0,0,0,7.161.426a.991.991,0,0,1,.53-.111c.183,0,.385.021.563.039h.009c.193.02.375.038.54.038A.8.8,0,0,0,9.241.3C9.216.463,8.65.558,8.118.558a1.716,1.716,0,0,0,.35.034A3.908,3.908,0,0,0,9.19.5l.025,0A3.611,3.611,0,0,1,9.867.415,1.018,1.018,0,0,1,10.6.689a1.364,1.364,0,0,0-.447-.067,5.023,5.023,0,0,0-1,.149l-.06.013A5.642,5.642,0,0,1,7.906.948,2.431,2.431,0,0,1,7.252.864a.291.291,0,0,1-.2-.149C6.92.712,6.775.7,6.634.7c-.2-.009-.4-.019-.579-.019-.327,0-.7.027-.7.233,0,.191.4.284,1.225.284.511,0,1.1-.035,1.623-.065.406-.024.755-.044.99-.044.856,0,1.255.149,1.255.47,0,.371-1.068.476-1.527.5.212.016.372.038.5.056a2.509,2.509,0,0,0,.341.033,1.013,1.013,0,0,0,.175-.015A.3.3,0,0,1,9.99,2.13a.13.13,0,0,1,.138.094c0,.007,0,.011.006.011.008.079.052.1.088.1a.236.236,0,0,0,.168-.1.248.248,0,0,1-.083.239.01.01,0,0,0-.008,0s0,.011,0,.022,0,.015,0,.025a.318.318,0,0,1,.009.072c0,.071.009.145.114.145h.025c-.024.054-.071.059-.119.065a.409.409,0,0,0-.054.009.209.209,0,0,1,.116.149.183.183,0,0,1-.141.2c-.048.02-.09.037-.09.094,0,.028.023.047.049.069a.2.2,0,0,1,.066.253.214.214,0,0,1-.058.1.159.159,0,0,0,.116.083.222.222,0,0,1-.113.034.147.147,0,0,1-.144-.1.353.353,0,0,1-.083-.016c-.091-.034-.074-.181-.04-.273a.018.018,0,0,0,0-.013s-.011,0-.021,0a.235.235,0,0,0-.076.149c-.014.058-.025.107-.073.107H9.7c-.048.1-.042.131-.008.174A.187.187,0,0,1,9.555,3.6c-.04-.016-.075-.032-.075-.033a.082.082,0,0,1-.054-.062c-.008-.066.082-.147.161-.211a.012.012,0,0,0,0-.013.022.022,0,0,0-.02-.01.023.023,0,0,0-.016.006.155.155,0,0,1-.115.051.171.171,0,0,1-.167-.165c-.007,0-.007-.018-.007-.033a.269.269,0,0,0-.14.066.29.29,0,0,1-.051.033.266.266,0,0,1,.223-.24.173.173,0,0,1,.14-.066c.029,0,.061.01.093.017a.909.909,0,0,0,.166.024c.051,0,.082-.013.1-.041a.206.206,0,0,0,.014-.13.546.546,0,0,1,.012-.224c.014-.053-.015-.093-.083-.115-.014,0-.033,0-.057,0a1.339,1.339,0,0,0-.144-.009.6.6,0,0,0-.318.079,1.129,1.129,0,0,1-.734.182,1.36,1.36,0,0,1-.507-.116l-.088-.033a.282.282,0,0,1,.044.187c0,.056,0,.1.055.135a.427.427,0,0,1,.149.454c-.025.04-.128.065-.262.065A.881.881,0,0,1,7.7,3.38a.162.162,0,0,0-.065-.011.117.117,0,0,0-.058.011C7.5,3.4,7.5,3.444,7.5,3.5a.147.147,0,0,1-.107.159.264.264,0,0,1-.071.01.15.15,0,0,1-.16-.109.037.037,0,0,0-.033-.024.058.058,0,0,0-.025.007H7.029c-.017,0-.025,0-.033.033a.15.15,0,0,1-.032.115.368.368,0,0,0-.091.033c.014.045.108.062.159.071l.014,0A.253.253,0,0,1,6.9,3.84ZM3.131,1a.077.077,0,0,1,.043.012.026.026,0,0,1,.012.025c0,.021-.04.04-.1.05l.027.016c.064.04.119.075.089.148-.017.049-.05.066-.131.066-.023,0-.047.043-.073.088l-.011.019a.183.183,0,0,0,.059.248.134.134,0,0,0,.057.013.189.189,0,0,0,.157-.129c.03-.082.039-.135.024-.149a.1.1,0,0,1-.024-.14.063.063,0,0,1,.062-.04.261.261,0,0,1,.074.015l.03.008c-.018-.049-.022-.084-.013-.1a.011.011,0,0,1,.01-.005l.012,0c.046,0,.061.038.072.067s.015.032.027.032c.028-.013.021-.062.018-.081V1.163a.038.038,0,0,0,0-.006.109.109,0,0,0-.044-.09L3.5,1.054,3.2.93l-.008,0A.145.145,0,0,0,3.134.91a.059.059,0,0,0-.043.02L3.082.939c-.014.013-.047.044-.04.073,0,0,0,0,.008,0a.11.11,0,0,0,.025-.006l.009,0A.2.2,0,0,1,3.131,1Z" transform="translate(57.657 48.863)" fill="#f3f2f1"/>
  <path id="Fill_73" data-name="Fill 73" d="M6.486,3.834a.182.182,0,0,1-.134-.058.14.14,0,0,1-.04-.1.532.532,0,0,1-.017-.1.059.059,0,0,1,.01-.047.042.042,0,0,0,.007-.019.031.031,0,0,0-.033-.033c-.017,0-.025,0-.025.016s-.023.05-.041.05a.119.119,0,0,1-.067-.017c-.015.05.044.1.076.116a.27.27,0,0,1-.1.021.127.127,0,0,1-.132-.154.378.378,0,0,1-.044-.086L5.94,3.408a.17.17,0,0,1,.011-.146c.035-.045.106-.047.169-.048s.116,0,.116-.046A.038.038,0,0,0,6.2,3.136a.08.08,0,0,0-.039.013.131.131,0,0,1-.068.019c-.1,0-.116-.053-.116-.1V3.012a.245.245,0,0,0-.19.107.2.2,0,0,1,.052-.16.29.29,0,0,1,.2-.112.441.441,0,0,1,.043-.035.475.475,0,0,0,.04-.032.2.2,0,0,1,.067-.013c.1,0,.168.1.221.184l.006.01c.057.09.111.175.194.175a.182.182,0,0,0,.1-.034.529.529,0,0,1,.264-.074.019.019,0,0,0,.014-.012A.019.019,0,0,0,6.979,3a.772.772,0,0,0-.313-.115.181.181,0,0,1-.119-.112A.612.612,0,0,1,6.575,2.3a.76.76,0,0,0-.062.072c-.043.054-.079.1-.136.1-.16-.015-.307-.023-.435-.023a1.176,1.176,0,0,0-.89.271l-.027.023a.891.891,0,0,1-.7.249,3.2,3.2,0,0,1-.417-.031H3.9c-.036,0-.056.03-.079.065L3.8,3.057a.228.228,0,0,1-.2.1H3.57c-.128.015-.273.032-.273.066,0,.133-.283.338-.426.338a.074.074,0,0,1-.052-.016.221.221,0,0,0,.115-.132c0-.017.006-.026,0-.029a.048.048,0,0,0-.028.012.712.712,0,0,1-.25.09c-.146.031-.251.053-.279.331a.314.314,0,0,1-.062-.185c0-.041-.006-.07-.029-.07s-.066.065-.066.083a.186.186,0,0,1-.016-.166c0-.008,0-.017,0-.021l-.005,0a.034.034,0,0,0-.016.007.865.865,0,0,1-.175.019.5.5,0,0,1-.148-.019c-.006,0-.013.012-.015.016a.154.154,0,0,0-.059-.1.457.457,0,0,1-.264.3.3.3,0,0,0,.066-.3.408.408,0,0,1-.116.122.166.166,0,0,0-.083-.173c-.018,0-.024,0-.024.017a.163.163,0,0,1-.033.135.209.209,0,0,1-.174.087H1.135c-.14,0-.173-.13-.181-.207C.948,3.34.942,3.327.933,3.327a.018.018,0,0,0-.013.007c-.036.018-.046.063-.056.112s-.027.132-.1.16a.023.023,0,0,1-.018.007.192.192,0,0,1-.061-.019L.672,3.589a.279.279,0,0,0,.108.24H.761a.245.245,0,0,1-.172-.091.225.225,0,0,1-.057-.183.087.087,0,0,1,.008-.033L.518,3.51C.5,3.5.474,3.486.474,3.474A.105.105,0,0,1,.421,3.4c-.006-.047.037-.1.082-.147a.511.511,0,0,0,.078-.1c.008-.008.013-.017.011-.021s0,0-.006,0a.054.054,0,0,0-.021.007.512.512,0,0,1-.242.1c-.09,0-.115-.079-.129-.165A.323.323,0,0,1,.174,3L.169,2.979a.2.2,0,0,0-.148.14.157.157,0,0,1,0-.163.256.256,0,0,1,.2-.128H.268l.038-.016A.234.234,0,0,1,.351,2.8a.156.156,0,0,1,.068-.019c.045,0,.073.032.108.073a.521.521,0,0,0,.079.079.128.128,0,0,0,.085.033.194.194,0,0,0,.071-.016c.007-.005.01-.011.009-.016S.75,2.913.739,2.913C.6,2.861.51,2.8.483,2.741a.1.1,0,0,1,0-.084.393.393,0,0,0,.042-.084A.222.222,0,0,0,.367,2.46a.181.181,0,0,1,.108-.03.285.285,0,0,1,.182.062H.763A.22.22,0,0,1,.9,2.607a.447.447,0,0,1,.055.132.342.342,0,0,0,.036.091.237.237,0,0,0,.2.082,1.262,1.262,0,0,0,.531-.164.528.528,0,0,1,.227-.034c.091,0,.187.008.25.013l.067,0c.005-.006,0-.016-.024-.042a.476.476,0,0,1-.133-.329l-.058.05a.254.254,0,0,1-.132-.173,1.027,1.027,0,0,1-.107.057c-.064.031-.13.063-.124.083a1.486,1.486,0,0,1-.508-.488c-.045-.064-.075-.106-.095-.106a.034.034,0,0,0-.028.013.1.1,0,0,0,0,.086C.975,1.868.933,1.814.92,1.716a.16.16,0,0,0,0-.032c0-.012-.007-.018-.015-.018-.037,0-.059.049-.059.062v.005c-.041,0-.065-.048-.084-.093,0-.008-.008-.012-.012-.012s-.011,0-.02.012a.367.367,0,0,1-.171.043.3.3,0,0,1-.268-.143.278.278,0,0,1,.026-.288.219.219,0,0,0,.06.165.193.193,0,0,0,.137.06A.162.162,0,0,0,.672,1.3.029.029,0,0,0,.64,1.271a.176.176,0,0,1-.15-.108A.225.225,0,0,1,.573.949C.581.931.581.931.573.915A.256.256,0,0,1,.51.868l-.044,0A.33.33,0,0,1,.35.921.021.021,0,0,1,.335.915.2.2,0,0,1,.284.874L.276.866H.252C.189.883.2.97.2,1.006A.186.186,0,0,1,.1.858.129.129,0,0,1,.153.751a.275.275,0,0,1,0-.083A.137.137,0,0,1,.306.535a.39.39,0,0,1,.16.041s.007,0,.009,0a.011.011,0,0,0,0-.011A.155.155,0,0,1,.466.51C.466.488.452.477.425.477A.237.237,0,0,1,.247.423.161.161,0,0,1,.21.3.69.69,0,0,1,.244.188.168.168,0,0,0,.128.139.2.2,0,0,1,.271.064.136.136,0,0,1,.4.205C.4.221.393.221.392.221A.241.241,0,0,1,.457.234l.017,0c.1,0,.168.181.2.289a.029.029,0,0,0,0,.018h0S.686.542.689.527A.182.182,0,0,0,.705.445.053.053,0,0,0,.689.411.125.125,0,0,1,.681.255.228.228,0,0,0,.727.211L.763.173a.226.226,0,0,0-.1-.165A.075.075,0,0,1,.7,0,.251.251,0,0,1,.912.173a.823.823,0,0,1,.049.14A.834.834,0,0,1,.929.545.984.984,0,0,0,.9.767c0,.192,0,.289.19.388a1.436,1.436,0,0,1,.286.24c.086.087.153.156.226.165.025.007.048.01.07.014a.349.349,0,0,1,.079.019h.149l.165.058a1.479,1.479,0,0,1,.013-.161c0-.037.009-.075.012-.113a.531.531,0,0,1-.157-.14c.071,0,.113-.095.161-.2a1.361,1.361,0,0,1,.086-.17C2.13.848,2.1.811,2.059.733a.079.079,0,0,0,.02,0c.054,0,.107-.061.159-.121S2.343.494,2.4.494A.413.413,0,0,1,2.423.156a.345.345,0,0,1,.223.083C2.655.173,2.737.173,2.8.173l.019,0A.656.656,0,0,1,2.939.151a.067.067,0,0,1,.028,0,.57.57,0,0,1,.282.066.885.885,0,0,1,.281.19c.019.01.033.062.044.1A.191.191,0,0,0,3.6.576c.044.045.089.109.05.157A.5.5,0,0,1,3.884.85a.294.294,0,0,1-.207.238c.1.113-.011.29-.114.46a1.326,1.326,0,0,0-.116.218,5.812,5.812,0,0,1,1.58-.157c.839,0,1.789.074,2.483.128.44.034.787.061.981.061s1.238-.013,1.238-.272c0-.144-.166-.24-.975-.24-.168,0-.457.026-.791.055-.521.046-1.169.1-1.754.1A3.957,3.957,0,0,1,5.13,1.333c-.3-.089-.454-.236-.454-.435,0-.373.57-.423,1.128-.423.176,0,.361.005.54.011l.313.008A.217.217,0,0,1,6.741.428,1.013,1.013,0,0,1,7.279.317c.179,0,.379.02.555.037h.008c.191.019.371.037.535.037A.82.82,0,0,0,8.829.3C8.8.448,8.21.561,7.7.561A1.889,1.889,0,0,0,8.084.6,3.491,3.491,0,0,0,8.818.5h.007A3.521,3.521,0,0,1,9.544.4a1.827,1.827,0,0,1,.622.108A.91.91,0,0,0,9.891.473a4.218,4.218,0,0,0-1.015.2L8.77.7A5.136,5.136,0,0,1,7.446.931,2.138,2.138,0,0,1,6.84.85c-.1-.032-.173-.066-.2-.132C6.493.714,6.331.7,6.175.7c-.2-.011-.411-.022-.594-.022-.443,0-.641.069-.641.224,0,.2.411.3,1.257.3.51,0,1.093-.034,1.608-.064.4-.023.736-.043.965-.043.862,0,1.264.15,1.264.472,0,.347-1.038.424-1.536.462-.023.007-.034.013-.035.021s.016.019.035.029c.213.013.381.03.529.045a4.058,4.058,0,0,0,.408.03A1.356,1.356,0,0,0,9.6,2.137a.308.308,0,0,1,.057-.006c.121,0,.124.094.124.105,0,.07.04.085.073.085a.294.294,0,0,0,.19-.1.293.293,0,0,1-.1.256c-.016,0-.016.017-.016.033a.4.4,0,0,1,0,.076.164.164,0,0,0,.024.121.115.115,0,0,0,.086.027h.028a.144.144,0,0,1-.134.067H9.877c0,.009,0,.013,0,.015h.006a.147.147,0,0,1,.083.149.2.2,0,0,1-.151.188c-.046.019-.086.036-.089.084,0,.029.019.05.044.075a.189.189,0,0,1,.047.248.162.162,0,0,1-.028.051.7.7,0,0,0-.039.064c0,.028.048.051.082.067l.017.008a.262.262,0,0,1-.116.03.144.144,0,0,1-.147-.1.248.248,0,0,1-.066-.015.089.089,0,0,1-.054-.046A.355.355,0,0,1,9.5,3.375s0,0,0,0-.008,0-.019,0a.223.223,0,0,0-.089.141c-.02.061-.037.114-.093.114H9.226a.2.2,0,0,0-.025.19.205.205,0,0,1-.124-.206l-.066-.049c-.027-.01-.043-.025-.046-.044-.01-.06.1-.148.166-.2l.012-.01a.027.027,0,0,0,.006-.028.021.021,0,0,0-.018-.011.013.013,0,0,0-.012.007.185.185,0,0,1-.125.051.148.148,0,0,1-.1-.04.151.151,0,0,1-.044-.112V3.119a.405.405,0,0,0-.145.066.329.329,0,0,1-.061.033c.007-.109.13-.2.247-.239A.046.046,0,0,0,8.9,2.97.167.167,0,0,1,9,2.927l.022,0a1.009,1.009,0,0,1,.132.013.992.992,0,0,0,.128.012.126.126,0,0,0,.112-.041.214.214,0,0,0,.015-.11.651.651,0,0,1,.026-.229c.025-.084-.019-.1-.058-.114a.5.5,0,0,1-.068-.008,1,1,0,0,0-.16-.015.547.547,0,0,0-.307.089,1.308,1.308,0,0,1-.777.156,1.606,1.606,0,0,1-.586-.122.263.263,0,0,1,.042.176c0,.055,0,.1.048.129a.376.376,0,0,1,.151.234.352.352,0,0,1,0,.22c-.031.056-.166.064-.243.064a1.309,1.309,0,0,1-.186-.014.114.114,0,0,0-.044-.008.333.333,0,0,0-.046,0,.266.266,0,0,1-.035,0c-.075.011-.076.058-.078.112a.144.144,0,0,1-.1.16.225.225,0,0,1-.083.017.174.174,0,0,1-.156-.1l-.01-.012a.049.049,0,0,0-.048-.021H6.6c-.009,0-.025,0-.025.033,0,.059-.012.1-.032.115a.428.428,0,0,0-.084.033c.016.054.1.074.175.074A.245.245,0,0,1,6.486,3.834ZM2.67,1.271c-.033,0-.055.038-.084.085l-.023.038a.175.175,0,0,0,.075.231.13.13,0,0,0,.057.012.192.192,0,0,0,.158-.111.3.3,0,0,0,.023-.149c-.057-.066-.066-.091-.023-.157a.05.05,0,0,1,.05-.038.294.294,0,0,1,.107.034l.007,0c-.024-.062-.028-.088-.018-.1a.039.039,0,0,1,.034-.013c.025.008.037.038.049.065s.017.036.027.036l.007,0A.018.018,0,0,0,3.13,1.2c.01-.011.007-.039,0-.066,0-.01,0-.02,0-.028,0-.027-.017-.043-.042-.067l-.016-.016-.3-.14A.142.142,0,0,0,2.725.87a.108.108,0,0,0-.047.012.1.1,0,0,1-.026.032l-.005,0C2.632.931,2.62.941,2.63.957s.007.017.016.017A.1.1,0,0,0,2.674.966l.011,0a.108.108,0,0,1,.04-.01.04.04,0,0,1,.021.005.05.05,0,0,1,.014.049c-.011.032-.063.046-.08.05l.014.011.005,0,.011.006c.053.039.1.073.077.128s-.043.072-.079.072a.153.153,0,0,1-.037-.005Zm.48-.52a.246.246,0,0,0,.03.189.143.143,0,0,0,.1.067A.11.11,0,0,0,3.367.971.267.267,0,0,1,3.521.9,2.077,2.077,0,0,1,3.15.751Z" transform="translate(74.345 55.168)" fill="#f3f2f1"/>
  <path id="Fill_75" data-name="Fill 75" d="M.731,3.509h0a.265.265,0,0,1-.17-.09A.213.213,0,0,1,.5,3.253.08.08,0,0,0,.525,3.22a.178.178,0,0,1-.067-.05.088.088,0,0,1-.052-.056c-.009-.045.034-.1.08-.157a.827.827,0,0,0,.078-.109s.005,0,.005-.009,0-.011-.009-.011a.024.024,0,0,0-.013,0,.484.484,0,0,1-.242.111c-.083,0-.107-.077-.121-.161a.2.2,0,0,0-.025-.074.168.168,0,0,0-.14.107.129.129,0,0,1,0-.138.271.271,0,0,1,.209-.133.018.018,0,0,1,.016.009s0,.006.009.006L.29,2.544a.364.364,0,0,1,.052-.018A.126.126,0,0,1,.412,2.5c.037,0,.063.033.1.075a.676.676,0,0,0,.076.085.132.132,0,0,0,.083.028.158.158,0,0,0,.057-.011c.012-.012,0-.023-.006-.035a.081.081,0,0,1-.01-.015C.514,2.551.46,2.489.45,2.451A.052.052,0,0,1,.459,2.4l.008-.018A.242.242,0,0,1,.5,2.32.163.163,0,0,0,.343,2.2.214.214,0,0,1,.466,2.17a.191.191,0,0,1,.159.067H.731a.388.388,0,0,1,.14.115.3.3,0,0,1,.041.107.193.193,0,0,0,.033.084.221.221,0,0,0,.2.085,1.13,1.13,0,0,0,.492-.152.606.606,0,0,1,.231-.031c.084,0,.17.006.227.01l.064,0,0,0a.408.408,0,0,0,0-.151,1.406,1.406,0,0,1,0-.276l-.215.032a.209.209,0,0,1-.123-.116.586.586,0,0,0-.252-.1.1.1,0,0,0-.065.023.05.05,0,0,1-.03.013.03.03,0,0,0-.024.014A.125.125,0,0,0,1.45,2c-.069-.013-.11-.075-.123-.182,0-.008,0-.012,0-.014s-.007,0-.015,0c-.034,0-.041.035-.041.049-.051,0-.074-.05-.091-.1a.017.017,0,0,1-.008,0,.017.017,0,0,0-.008,0s-.006,0-.009.007A.325.325,0,0,1,.984,1.8a.28.28,0,0,1-.247-.135.267.267,0,0,1,.019-.276.209.209,0,0,0,.053.162A.173.173,0,0,0,.934,1.6c.068,0,.148-.046.152-.176,0-.016,0-.033-.024-.041a.151.151,0,0,1-.138-.078A.233.233,0,0,1,1,1.09.01.01,0,0,0,1,1.083.025.025,0,0,0,1,1.057l-.019,0c-.018,0-.033-.007-.039-.02a.032.032,0,0,0-.05,0,.223.223,0,0,1-.1.034.039.039,0,0,1-.029-.01.079.079,0,0,1-.049-.041A.046.046,0,0,0,.7,1.024a.043.043,0,0,1-.017.008c-.043.015-.042.06-.041.094v.014a.154.154,0,0,1-.092-.119A.119.119,0,0,1,.6.917a.345.345,0,0,1-.008-.1C.6.747.653.7.739.7A.449.449,0,0,1,.888.735C.9.735.911.735.914.73s0-.007,0-.012A.145.145,0,0,1,.905.7.142.142,0,0,0,.9.677C.888.661.888.661.863.661A.235.235,0,0,1,.687.6.163.163,0,0,1,.649.479.424.424,0,0,1,.682.363.137.137,0,0,0,.625.339.1.1,0,0,1,.583.322.182.182,0,0,1,.711.255.129.129,0,0,1,.83.4V.413A.051.051,0,0,1,.859.406.16.16,0,0,1,.894.411l.011,0c.09,0,.139.137.178.248L1.1.694A.014.014,0,0,0,1.1.7a.012.012,0,0,0,.008,0s.009,0,.012-.013A.183.183,0,0,1,1.125.649a.1.1,0,0,0,0-.021c0-.017,0-.017-.017-.033-.059-.05-.033-.117,0-.165,0-.018.034-.052.066-.076a.172.172,0,0,0-.1-.148A.1.1,0,0,1,1.116.2a.267.267,0,0,1,.21.155l.008.021a.622.622,0,0,1,.033.1.811.811,0,0,1-.032.237A.9.9,0,0,0,1.3.933c0,.17,0,.273.182.372a.865.865,0,0,0,.4.117l.074.007h.041l.108.05a1.244,1.244,0,0,1,.058-.338l-.033-.031a.508.508,0,0,1-.058-.059c.063-.011.1-.1.143-.194A1.333,1.333,0,0,1,2.3.677c-.039,0-.078-.043-.107-.115a.066.066,0,0,0,.018,0c.05,0,.1-.061.147-.121s.1-.122.148-.122A.422.422,0,0,1,2.539,0a.332.332,0,0,1,.207.075c.008-.066.083-.066.148-.066l.08,0,.077,0,.031,0a.738.738,0,0,1,.25.071.7.7,0,0,1,.256.181c.019.01.034.053.047.088S3.654.4,3.662.4L3.67.409C3.7.454,3.733.5,3.7.562a.593.593,0,0,1,.223.1A.347.347,0,0,1,3.736.9c.091.1-.018.286-.115.447-.028.046-.054.089-.075.13A5.425,5.425,0,0,1,4.6,1.393c.647,0,1.336.067,1.89.12.358.035.667.064.854.064.42,0,1.288-.062,1.288-.256,0-.016,0-.031,0-.044a.138.138,0,0,0-.022-.111c-.053-.056-.223-.076-.648-.076-.173,0-.431.027-.73.059a12.623,12.623,0,0,1-1.282.092,2.3,2.3,0,0,1-.8-.107A.439.439,0,0,1,4.818.718c0-.333.338-.4.846-.4.091,0,.186,0,.3,0L5.976.315A.72.72,0,0,1,6.048.273.986.986,0,0,1,6.574.164c.167,0,.353.017.517.032.18.017.351.033.5.033A.806.806,0,0,0,8.029.141C8,.291,7.459.38,6.947.38a1.816,1.816,0,0,0,.37.037A3.334,3.334,0,0,0,8.012.324,3.363,3.363,0,0,1,8.7.231a1.763,1.763,0,0,1,.609.108A.853.853,0,0,0,9.055.305a3.942,3.942,0,0,0-.966.2L7.982.53A4.846,4.846,0,0,1,6.711.754,2.014,2.014,0,0,1,6.138.677.348.348,0,0,1,5.924.529l-.031,0c-.148-.01-.288-.02-.408-.02-.208,0-.42.025-.42.212s.287.283.9.283C6.317,1,6.717.973,7.1.946,7.434.922,7.746.9,7.979.9c.9,0,.94.158.94.438,0,.343-1.093.414-1.56.445-.023.007-.036.015-.035.021s.019.012.035.012c.134.013.259.027.376.04a6.114,6.114,0,0,0,.636.052A1.433,1.433,0,0,0,8.541,1.9.28.28,0,0,1,8.6,1.893a.1.1,0,0,1,.077.028.082.082,0,0,1,.017.06.076.076,0,0,0,.014.061.068.068,0,0,0,.053.019.3.3,0,0,0,.181-.081.285.285,0,0,1-.123.223.109.109,0,0,0-.008.049.285.285,0,0,1-.015.075c-.011.038-.022.075-.006.1a.073.073,0,0,0,.061.02h.026a.127.127,0,0,1-.128.083H8.689a.038.038,0,0,0,0,.014.007.007,0,0,0,.006,0,.076.076,0,0,1,.053.037.143.143,0,0,1,0,.11.218.218,0,0,1-.166.163c-.051.018-.095.034-.106.093-.009.03.009.049.029.072.037.041.083.092,0,.234a.153.153,0,0,0-.032.036.616.616,0,0,1-.052.063c0,.024.035.049.061.066l.022.016a.319.319,0,0,1-.119.027.106.106,0,0,1-.121-.093.12.12,0,0,0-.066-.016.062.062,0,0,1-.036-.04.352.352,0,0,1,.068-.233s0,0,0-.005H8.239a.018.018,0,0,0-.013.006.244.244,0,0,0-.107.13c-.029.057-.056.111-.108.111H7.946c-.074.082-.074.115-.066.157a.067.067,0,0,1-.056-.03.185.185,0,0,1-.01-.16.178.178,0,0,0-.075-.033A.06.06,0,0,1,7.7,3.2c0-.066.128-.152.205-.2l0,0c.009,0,.013-.01.012-.015s-.009-.009-.018-.009a.025.025,0,0,0-.018.007.185.185,0,0,1-.123.052.118.118,0,0,1-.093-.04.132.132,0,0,1-.024-.111.292.292,0,0,0,.008-.049.287.287,0,0,0-.2.1.359.359,0,0,1,.264-.24.309.309,0,0,1,.133-.049c.031,0,.065.011.1.018a.777.777,0,0,0,.149.022.112.112,0,0,0,.1-.04.238.238,0,0,0,.04-.116A.554.554,0,0,1,8.31,2.32a.1.1,0,0,0,0-.093A.062.062,0,0,0,8.26,2.2a.7.7,0,0,0-.2-.031.605.605,0,0,0-.3.08,1.5,1.5,0,0,1-.818.174,1.168,1.168,0,0,1-.553-.14.29.29,0,0,1,.04.193c0,.049-.005.089.034.112a.344.344,0,0,1,.152.22.345.345,0,0,1,0,.219c-.022.035-.1.054-.2.054A1.051,1.051,0,0,1,6.2,3.063a.11.11,0,0,0-.043-.008.266.266,0,0,0-.046.005l-.018,0c-.079.016-.08.06-.082.111a.152.152,0,0,1-.108.162.222.222,0,0,1-.064.01.158.158,0,0,1-.151-.109.036.036,0,0,0-.032-.023.054.054,0,0,0-.025.007H5.552c-.008,0-.032,0-.032.016,0,.063-.008.1-.024.115s-.02.013-.038.018a.209.209,0,0,0-.045.015c.018.068.124.074.157.074a.228.228,0,0,1-.134.048A.172.172,0,0,1,5.3,3.448a.121.121,0,0,1-.031-.1c-.017,0-.025-.095-.025-.1a.063.063,0,0,1,.008-.032.065.065,0,0,0,.008-.033A.055.055,0,0,0,5.23,3.17c-.007,0-.015,0-.015.017s-.018.04-.025.04-.006,0-.008-.006H5.107c-.009.049.05.1.074.115a.219.219,0,0,1-.072.013A.144.144,0,0,1,5,3.3a.132.132,0,0,1-.034-.1.547.547,0,0,1-.058-.091.173.173,0,0,1,.018-.145A.215.215,0,0,1,5.1,2.919c.055,0,.1,0,.1-.038s-.017-.049-.033-.049a.077.077,0,0,0-.044.015.1.1,0,0,1-.055.018.132.132,0,0,1-.105-.034.056.056,0,0,1-.01-.049.187.187,0,0,1,.008-.058.366.366,0,0,0-.19.091.167.167,0,0,1,.043-.136A.262.262,0,0,1,5,2.574h.019a.241.241,0,0,1,.052-.048A.212.212,0,0,0,5.09,2.51a.2.2,0,0,1,.062-.01c.095,0,.155.079.213.168l.01.015c.052.078.1.152.173.152A.168.168,0,0,0,5.643,2.8a.779.779,0,0,1,.248-.042A.042.042,0,0,1,5.9,2.746s.006-.006.006-.009,0-.007-.007-.012a.828.828,0,0,0-.3-.132A.148.148,0,0,1,5.5,2.5a.573.573,0,0,1,.023-.439.553.553,0,0,1-.282.126l-.023,0a2.479,2.479,0,0,0-.4-.038.531.531,0,0,0-.53.247l-.01.015a.434.434,0,0,1-.437.233l-.073,0H3.757c-.027,0-.044.021-.064.049-.007.01-.015.02-.025.031a.24.24,0,0,1-.2.079H3.439c.074-.033.066-.058.051-.107a.14.14,0,0,1-.075.074c-.057.15-.265.445-.488.445a.258.258,0,0,1-.139-.041A.232.232,0,0,0,2.9,3.046c0-.014,0-.023,0-.026h0c-.005,0-.011,0-.02.011a.879.879,0,0,1-.252.1c-.175.049-.326.091-.343.346A.239.239,0,0,1,2.209,3.3c0-.037-.008-.065-.025-.065s-.066.067-.066.1A.22.22,0,0,1,2.1,3.154h0a.019.019,0,0,0,0-.012.017.017,0,0,0-.012,0,.606.606,0,0,1-.192.033.4.4,0,0,1-.121-.017H1.763c-.007-.007-.013-.015-.021-.024a.618.618,0,0,0-.045-.05.364.364,0,0,1-.248.273c.132-.142.077-.245.058-.273a.421.421,0,0,1-.107.108.132.132,0,0,0-.074-.157.021.021,0,0,0-.014-.008.006.006,0,0,0-.006,0h0l0,0a.172.172,0,0,1-.034.129.239.239,0,0,1-.173.092.193.193,0,0,1-.19-.19.026.026,0,0,0-.006-.017.018.018,0,0,0-.014-.007.02.02,0,0,0-.014.006.131.131,0,0,0-.049.1.175.175,0,0,1-.1.154A.119.119,0,0,1,.7,3.3a.205.205,0,0,0-.055-.01.254.254,0,0,0,.081.221ZM2.8.765a.063.063,0,0,1,.045.019c.009,0,.013.01.013.017s-.028.04-.079.066l.009.005c.053.031.113.065.09.144-.016.038-.054.057-.116.057-.034,0-.06.038-.091.1-.029.12-.01.193.059.223a.148.148,0,0,0,.067.016A.167.167,0,0,0,2.944,1.3c0-.014.007-.028.013-.045.013-.046.023-.079,0-.1-.043-.053-.057-.086-.025-.14A.06.06,0,0,1,2.986.983.167.167,0,0,1,3.04,1l.006,0a.326.326,0,0,0,.047.017c-.02-.055-.024-.083-.015-.1A.017.017,0,0,1,3.092.914l.017,0c.027,0,.038.029.05.057s.018.042.032.042S3.212.95,3.209.931a.128.128,0,0,0,0-.014c0-.049-.023-.065-.059-.083L2.869.7A.1.1,0,0,0,2.818.683.055.055,0,0,0,2.779.7L2.765.71c-.024.014-.051.03-.044.058a.015.015,0,0,0,.015.01l.014,0,.009,0,.005,0A.1.1,0,0,1,2.8.765Z" transform="translate(73.984 59.518)" fill="#f3f2f1"/>
  <path id="Fill_77" data-name="Fill 77" d="M3.742,3.962A.179.179,0,0,1,3.6,3.9a.1.1,0,0,1-.022-.088c-.025,0-.041-.066-.041-.083a.054.054,0,0,1,.019-.034c.007-.008.014-.015.014-.023s-.007-.013-.015-.017a.039.039,0,0,1-.018-.016c-.008,0-.008.016-.008.017-.009.049-.024.049-.041.049H3.423c-.009.045.05.079.076.092a.267.267,0,0,1-.083.015.132.132,0,0,1-.1-.04.128.128,0,0,1-.031-.1l-.012-.021a.223.223,0,0,1-.03-.061.151.151,0,0,1,.012-.131c.033-.042.1-.042.161-.042s.1,0,.1-.033S3.5,3.33,3.481,3.33a.08.08,0,0,0-.044.015.11.11,0,0,1-.063.019c-.089,0-.1-.047-.1-.083V3.214a.316.316,0,0,0-.165.1.157.157,0,0,1,.033-.139.224.224,0,0,1,.169-.093h.02a.345.345,0,0,1,.036-.028.353.353,0,0,0,.038-.03.184.184,0,0,1,.063-.012c.086,0,.139.072.2.16l.007.011c.05.077.1.149.169.149A.168.168,0,0,0,3.935,3.3a.59.59,0,0,1,.231-.05l.007-.006c.007-.006.01-.009.011-.013s0-.007-.009-.014a.726.726,0,0,1-.289-.42.753.753,0,0,1,.107-.437.89.89,0,0,0-.393.132.892.892,0,0,1-.391.132H3.126a1.34,1.34,0,0,1-.189.573.2.2,0,0,0-.033.071c0,.141-.268.256-.355.256a.265.265,0,0,0,.1-.125l0-.006s0-.005,0-.006-.011,0-.028,0a.649.649,0,0,1-.231.087c-.13.029-.223.05-.24.292a.279.279,0,0,1-.066-.177c0-.036-.007-.063-.024-.063s-.058.066-.058.082A.154.154,0,0,1,2,3.454a.036.036,0,0,0-.006-.022h0s-.005,0-.007.006a.956.956,0,0,1-.189.025.189.189,0,0,1-.108-.025c-.009.017-.009.017-.017.017a.087.087,0,0,0-.049-.075.351.351,0,0,1-.24.239.184.184,0,0,0,.058-.239.212.212,0,0,1-.107.091c.03-.081-.05-.141-.075-.158-.008,0-.008,0-.008.017a.209.209,0,0,1-.2.206H1.023c-.11,0-.142-.1-.159-.152,0-.009-.005-.017-.008-.022s0-.033,0-.038l0,0a.031.031,0,0,0-.015.007.151.151,0,0,0-.047.109c-.01.059-.02.119-.085.148a.421.421,0,0,1-.082-.033A.253.253,0,0,0,.7,3.776H.682a.227.227,0,0,1-.158-.086.181.181,0,0,1-.039-.156A.052.052,0,0,1,.493,3.5a.291.291,0,0,1-.04-.023.048.048,0,0,0-.018-.01A.1.1,0,0,1,.384,3.4c-.006-.044.034-.09.076-.139a.528.528,0,0,0,.074-.1c0-.01.006-.017,0-.021a.008.008,0,0,0-.007,0,.052.052,0,0,0-.021.007A.417.417,0,0,1,.3,3.243c-.065,0-.1-.048-.109-.143l0-.006c-.008-.018-.022-.047-.031-.07a.19.19,0,0,0-.132.108.132.132,0,0,1,0-.141A.226.226,0,0,1,.2,2.875H.245a.147.147,0,0,0,.074-.033.14.14,0,0,1,.064-.02c.036,0,.057.025.084.057a.337.337,0,0,0,.084.078.1.1,0,0,0,.074.033.185.185,0,0,0,.067-.016c.009,0,.011,0,.011-.007a.034.034,0,0,0-.028-.026C.5,2.882.449,2.824.436,2.787a.066.066,0,0,1,.007-.06.1.1,0,0,1,.011-.035.556.556,0,0,0,.022-.056.232.232,0,0,0-.139-.1l-.009,0a.255.255,0,0,1,.109-.022.206.206,0,0,1,.155.055h.1a.239.239,0,0,1,.124.116.36.36,0,0,1,.045.1A.339.339,0,0,0,.9,2.876a.259.259,0,0,0,.2.072.577.577,0,0,0,.075-.005l0,.009,0,.007.013-.017a1.088,1.088,0,0,0,.38-.132.513.513,0,0,1,.232-.034c.1,0,.211.009.276.014l.061,0c.008-.009-.007-.038-.033-.085A1.667,1.667,0,0,1,2,2.521H1.97a.39.39,0,0,1-.37-.308.645.645,0,0,1-.317-.476c-.01-.048-.016-.076-.03-.076a.027.027,0,0,0-.022.012.082.082,0,0,0,0,.071c-.073,0-.108-.052-.108-.157,0-.016-.008-.016-.024-.016a.051.051,0,0,0-.046.023.027.027,0,0,0,0,.025c-.044,0-.061-.037-.077-.07L.963,1.538a.017.017,0,0,0,0-.012s-.011,0-.021,0a.31.31,0,0,1-.16.045.263.263,0,0,1-.233-.128.243.243,0,0,1,.03-.255.2.2,0,0,0,.049.152.165.165,0,0,0,.12.053.148.148,0,0,0,.145-.157C.889,1.2.883,1.2.865,1.19L.856,1.184a.166.166,0,0,1-.14-.1A.189.189,0,0,1,.79.911C.8.9.8.9.79.878A.088.088,0,0,0,.732.845C.724.837.718.833.713.833S.7.837.7.845L.677.855A.286.286,0,0,1,.6.885.012.012,0,0,1,.584.878L.534.829A.038.038,0,0,1,.5.845C.45.86.451.913.452.959V.977A.2.2,0,0,1,.364.83a.129.129,0,0,1,.054-.1A.315.315,0,0,1,.411.647.127.127,0,0,1,.553.538.389.389,0,0,1,.7.573c.01,0,.017,0,.017-.017A.11.11,0,0,1,.7.507C.7.49.683.49.666.49A.239.239,0,0,1,.489.433.115.115,0,0,1,.46.342.21.21,0,0,1,.472.3.58.58,0,0,0,.493.218C.483.2.456.19.432.183A.129.129,0,0,1,.394.168.2.2,0,0,1,.521.112a.12.12,0,0,1,.12.122V.267H.708c.1.02.163.2.182.256C.894.533.9.542.9.542s0-.006,0-.019A.184.184,0,0,0,.922.457c0-.016,0-.016-.015-.033a.092.092,0,0,1,0-.14A.567.567,0,0,1,.972.2.2.2,0,0,0,.9.068L.881.053l.011,0H.906A.224.224,0,0,1,1.1.2a.6.6,0,0,1,.032.14.816.816,0,0,1-.024.21.99.99,0,0,0-.026.194c0,.181,0,.257.165.356a1.924,1.924,0,0,1,.435.473c.074.1.143.189.2.253A2.209,2.209,0,0,1,1.937,1.1,1.066,1.066,0,0,1,1.822,1C1.9.99,1.946.888,2,.771c.018-.041.036-.083.057-.124h0c-.028,0-.063-.01-.1-.107a.061.061,0,0,0,.019,0c.048,0,.1-.06.144-.118s.089-.109.134-.117A.384.384,0,0,1,2.284,0a.567.567,0,0,1,.19.083A.074.074,0,0,1,2.558.027a.18.18,0,0,1,.055.009A.205.205,0,0,0,2.651.025.39.39,0,0,1,2.753,0a.042.042,0,0,1,.018,0,.446.446,0,0,0,.05.012.667.667,0,0,1,.206.071.762.762,0,0,1,.248.165.392.392,0,0,1,.038.093c.009.026.015.047.019.047.041.041.084.095.058.148h0a.358.358,0,0,1,.2.106.3.3,0,0,1-.183.215c.083.1-.026.289-.13.471a2.061,2.061,0,0,0-.108.2v.017a4.213,4.213,0,0,1,1.049-.128,7.227,7.227,0,0,1,1.191.119,4.376,4.376,0,0,0,.642.075c.8,0,1.354-.2,1.354-.388,0-.048-.1-.069-.321-.069-.156,0-.363.011-.582.022l-.077,0c-.258.013-.531.026-.793.026a3.272,3.272,0,0,1-.827-.079c-.239-.066-.356-.172-.356-.326,0-.269.332-.459.661-.527A.279.279,0,0,1,5.206.2.929.929,0,0,1,5.719.089a5.336,5.336,0,0,1,.549.04l.019,0A5.061,5.061,0,0,0,6.8.169.737.737,0,0,0,7.2.086C7.17.223,6.6.325,6.115.325a1.768,1.768,0,0,0,.368.038A3.418,3.418,0,0,0,7.176.27h.007A3.377,3.377,0,0,1,7.871.176a1.736,1.736,0,0,1,.6.108A.875.875,0,0,0,8.218.25a4.061,4.061,0,0,0-.976.192L7.136.471A4.94,4.94,0,0,1,5.861.693,2.025,2.025,0,0,1,5.307.622c-.125-.049-.191-.1-.215-.165-.278.1-.413.21-.413.339S4.87.984,5.3.984c.21,0,.452-.013.707-.027h.015c.241-.013.513-.027.758-.027.614,0,.893.094.9.3a.28.28,0,0,1-.086.213,2.321,2.321,0,0,1-1.524.381H5.785c.005.127.11.186.231.255a.77.77,0,0,1,.256.2.126.126,0,0,1,.035.118c-.015.063-.081.118-.184.155-.044.014-.051.036-.048.052.009.056.133.122.205.122H6.3a.228.228,0,0,1-.174.1.14.14,0,0,1-.04-.006.033.033,0,0,0-.033.017A.308.308,0,0,1,6,2.909c-.028.03-.055.058-.052.09a.1.1,0,0,0,.047.067.107.107,0,0,1-.057.02c-.033,0-.056-.024-.08-.05l-.012-.013c-.008,0-.008,0-.008.017a.144.144,0,0,1-.025.14.176.176,0,0,1-.12.056A.211.211,0,0,1,5.6,3.211l-.009,0a.163.163,0,0,0-.065-.022.05.05,0,0,0-.035.014.111.111,0,0,0-.022.093.175.175,0,0,1-.119.2l-.024,0A.561.561,0,0,1,5.24,3.5a.206.206,0,0,0,.016.132.167.167,0,0,1-.116-.092.146.146,0,0,1,0-.122l-.033-.058a.088.088,0,0,1,0-.075.263.263,0,0,1,.159-.123c0-.009,0-.014,0-.016H5.256a.1.1,0,0,0-.042-.009.216.216,0,0,0-.1.037l-.01.006a.175.175,0,0,1-.075.032A.041.041,0,0,1,4.993,3.2a.27.27,0,0,0-.05-.05c-.083.034-.1.051-.115.1A.108.108,0,0,1,4.8,3.158a.161.161,0,0,1,.066-.117c-.008-.033-.016-.083-.016-.083a.064.064,0,0,1,0-.062.138.138,0,0,1,.116-.039.408.408,0,0,1,.123.019.02.02,0,0,0,.019-.008.027.027,0,0,0,0-.026s-.005,0-.007-.008,0-.009-.008-.009a.07.07,0,0,1-.041-.082.116.116,0,0,1,.016-.049.592.592,0,0,0-.06,0,.416.416,0,0,0-.138.019.208.208,0,0,1,.2-.12A.219.219,0,0,1,5.14,2.6a.089.089,0,0,1,.124,0c.066.015.118.087.164.15l.018.025.016-.017a.209.209,0,0,0,.1-.066A.818.818,0,0,1,5.71,2.57a.071.071,0,0,0,.038-.046.092.092,0,0,0-.021-.07,1.054,1.054,0,0,0-.463-.223c-.036.058-.155.088-.342.088a2.916,2.916,0,0,1-.607-.072.7.7,0,0,1,.274.694c0,.092-.006.158.023.173a.4.4,0,0,1,.14.421.1.1,0,0,1-.091.038.912.912,0,0,1-.2-.036l-.007,0H4.348c-.065.016-.068.062-.07.112s-.006.118-.1.145a.2.2,0,0,1-.062.01.165.165,0,0,1-.145-.085.037.037,0,0,0-.033-.023A.061.061,0,0,0,3.91,3.7H3.844c-.008,0-.024,0-.024.025s-.009.083-.032.083c0,.015-.04.033-.076.033.013.049.067.062.111.072a.287.287,0,0,1,.038.01A.214.214,0,0,1,3.742,3.962ZM2.534.75a.069.069,0,0,1,.04.013c.009.013.012.022.009.029s-.028.025-.075.037a.426.426,0,0,0,.035.027c.042.032.075.057.056.122a.1.1,0,0,1-.107.058c-.021,0-.044.038-.065.071l0,.005-.006.009-.009.014a.165.165,0,0,0-.018.122.154.154,0,0,0,.076.1.11.11,0,0,0,.052.014c.062,0,.115-.063.138-.121a.17.17,0,0,0,.024-.133c-.05-.05-.057-.083-.024-.131a.049.049,0,0,1,.05-.032.265.265,0,0,1,.07.014l.035.01C2.79.931,2.785.906,2.794.892s.017-.014.035-.014.025.032.032.052.018.047.034.047A.016.016,0,0,0,2.908.972c.01-.011.008-.04.006-.064V.9c0-.011,0-.018,0-.023,0-.032-.015-.049-.059-.067L2.6.68A.15.15,0,0,0,2.539.66a.033.033,0,0,0-.031.02L2.5.686,2.5.691c-.02.018-.051.044-.036.072l0,0a.079.079,0,0,0,.022,0l.007,0A.125.125,0,0,1,2.534.75Z" transform="translate(73.762 63.733)" fill="#f3f2f1"/>
  <path id="Fill_79" data-name="Fill 79" d="M1.445.726a.723.723,0,1,0-.726.71.722.722,0,0,0,.726-.71" transform="translate(16.834 11.53)" fill="#f3f2f1"/>
  <path id="Fill_81" data-name="Fill 81" d="M1.445.726A.732.732,0,0,0,.719,0,.731.731,0,0,0,0,.726a.723.723,0,1,0,1.445,0" transform="translate(16.584 9.595)" fill="#f3f2f1"/>
  <path id="Fill_83" data-name="Fill 83" d="M.718,1.436A.718.718,0,1,0,0,.726a.717.717,0,0,0,.718.71" transform="translate(17.723 8.031)" fill="#f3f2f1"/>
  <path id="Fill_85" data-name="Fill 85" d="M.718,1.453A.727.727,0,1,0,.718,0,.721.721,0,0,0,0,.727a.72.72,0,0,0,.718.726" transform="translate(19.641 7.901)" fill="#f3f2f1"/>
  <path id="Fill_87" data-name="Fill 87" d="M.2,1.236a.728.728,0,0,0,1.024-.017A.718.718,0,0,0,1.228.2.745.745,0,0,0,.2.2a.755.755,0,0,0,0,1.032" transform="translate(33.71 6.78)" fill="#f3f2f1"/>
  <path id="Fill_89" data-name="Fill 89" d="M1.234,1.232a.733.733,0,0,0,0-1.015A.713.713,0,0,0,.21.217a.718.718,0,0,0,0,1.015.713.713,0,0,0,1.024,0" transform="translate(32.304 5.236)" fill="#f3f2f1"/>
  <path id="Fill_91" data-name="Fill 91" d="M1.234,1.236A.737.737,0,0,0,1.234.2.745.745,0,0,0,.21.2a.739.739,0,0,0,0,1.032.745.745,0,0,0,1.024,0" transform="translate(30.024 4.926)" fill="#f3f2f1"/>
  <path id="Fill_93" data-name="Fill 93" d="M1.234,1.232a.716.716,0,0,0,0-1.015A.713.713,0,0,0,.21.217a.739.739,0,0,0,0,1.032.728.728,0,0,0,1.024-.017" transform="translate(28.079 6.139)" fill="#f3f2f1"/>
  <path id="Fill_95" data-name="Fill 95" d="M0,1.659.57,2.93l.743-.883a.164.164,0,0,0,.082.033,12.635,12.635,0,0,1,.091,1.577A.917.917,0,1,0,2.84,2.839a7.554,7.554,0,0,1-1.016-.957.332.332,0,0,0,.042-.107l1.23.107L2.6.578l-.908.792c-.016-.016-.024-.016-.057-.033L1.568,0,.314.479l.842.99a.185.185,0,0,0-.05.107Z" transform="translate(20.254 4.712)" fill="#f3f2f1"/>
  <path id="Fill_97" data-name="Fill 97" d="M10.823.627a1.892,1.892,0,0,1,.4,1,2.136,2.136,0,0,1-.752-.694l.157,1.676a1.454,1.454,0,0,1,.595-.594c-.058,1.1-.5,1.544-.876,1.626a.729.729,0,0,1-.858-.561c-.091-.487.33-.793.768-.355.066-1.016-.735-1-1.1-.562A1.488,1.488,0,0,0,8.553,0a1.561,1.561,0,0,0,.38,2.2c-.677-.339-1.28.231-.686.99.132-.652.694-.52.826.017.115.429-.314,1.015-1.032,1.222-1.04.3-1.37-.355-1.618-.9.215-.165.759-.116,1.346.272l-.5-1.643a1.7,1.7,0,0,1-.991,1,5.174,5.174,0,0,1,.314-1.453l-1.981.818a4.959,4.959,0,0,1,1.23.809A1.622,1.622,0,0,1,4.442,3.3l.784,1.535c.165-.677.512-1.1.768-1.147.206.578.437,1.287-.52,1.791a1.229,1.229,0,0,1-1.6-.165C3.6,4.87,3.9,4.35,4.45,4.738c-.091-.949-.925-.949-1.164-.239.008-.966-.239-1.552-1.263-1.841A1.458,1.458,0,0,0,3.08,4.622c-.562-.041-1.156.5-.388,1.181,0-.627.5-.693.792-.289a.7.7,0,0,1-.231,1c-.322.206-.941.19-1.758-.553a1.694,1.694,0,0,1,.858.016l-1.065-1.3a1.867,1.867,0,0,1-.066,1.015,1.87,1.87,0,0,1-.4-1L0,5.415A9.763,9.763,0,0,1,2.741,8.106,33.606,33.606,0,0,1,7.149,5.919,34.643,34.643,0,0,1,11.83,4.4,9.224,9.224,0,0,1,11.921.577Z" transform="translate(17.791 8.001)" fill="#f3f2f1"/>
  <path id="Fill_99" data-name="Fill 99" d="M11.462,73.355h0a1.349,1.349,0,0,1-1.368-.79,2.226,2.226,0,0,1,.259-2.007c.33-.313.544-.535.526-.772-.013-.161-.132-.314-.377-.482a1.017,1.017,0,0,0-.578-.175,1.484,1.484,0,0,0-1.379,1.256,3.57,3.57,0,0,1-.322-3.428,5.423,5.423,0,0,0,.223-3.35A5.093,5.093,0,0,1,6.4,66.7a3.868,3.868,0,0,0-.176-1.864,7.766,7.766,0,0,1-.279-1.727,5.577,5.577,0,0,1,1.218-3.5,2.137,2.137,0,0,0,.524-1.079,1.751,1.751,0,0,0-.139-.574c-.146-.407-.3-.827.172-1.234a.409.409,0,0,1,.275-.091,2.128,2.128,0,0,1,.71.2,2.09,2.09,0,0,0,.691.2c2.306,0,3.842-3.027,4.168-6.017.4-3.669,1.821-6.241,3.325-8.964l.151-.273c.075-.521.152-.951.239-1.354-.534.674-1.041,1.462-1.578,2.3a17.758,17.758,0,0,1-3.474,4.348,2.682,2.682,0,0,1-.807,2.011A5.784,5.784,0,0,1,7.365,50.9a3.626,3.626,0,0,1-2.3-.754c.049,0,.1.005.171.005a3.1,3.1,0,0,0,2.892-1.714,3.815,3.815,0,0,1-1.139-.23,2.687,2.687,0,0,1-1.315.326,3.272,3.272,0,0,1-2.286-.927,1.99,1.99,0,0,1-.6-1.463,1.933,1.933,0,0,0,1.473.77,1.907,1.907,0,0,0,.78-.176,4.873,4.873,0,0,1-.923-2.963c0-3.729,3.017-6.814,5.935-9.8,2.615-2.674,5.085-5.2,5.085-7.936a2.455,2.455,0,0,0-2.394-2.773,3.9,3.9,0,0,0-2.212.693,2.448,2.448,0,0,1,.891,1.816A4.989,4.989,0,0,1,9.38,29.864a18.487,18.487,0,0,1-4.347,2.293c-2.365,1-4.6,1.939-5.006,3.819a4.143,4.143,0,0,1,.882-3.215,8.769,8.769,0,0,1,2.426-1.766c1.515-.861,3.082-1.751,3.345-3.859-1.167,1.68-2.952,2.9-4.243,2.9a1.658,1.658,0,0,1-.818-.2H1.66c1.623,0,2.219-1.6,2.851-3.3.674-1.811,1.37-3.683,3.39-3.683a3.837,3.837,0,0,1,1.312.272,5.759,5.759,0,0,1,3.4-1.4,4.307,4.307,0,0,1,2.621.981,4.078,4.078,0,0,1,1.45,3.278c0,3.5-2.889,6.39-5.683,9.189s-5.42,5.429-5.42,8.61c0,2.011,1.117,3.211,2.988,3.211,2.677,0,4.715-3.362,7.074-7.254,1.081-1.784,2.2-3.629,3.5-5.384,1.594-2.333,2.9-6.131,4.057-9.482a54.416,54.416,0,0,1,2.093-5.5,7.414,7.414,0,0,0-1.951,2.739c-.734,1.431-1.427,2.782-2.845,2.924.742-.626.767-1.95.8-3.485A12.011,12.011,0,0,1,21.712,18a4.438,4.438,0,0,0,.215-2.724,7.381,7.381,0,0,0-1.156,3.383c-.366,1.9-.745,3.868-2.154,4.26.569-.7.363-1.683.146-2.727a8.8,8.8,0,0,1-.245-1.756,7,7,0,0,1,.873-3.415,7.053,7.053,0,0,0,.86-2.991c-.575.219-.85,1-1.141,1.824-.44,1.248-.938,2.662-2.588,2.662l-.119,0a3.786,3.786,0,0,0,1.033-3.034A4.362,4.362,0,0,1,18.69,10a3.386,3.386,0,0,1-2.327-2.815A5.31,5.31,0,0,1,19.3,6.134c-.452-.7.178-1.38.777-1.89.032.042.068.093.106.147.157.226.352.507.577.507a.3.3,0,0,0,.175-.06,24.9,24.9,0,0,1,4.309-2.32,39.166,39.166,0,0,1,4.665-1.4c.363-.07.3-.481.235-.843-.011-.067-.021-.13-.029-.189.174-.014.322-.02.454-.02.894,0,1.361.3,1.428.912A4.842,4.842,0,0,1,34.731,0,4.7,4.7,0,0,1,34.9,3.872a4.045,4.045,0,0,1,1.591.563,3.142,3.142,0,0,0,1.465.491,1.851,1.851,0,0,0,.444-.055,2.205,2.205,0,0,1-1.909,1.012,6.793,6.793,0,0,1-1.17-.14c-.237-.042-.48-.086-.718-.113A8.519,8.519,0,0,1,38.8,8.864c.777.958,1.447,1.786,2.394,1.893A2.207,2.207,0,0,1,39.8,11.3a4.06,4.06,0,0,1-2.135-.926l-.01-.007a4.036,4.036,0,0,0-2.1-.919h-.03A12.374,12.374,0,0,1,40.6,13.847c.515.733.856,1.217,1.408,1.236a1.754,1.754,0,0,1-1.19.514,3.908,3.908,0,0,1-1.753-.645,7.625,7.625,0,0,0-1.853-.795c4.052,2.694,4.268,4.829,3.946,6.563a3.346,3.346,0,0,1,.8,2.635c0,.155.008.315.014.477a6.2,6.2,0,0,1,1.886-.672c.247-.06.479-.117.682-.178-.263.262-.522.545-.773.819l-.028.031A23.343,23.343,0,0,0,39.146,31.2c-.907-.908-1.872-1.815-2.245-2.163a1.981,1.981,0,0,0-1.4-.587,3.11,3.11,0,0,0-.4.03L35,28.5c.537.6,1.6,1.755,2.72,2.975,1.6,1.742,3.419,3.716,4.157,4.571A4.766,4.766,0,0,1,43.1,39.07c.021.2.043.408.075.613a3.283,3.283,0,0,0,.751,1.429c.372.493.693.918.545,1.328a1.135,1.135,0,0,0,.171,1.171,1.3,1.3,0,0,1,.267.72c0,.784-.556,1.31-1.7,1.608a1.7,1.7,0,0,0,.149-1.518,1.491,1.491,0,0,0-1.156-.709,2.546,2.546,0,0,1-.52,1.995,1.812,1.812,0,0,1-1.339.578,1.489,1.489,0,0,1-.652-.138.957.957,0,0,0,.645-.52,2.333,2.333,0,0,0,.024-1.882,2.356,2.356,0,0,1-2.015,1.485A1.861,1.861,0,0,1,36.695,44a1.206,1.206,0,0,0,.694.243.921.921,0,0,0,.924-.787c0-.211-.183-.379-.377-.557a1.2,1.2,0,0,1-.514-.862,1.3,1.3,0,0,1,.946-1.31c.451-.219.878-.426.878-1.159,0-.626-.362-.85-.7-.85s-.971.152-1.13,1.172c-.536-.463-.452-1.271-.363-2.126a4.388,4.388,0,0,0-.042-1.754,1.936,1.936,0,0,1-1.091,2.037,2.055,2.055,0,0,0-.667.556c-.332-.332-.328-.83-.324-1.46a5.2,5.2,0,0,0-.311-2.131,2.907,2.907,0,0,1-.682,1.687,1.7,1.7,0,0,0-.432.872,6.063,6.063,0,0,0-2.575-.513,4.974,4.974,0,0,0-3.534,1.14c.73.571,1.493,1.078,2.232,1.569,2.409,1.6,4.489,2.982,4.489,5.82,0,1.573-1.365,2.62-2.569,3.543-1,.763-1.856,1.423-1.856,2.244,0,.856,1.024,2.317,2.608,3.72,1.276,1.131,3.092,2.339,4.359,2.339a1.493,1.493,0,0,0,.972-.507,1.428,1.428,0,0,1,.8-.459c.17-.009.337-.013.511-.013.449,0,.861.03,1.238.062A1.1,1.1,0,0,1,41.194,57.6a2.032,2.032,0,0,1,1.539,1.3,1.683,1.683,0,0,1-.475,1.824,1.612,1.612,0,0,0-1.439-1.339,1.873,1.873,0,0,0-.889.258,2.043,2.043,0,0,1,.054,1.712,2.366,2.366,0,0,1-1.564,1.194,1.709,1.709,0,0,0,.264-1.556.658.658,0,0,0-.628-.318c-.4,0-.485.109-.587.235-.142.176-.3.376-1.319.376h-.638c-1,0-1.036-.054-1.5-.715l-.145-.2c-.627-.877-1.088-1.285-1.451-1.285a.462.462,0,0,0-.166.031.66.66,0,0,0-.35.579.971.971,0,0,0,.449.964c-2.228,0-2.569-1.368-2.9-2.691-.223-.893-.433-1.737-1.212-2.113a9.258,9.258,0,0,1-.025,2.708,7.12,7.12,0,0,1-2.485-3.5,5.755,5.755,0,0,1-.141-.74c-.091-.627-.17-1.169-.832-1.5a.862.862,0,0,1-.528-.949c.049-.26.163-.3.438-.386a4.547,4.547,0,0,0,.527-.2A3.074,3.074,0,0,0,27,48.194a5.267,5.267,0,0,0-2.8-4.978c.168,2.935.193,5.78-1.313,8.305a15.471,15.471,0,0,1-6.752,5.8c-.255.11-.521.214-.8.325-1.628.64-3.473,1.365-3.473,3.35,0,4.5,2.012,6.934,3.9,6.934a1.318,1.318,0,0,0,1.091-.613,1.907,1.907,0,0,1,1.674-.807c.793,0,1.683.3,1.85.884a2.266,2.266,0,0,1,.347-.027c.856,0,1.741.507,1.741,1.356a1.449,1.449,0,0,1-1.188,1.642.9.9,0,0,0,.035-.908,1.159,1.159,0,0,0-.969-.448.845.845,0,0,0-.42.092c-.258.173-.169.391-.045.693a1.989,1.989,0,0,1,.193.777c0,.67-.183,1.4-1.544,1.775a.842.842,0,0,0,.114-.812.657.657,0,0,0-.618-.269c-.383,0-.647.3-.926.608a1.587,1.587,0,0,1-1.162.712,5.626,5.626,0,0,1-1.672-.265,4.274,4.274,0,0,0-1.215-.211,3.634,3.634,0,0,0-.738.08c-.723.158-.884.465-.915.634a.521.521,0,0,0,.255.523C11.588,73.352,11.523,73.355,11.462,73.355ZM27.579,11.283a.8.8,0,0,1,.787.489,1.268,1.268,0,0,1-.405,1.676c-.3.282-.123.893.158,1.725a2.165,2.165,0,0,0,1.858,1.507,1.728,1.728,0,0,0,.692-.154,1.79,1.79,0,0,0,1.045-1.03,2.141,2.141,0,0,0-.129-1.627c-.389-.818-.675-1.354-1.073-1.354-.736,0-1.209-.15-1.454-.916-.232-.732.358-1.062,1.042-1.445.116-.065.24-.134.362-.207-.591-.179-.937-.4-.975-.618-.021-.117.046-.234.2-.347a.6.6,0,0,1,.391-.131,1.645,1.645,0,0,1,.523.116l.055.019a1.28,1.28,0,0,0,.373.1.182.182,0,0,0,.177-.1c.141-.276-.193-.536-.461-.745l-.007-.005c-.072-.056-.145-.114-.2-.166a.668.668,0,0,0-.5-.225A2.02,2.02,0,0,0,29.39,8L25.625,9.436c-.519.2-.784.389-.792.842a2.641,2.641,0,0,1-.024.285l0,.016c-.041.341-.086.728.2.822a.181.181,0,0,0,.06.011c.135,0,.223-.179.325-.386.141-.287.316-.645.7-.69a.733.733,0,0,1,.1-.006.313.313,0,0,1,.293.135c.113.193.015.59-.277,1.118.1-.026.213-.056.3-.08l.083-.023.01,0A3.95,3.95,0,0,1,27.579,11.283ZM25.006,6.208h0l-.092.035a29.755,29.755,0,0,1-4.168,1.385,3.811,3.811,0,0,1,1.7.872,1.387,1.387,0,0,0,.943.439c.039,0,.078,0,.119-.005a1.531,1.531,0,0,0,1.13-.643,2.671,2.671,0,0,0,.364-2.083Zm7.009-3.029a24.778,24.778,0,0,1-3.4,1.605l-.066.028-.613.256a2.511,2.511,0,0,0,2,1.3,1.516,1.516,0,0,0,.952-.336,1.3,1.3,0,0,0,.486-1.052A3.766,3.766,0,0,1,32.015,3.179Z" transform="translate(0 12.156)" fill="#f3f2f1"/>
  <path id="Fill_101" data-name="Fill 101" d="M3.12,6.224A3.112,3.112,0,1,1,6.232,3.112,3.12,3.12,0,0,1,3.12,6.224Zm0-5.432a2.32,2.32,0,1,0,2.3,2.32A2.327,2.327,0,0,0,3.12.792Z" transform="translate(138.14 69.3)" fill="#f3f2f1"/>
  <path id="Fill_103" data-name="Fill 103" d="M2.608,4.035h0a3.231,3.231,0,0,1-.545-.047A2.77,2.77,0,0,1,.511,3.145a1.859,1.859,0,0,1-.487-1.56A1.833,1.833,0,0,1,.8.421,2.5,2.5,0,0,1,2.235,0a3.084,3.084,0,0,1,.547.05A2.663,2.663,0,0,1,4.51,1.114a1.731,1.731,0,0,1,.3,1.323,1.768,1.768,0,0,1-.983,1.3A2.534,2.534,0,0,1,2.608,4.035ZM2.261.8a1.77,1.77,0,0,0-1.008.287.994.994,0,0,0-.436.644.951.951,0,0,0,.166.731A1.9,1.9,0,0,0,2.212,3.2a2.179,2.179,0,0,0,.383.034,1.359,1.359,0,0,0,1.441-.917l0-.03a1,1,0,0,0,.013-.136A1.572,1.572,0,0,0,2.64.826,2.357,2.357,0,0,0,2.261.8Z" transform="translate(125.707 74.862)" fill="#f3f2f1"/>
  <path id="Fill_105" data-name="Fill 105" d="M1.7,3.984a1.7,1.7,0,0,1-1.37-.614A1.686,1.686,0,0,1,.017,2.108,2.4,2.4,0,0,1,.964.547,2.56,2.56,0,0,1,2.479,0a1.881,1.881,0,0,1,.259.018A1.709,1.709,0,0,1,3.854.629a1.651,1.651,0,0,1,.313,1.238,2.411,2.411,0,0,1-.949,1.585A2.552,2.552,0,0,1,1.7,3.984ZM2.487.793a1.758,1.758,0,0,0-1.028.381,1.615,1.615,0,0,0-.67,1.2.884.884,0,0,0,.166.512.925.925,0,0,0,.741.308,1.7,1.7,0,0,0,1.026-.374,1.667,1.667,0,0,0,.652-1.049.931.931,0,0,0-.157-.66A.908.908,0,0,0,2.64.8,1.189,1.189,0,0,0,2.487.793Z" transform="translate(101.843 31.01)" fill="#f3f2f1"/>
  <path id="Fill_107" data-name="Fill 107" d="M2.006,4.863H1.948A1.717,1.717,0,0,1,.694,4.284,2.544,2.544,0,0,1,0,2.46V2.4A2.688,2.688,0,0,1,.76.528,1.824,1.824,0,0,1,2.039,0,1.851,1.851,0,0,1,3.476.768,2.792,2.792,0,0,1,4,2.476a2.745,2.745,0,0,1-.768,1.859A1.77,1.77,0,0,1,2.006,4.863ZM1.988.8a1,1,0,0,0-.675.306A1.818,1.818,0,0,0,.8,2.419,1.78,1.78,0,0,0,1.272,3.74a1.047,1.047,0,0,0,.693.337,1.024,1.024,0,0,0,.71-.305A1.947,1.947,0,0,0,3.2,2.46a1.889,1.889,0,0,0-.481-1.343A.965.965,0,0,0,2.031.8Z" transform="translate(122.087 69.579)" fill="#f3f2f1"/>
  <path id="Fill_109" data-name="Fill 109" d="M2.723,4.179a2.853,2.853,0,0,1-1.239-.3A2.613,2.613,0,0,1,.119,2.431a1.818,1.818,0,0,1,.045-1.4,1.848,1.848,0,0,1,1.049-.9A2.44,2.44,0,0,1,2,0,2.7,2.7,0,0,1,3.21.292,2.629,2.629,0,0,1,4.6,1.753a1.749,1.749,0,0,1-.049,1.387A1.724,1.724,0,0,1,3.5,4.048,2.286,2.286,0,0,1,2.723,4.179ZM2.011.8a1.653,1.653,0,0,0-.543.089.927.927,0,0,0-.579.5,1.071,1.071,0,0,0,.059.976,1.929,1.929,0,0,0,.882.815,2.153,2.153,0,0,0,.9.211,1.6,1.6,0,0,0,.5-.078,1.049,1.049,0,0,0,.595-.5.975.975,0,0,0,.016-.777A1.862,1.862,0,0,0,2.872,1.01,1.883,1.883,0,0,0,2.011.8Z" transform="translate(99.541 44.796)" fill="#f3f2f1"/>
  <path id="Fill_111" data-name="Fill 111" d="M29.439,83.055a2.423,2.423,0,0,1-.414-.034,11.8,11.8,0,0,0,.358-1.213,21.544,21.544,0,0,1,.715-2.337,3.889,3.889,0,0,0-1.3,2.163c-.266.769-.6,1.143-1.008,1.143a1.114,1.114,0,0,1-.609-.226,8.6,8.6,0,0,0,.742-1.183,10.358,10.358,0,0,1,2.213-3.019l.184-.129A3.7,3.7,0,0,0,32.3,75.072a13.111,13.111,0,0,0,.026-3.507c-.047-.516-.1-1.05-.109-1.635-.046-1.716-.543-1.953-1.073-1.953a3.489,3.489,0,0,0-.375.027,3.288,3.288,0,0,1-.352.026c-1.7,0-7.8-3.986-7.8-8.033a11.647,11.647,0,0,1,.082-1.255l-.237,0c-2.888,0-4.12,1-4.12,3.354a2.784,2.784,0,0,0,.751,2.287c.28.236.561.513.522.785-.03.206-.238.393-.638.569-1.056.488-9.336,3.922-9.688,4.067a2.111,2.111,0,0,1-.7.154c-.407,0-.592-.232-.827-.526-.051-.064-.1-.128-.159-.195a1.372,1.372,0,0,0-.981-.6.944.944,0,0,0-.522.174.354.354,0,0,0-.175.231c-.022.152.11.315.25.487a1.148,1.148,0,0,1,.338.669c0,1.2-1.139,1.841-3.293,1.841-.286,0-.6-.011-.917-.034l.933-1.576c.191-.366.359-.725.29-.873a.124.124,0,0,0-.092-.069h-.02c-.191,0-.387.295-.658.7l-.115.173L1.5,71.835c-.065,0-.129,0-.193,0a5.5,5.5,0,0,1-1.087-.119c.8-.8,1.4-1.389,1.935-1.91.457-.448.848-.833,1.235-1.219a5.612,5.612,0,0,1,3.525-1.453l.254-.038.025,0c2.317-.343,8.472-1.256,8.472-3.36a3.058,3.058,0,0,0-1.256-2.369,4.018,4.018,0,0,1-1.559-3.287,5.046,5.046,0,0,1,1.548-4.04c1.408-1.266,3.77-1.882,7.22-1.882.159,0,.322,0,.486,0a6.759,6.759,0,0,0-4.664-3.789,6.8,6.8,0,0,1-4.122-2.6,8.391,8.391,0,0,1-1.36-4.008c-.629-.028-1.24-.061-1.83-.093-.447-.024-.865-.046-1.24-.064a16.865,16.865,0,0,1-2.582-.4,6.259,6.259,0,0,0-1.178-.188.825.825,0,0,0-.549.163.786.786,0,0,0-.1,1.139c.1.16.228.387.38.65.411.712.973,1.687,1.478,2.413h.008c.5.066,1.257.167,1.363.775a.788.788,0,0,1-.279.758.813.813,0,0,0-.216.306.429.429,0,0,0,.061.387.458.458,0,0,0,.375.183.466.466,0,0,0,.373-.171.426.426,0,0,0,.09-.348,1.48,1.48,0,0,1,.852-.2,4.465,4.465,0,0,1,1.137.163,8.114,8.114,0,0,1,1.94,2.955,11.518,11.518,0,0,0-2.815-.891c-.2,0-.316.033-.326.093s.126.167.351.246a6.351,6.351,0,0,1,1.832.892l-.074,1.106a18.6,18.6,0,0,0-3.3-1.85l-.1-.042a3.247,3.247,0,0,1-2.323-2.088c-.575-1.406-2.3-4.516-3.1-5.869-.488-.814-.326-1.133-.082-1.437.192-.233.375-.5.537-.734l.115-.166c.281-.453.44-.585.709-.585a2.431,2.431,0,0,1,.3.029c.087.012.185.025.3.035.227.017.684.044,1.186.044a5.124,5.124,0,0,0,1.777-.217c.194-.077.359-.14.52-.2-1.657-1.809-3.609-4.4-3.821-4.706a1.409,1.409,0,0,0-1.058-.71,1.341,1.341,0,0,0-.9.274c-.05.036-.107.079-.166.125-.078.06-.165.127-.263.2-.133-.171-.283-.349-.462-.545C.6,32.885.3,32.557,0,32.252c.617-.457,1.167-.9,1.386-1.082.094-.081.179-.16.254-.229.259-.241.447-.414.721-.414.206,0,.457.01.679.019.171.007.317.013.41.013a1.214,1.214,0,0,1,1.057.43,18.028,18.028,0,0,0,2.217,1.873L6.909,33l.112.086c.05.038.1.075.144.112A1.538,1.538,0,0,1,7.371,33a1.6,1.6,0,0,1,1.124-.456H8.56a1.657,1.657,0,0,1,1.123.562,2.419,2.419,0,0,1,.561,1.724,3.858,3.858,0,0,1-.131.678,20.5,20.5,0,0,1,1.775,1.617,13.36,13.36,0,0,1,2.865-6.274l-.215-.131.009-.032c.056-.177.116-.367.123-.372.245-.759.612-1.96.88-2.837l.226-.738c.115-.359.134-.431.14-.454l.166-.545,2.434.95a1.98,1.98,0,0,1,.231-.215,15.649,15.649,0,0,1,2.97-1.969c2.136-1.211,4.344-2.464,4.344-4.379a2.935,2.935,0,0,0-.982-2.229,2.232,2.232,0,0,1,.3,1.725,2.993,2.993,0,0,1-.941,1.532,3.487,3.487,0,0,1-2.4.937,2.937,2.937,0,0,1-1.708-.754,1.383,1.383,0,0,0-.6-.344,1.614,1.614,0,0,0-.875.437c.083,1.518-.558,2.352-1.189,2.485a2.269,2.269,0,0,0-.055-1.538c-.023-.033-.046-.05-.069-.05a.053.053,0,0,0-.031.011c-.195.115-.422.356-.455,1.205a2.377,2.377,0,0,1-1.973,2.163c.245-.381.61-1.791.363-2a.172.172,0,0,0-.122-.05.78.78,0,0,0-.4.225.825.825,0,0,1-.423.237.693.693,0,0,1-.595-.661c-.015-.14-.15-.152-.3-.152h-.118c-.146,0-.293-.011-.344-.138a.2.2,0,0,1,.01-.161,3.021,3.021,0,0,1,1.459-1.02c.353-.132,1.52-.6,1.7-1.026a.239.239,0,0,0,0-.2.47.47,0,0,0-.486-.249,8.615,8.615,0,0,0-3.1,1.3,1.829,1.829,0,0,1-.785.329.212.212,0,0,1-.164-.061c-.1-.1-.083-.314-.07-.539a1.329,1.329,0,0,0-.039-.554c-.49-1.138-.182-1.4.33-1.825.082-.069.168-.141.257-.222a22.255,22.255,0,0,1,4.49-2.93,1.435,1.435,0,0,1,.908-1.354c.369-.13.732-.273,1.083-.41.423-.166.86-.337,1.3-.482L9.576.652C9.3.335,9.368.138,9.435.049A.15.15,0,0,1,9.549,0c.121,0,.3.114.538.338l12.177,11.97a4.756,4.756,0,0,0,.264-2.873,5.5,5.5,0,0,1,3,3.583h.155a7.046,7.046,0,0,1,3.4.824c.224.115.432.233.615.337a2.764,2.764,0,0,0,1.208.487.846.846,0,0,0,.5-.169.7.7,0,0,1-.1.574,2.132,2.132,0,0,1-1.442.8,5.274,5.274,0,0,1,3.721,2.945c.457.812.852,1.514,1.933,1.669a1.339,1.339,0,0,1-1.045.459,2.512,2.512,0,0,1-.812-.154,7.506,7.506,0,0,1,1.257,5.279c-.076,1.246-.136,2.231.823,3.075a1.169,1.169,0,0,1-.339.049,3.155,3.155,0,0,1-2.319-1.741,10.5,10.5,0,0,1,.125,4.264,3.908,3.908,0,0,0,.065,2.134,1.217,1.217,0,0,1-.328.047c-.7,0-1.27-.694-1.563-1.9a12.014,12.014,0,0,1-.668,1.973l1,.8-.388.421.008-.016-.1.115c-1.594,1.709-2.4,2.577-2.766,3l-.281.305-.043-.023c-.086-.047-.288-.157-.32-.183-.988,1.228-1.923,2.387-1.923,3.657,0,1.433,1.917,4.052,3.88,6.612a2.3,2.3,0,0,1-.149-.809v-.074A1.748,1.748,0,0,1,31.4,46.021h.064A2.789,2.789,0,0,1,34.06,48.7v.083a1.776,1.776,0,0,1-1.783,1.743h-.065a2.571,2.571,0,0,1-1.387-.5l.064.084A33.758,33.758,0,0,1,34.25,55.02c1.518,3.16,2.762,4.508,4.161,4.508a3.273,3.273,0,0,0,3.318-3.368c0-3.446-2.164-5.361-4.455-7.389-2.4-2.125-4.882-4.322-4.882-8.461a5.409,5.409,0,0,1,1.845-4.177,5.2,5.2,0,0,1,3.257-1.372,3.615,3.615,0,0,1,2.881,1.131,3.281,3.281,0,0,1,.71-.082c2.369,0,2.675,1.681,2.972,3.307.262,1.437.51,2.8,2.113,2.983a2.388,2.388,0,0,1-1,.22c-1.461,0-2.829-1.264-3.57-3.3.128,2.788,1.979,3.795,3.612,4.683,1.511.822,2.817,1.531,2.331,3.457-.048-1.09-1.6-1.69-3.4-2.386-2.589-1-5.81-2.243-5.956-5.5a3.493,3.493,0,0,1,.875-2.658,2.294,2.294,0,0,0-1.445-.472,4.283,4.283,0,0,0-3.839,4.261c0,3.4,2.177,5.323,4.483,7.358,2.366,2.089,4.813,4.249,4.813,8.17a4.887,4.887,0,0,1-1.741,3.913,1.827,1.827,0,0,0,.223.013,3.214,3.214,0,0,0,2.2-1,3.173,3.173,0,0,1-3.066,2.568,2.212,2.212,0,0,1-1.73-.709h-.008c-.063,0-.125,0-.192.008s-.141.008-.212.008a5.249,5.249,0,0,1-.731-.066c.731,1.481,1.605,2.232,2.594,2.232a2.049,2.049,0,0,0,.282-.02,3.2,3.2,0,0,1-2.014.748,3.473,3.473,0,0,1-2.612-1.3,4,4,0,0,1-.929-3.236,10.914,10.914,0,0,1-1.718-2.839c-.1-.226-.225-.35-.357-.35a.256.256,0,0,0-.183.089,1.029,1.029,0,0,0-.195.731,9,9,0,0,1-1,3.767,7.386,7.386,0,0,0-.8,2.647,3.941,3.941,0,0,0,.975,2.362,2.737,2.737,0,0,0,1.427,1.056,1.528,1.528,0,0,0,.783-.31,1.163,1.163,0,0,1,.548-.238.354.354,0,0,1,.14.028c.411.194.372.731.286,1.908l-.006.081c-.046.667.045,2.129.151,3.823.026.424.054.861.08,1.3a2.65,2.65,0,0,1,1.139-1.5,2.757,2.757,0,0,1,1.5-.472,2.242,2.242,0,0,1,.474.05,1.805,1.805,0,0,1,1.156.761,1.672,1.672,0,0,1,.28.949,1.735,1.735,0,0,1-.041.405A2.67,2.67,0,0,1,38.6,74.99a2.721,2.721,0,0,1-1.512.479c-.068,0-.137,0-.2-.009a1.835,1.835,0,0,1-1.42-.792,2.63,2.63,0,0,1-.131-.273l.018.515c.018.506.035.983.048,1.449.022,1.453-.309,2.255-1.106,2.683a1.282,1.282,0,0,0-1.156-.727.836.836,0,0,0-.875.678.882.882,0,0,0,.374.686,1.291,1.291,0,0,1,.5,1.073C33.136,81.742,31.028,83.055,29.439,83.055ZM37.9,71.974a1.979,1.979,0,0,0-1.063.341,1.894,1.894,0,0,0-.825,1.147,1.009,1.009,0,0,0,.123.76,1.1,1.1,0,0,0,.95.443,2.037,2.037,0,0,0,1.08-.337A1.937,1.937,0,0,0,39,73.19a.986.986,0,0,0-.132-.759.959.959,0,0,0-.652-.422A1.365,1.365,0,0,0,37.9,71.974ZM27.038,60a1.692,1.692,0,0,0-1.332.771,1.455,1.455,0,0,0,.1,2.031,1.059,1.059,0,0,0,.616.19,1.724,1.724,0,0,0,1.341-.768,1.482,1.482,0,0,0-.108-2.039A1.084,1.084,0,0,0,27.038,60Zm3.686-5.8a1.731,1.731,0,0,0-1.345.769,1.461,1.461,0,0,0,.1,2.03,1.061,1.061,0,0,0,.617.19,1.705,1.705,0,0,0,1.331-.76,1.484,1.484,0,0,0-.091-2.048A1.076,1.076,0,0,0,30.724,54.2Zm.728-7.379a.985.985,0,0,0-.735.265.961.961,0,0,0-.3.709,1.963,1.963,0,0,0,.545,1.3,1.839,1.839,0,0,0,1.271.611.99.99,0,0,0,.725-.256,1.01,1.01,0,0,0,.3-.71,1.861,1.861,0,0,0-.545-1.3,1.908,1.908,0,0,0-1.263-.627ZM16.417,26.438a.449.449,0,0,1-.014.046l-.006.021-.021.068c-.545,1.787-.964,3.137-1.212,3.9l12.911,7.446c.888-.972,2.818-3.04,2.873-3.1l-1.189-.949a4.911,4.911,0,0,1-.157,1.643,1.455,1.455,0,0,1-.562-1.148l-.95,1.2a1.894,1.894,0,0,1,1.189.388,1.479,1.479,0,0,1-1.037.488,1.963,1.963,0,0,1-1.035-.389c-.856-.567-1.144-.994-.932-1.387a.587.587,0,0,1,.513-.28.772.772,0,0,1,.75.726,1.109,1.109,0,0,0,.647-.629.818.818,0,0,0-.078-.66.74.74,0,0,0-.689-.343,1.5,1.5,0,0,0-.442.071,2.286,2.286,0,0,0,1.354-2.624,2.362,2.362,0,0,0-2.022,2.088c-.081-.538-.389-.935-.751-.967h-.031a.824.824,0,0,0-.6.247,1.117,1.117,0,0,0-.268.836.964.964,0,0,1,.3-.052.728.728,0,0,1,.649.381.619.619,0,0,1-.005.638.639.639,0,0,1-.575.308,2.367,2.367,0,0,1-1.109-.4,1.47,1.47,0,0,1-.562-2.164,1.655,1.655,0,0,1,.43,1.272l1.056-1.692a1.866,1.866,0,0,1-.6.1,1.843,1.843,0,0,1-.594-.1l0-.006a2.345,2.345,0,0,1,1.449-.894l-2.03-1.181a2.326,2.326,0,0,1-.056,1.7l0,.008a1.826,1.826,0,0,1-.595-1.031l-.941,1.758a1.936,1.936,0,0,1,.988-.309.96.96,0,0,1,.332.053,1.533,1.533,0,0,1-1.291.842,1.847,1.847,0,0,1-.864-.248c-.858-.492-1.16-.957-.924-1.42a.621.621,0,0,1,.563-.32.759.759,0,0,1,.742.657,1.117,1.117,0,0,0,.6-.678.8.8,0,0,0-.114-.643.728.728,0,0,0-.637-.281,1.5,1.5,0,0,0-.575.123,2.387,2.387,0,0,0,.808-2.822,2.317,2.317,0,0,0-1.6,2.493c-.111-.5-.435-.834-.808-.834a.8.8,0,0,0-.6.261,1.088,1.088,0,0,0-.221.87.9.9,0,0,1,.352-.073.747.747,0,0,1,.646.36.576.576,0,0,1,.017.58.553.553,0,0,1-.513.268,2.631,2.631,0,0,1-1.147-.383,1.439,1.439,0,0,1-.949-1.833,1.981,1.981,0,0,1,.924.834l.57-1.42a1.273,1.273,0,0,1-.71.2,1.409,1.409,0,0,1-.578-.115,4.919,4.919,0,0,1,1.354-.949l-1.414-.555Zm-7.923,6.9a.892.892,0,0,0-.586.231,1.575,1.575,0,0,0-.472,1.1v.108c0,.713.415,1.313.925,1.337a.892.892,0,0,0,.594-.239,1.58,1.58,0,0,0,.479-1.1,1.55,1.55,0,0,0-.346-1.14.837.837,0,0,0-.57-.3ZM19.176,15.8c-1.058,0-1.167.615-1.282,1.265l0,.015a2.833,2.833,0,0,1-.232.813A9.286,9.286,0,0,1,21.5,16.832a5.009,5.009,0,0,1-1.053-.527A2.617,2.617,0,0,0,19.176,15.8Z" transform="translate(98.752 2.692)" fill="#f3f2f1"/>
</svg>
