<svg xmlns="http://www.w3.org/2000/svg" width="146.42" height="101.97" viewBox="0 0 146.42 101.97"><defs><style>.a{fill:#0b0c0c;}</style></defs><path class="a" d="M62.51,16.56c-.58,1.12-1.08,1.76-1,2.61s1,1.45,1.39,2.33c.39-1,1-1.76,1-2.54s-1.17-1.84-1.35-2.4" transform="translate(0.02)"/><path class="a" d="M80.13,16.56c.57,1.12,1.08,1.76,1,2.61s-1,1.45-1.39,2.33c-.39-1-1-1.76-1-2.54s1.15-1.84,1.35-2.4" transform="translate(0.02)"/><path class="a" d="M52.31,15.92a1,1,0,1,0-1-1,1,1,0,0,0,1,1" transform="translate(0.02)"/><path class="a" d="M52.91,17.35a1,1,0,0,0-2,0,1,1,0,1,0,2,0h0" transform="translate(0.02)"/><path class="a" d="M53.5,19.79a1,1,0,0,0-1-1,1,1,0,0,0,0,2,1,1,0,0,0,1-1" transform="translate(0.02)"/><path class="a" d="M58.91,11.13a1,1,0,1,0-1-1,1,1,0,0,0,1,1" transform="translate(0.02)"/><path class="a" d="M56,11.9a1,1,0,0,0,1-1,1,1,0,1,0-1,1" transform="translate(0.02)"/><path class="a" d="M53.61,13.61a1,1,0,0,0,0-2,1,1,0,0,0-1,1,1,1,0,0,0,1,1h0" transform="translate(0.02)"/><path class="a" d="M62,11.37a1,1,0,1,0-1-1,1,1,0,0,0,1,1" transform="translate(0.02)"/><path class="a" d="M65,12.1a1,1,0,0,0,1-1,1,1,0,0,0-1-1,1,1,0,0,0-1,1,1,1,0,0,0,1,1h0" transform="translate(0.02)"/><path class="a" d="M67.78,13.19a1,1,0,1,0,0-2,1,1,0,1,0,0,2" transform="translate(0.02)"/><path class="a" d="M89.29,14.92a1,1,0,0,0,2,0,1,1,0,1,0-2,0h0" transform="translate(0.02)"/><path class="a" d="M90.69,16.35a1,1,0,0,0-1,1h0a1,1,0,1,0,2,0,1,1,0,0,0-1-1h0" transform="translate(0.02)"/><path class="a" d="M90.11,18.79a1,1,0,1,0,1,1,1,1,0,0,0-1-1" transform="translate(0.02)"/><path class="a" d="M83.68,11.13a1,1,0,0,0,1-1,1,1,0,0,0-1-1h0a1,1,0,0,0-1,1h0a1,1,0,0,0,1,1" transform="translate(0.02)"/><path class="a" d="M86.65,11.9a1,1,0,1,0,0-2,1,1,0,0,0-1,1,1,1,0,0,0,1,1" transform="translate(0.02)"/><path class="a" d="M89,13.61a1,1,0,0,0,1-1h0a1,1,0,0,0-2,0,1,1,0,0,0,1,1h0" transform="translate(0.02)"/><path class="a" d="M80.56,11.37a1,1,0,1,0,0-2,1,1,0,0,0,0,2h0" transform="translate(0.02)"/><path class="a" d="M77.6,12.1a1,1,0,0,0,1-1,1,1,0,0,0-1-1,1,1,0,0,0-1,1,1,1,0,0,0,1,1" transform="translate(0.02)"/><path class="a" d="M73.81,12.18a1,1,0,1,0,1-1,1,1,0,0,0-1,1" transform="translate(0.02)"/><path class="a" d="M69.37,17.63H70.5v-4.3A4.51,4.51,0,0,1,69.37,13Z" transform="translate(0.02)"/><path class="a" d="M73.24,13a4.11,4.11,0,0,1-1.13.35v4.3h1.13Z" transform="translate(0.02)"/><path class="a" d="M70.3,8.22V5.66a3.18,3.18,0,0,0-2.47,2.56Z" transform="translate(0.02)"/><path class="a" d="M72.32,8.22h2.45a3.18,3.18,0,0,0-2.45-2.56Z" transform="translate(0.02)"/><path class="a" d="M68.21,9.45a3.16,3.16,0,0,0,6.17,0Z" transform="translate(0.02)"/><path class="a" d="M73,5.28A3.52,3.52,0,0,1,71.65,3a4,4,0,0,1,2.27,1.44V1a3.91,3.91,0,0,1-2.27,1.45A5.15,5.15,0,0,1,73,0H69.62a5.05,5.05,0,0,1,1.3,2.48A3.89,3.89,0,0,1,68.66,1V4.48A4,4,0,0,1,70.93,3a3.52,3.52,0,0,1-1.37,2.24Z" transform="translate(0.02)"/><path class="a" d="M73.38,78.77a26.07,26.07,0,0,1-6.45-1,27.43,27.43,0,0,1-5.6-2.18,2.58,2.58,0,0,1-1.54.53,2.37,2.37,0,0,1-1-.24A3.16,3.16,0,0,1,57,73.44c0-.09,0-.19,0-.29s0-.07,0-.1a27.75,27.75,0,0,1-2-2,24,24,0,0,1-4.54-7.62,26.46,26.46,0,0,1-1.16-4.09,4.09,4.09,0,0,0,1.34.26,2.27,2.27,0,0,0,1.76-.84c.17.05.18.58.16.78a3.32,3.32,0,0,0,3.3-2.4,18.43,18.43,0,0,0,.91,3.58,17.21,17.21,0,0,0,3.1,5.38,14.77,14.77,0,0,0,1.46,1.5,2.61,2.61,0,0,1,1-.19,2.67,2.67,0,0,1,2,1A2.73,2.73,0,0,1,65,70.48v0a65.23,65.23,0,0,0,10.44,3.74,22.51,22.51,0,0,0,4.9.75,7.46,7.46,0,0,0,1-.06.8.8,0,0,1-.21.2A14.25,14.25,0,0,1,79,76.78,11.61,11.61,0,0,1,73.38,78.77Zm-1.55-3.89a1.24,1.24,0,1,0,1.24,1.24A1.24,1.24,0,0,0,71.83,74.88ZM58.09,69.61a6.25,6.25,0,0,0,.45.85l.09.17-.1.14a5.35,5.35,0,0,0-1,2.67A2.72,2.72,0,0,0,59,75.35a1.71,1.71,0,0,0,.77.18,2,2,0,0,0,.95-.26c-.29-.16-.71-.4-1-.6l-.15-.1a1.08,1.08,0,0,1-.63-.66.83.83,0,0,1,0-.22,2.44,2.44,0,0,1,.4-1.17l.09-.14,0,0,0-.09,0,0a.91.91,0,0,0,.11-.16l.15-.24L60,72a2.36,2.36,0,0,0,1,.33.76.76,0,0,0,.21,0,.49.49,0,0,0,.33-.26c.19-.34.1-.9-.55-1.41l-.23-.2.35-.39a5.77,5.77,0,0,1,.72-.76,1.21,1.21,0,0,1,.82-.36,1.43,1.43,0,0,1,.86.35l.34.24.2.16h0c.12.09.23.18.34.25a2.49,2.49,0,0,0-.58-1.21,2.17,2.17,0,0,0-1.56-.78c-1.35,0-2.78,1.58-2.94,1.76l-.12.11-.16,0C58.75,69.71,58.42,69.65,58.09,69.61Zm7.82,3.2a1.36,1.36,0,1,0,1.35,1.35h0a1.36,1.36,0,0,0-1.35-1.35Z" transform="translate(0.02)"/><path class="a" d="M71.32,92.52A1.52,1.52,0,0,1,69.8,91a1.91,1.91,0,0,1,.1-.53c-1.2,0-1.54-1.37-1.78-2.33-.14-.57-.26-1-.5-1s-.57.5-.8,1.06a4.07,4.07,0,0,1-1.08-2.43A2.17,2.17,0,0,1,67.9,83.6a1.93,1.93,0,0,1,.67.12V79.07a25.86,25.86,0,0,0,5.53.84V83.7a1.93,1.93,0,0,1,.63-.1,2.17,2.17,0,0,1,2.16,2.17,4,4,0,0,1-1.08,2.43c-.3-.66-.5-1.06-.82-1.06s-.36.45-.49,1c-.24,1-.56,2.29-1.77,2.34a1.58,1.58,0,0,1,.09.52,1.51,1.51,0,0,1-1.5,1.51Zm0-2.34a.85.85,0,0,0-.85.84.86.86,0,0,0,.85.84.85.85,0,0,0,.84-.84.84.84,0,0,0-.83-.84Zm0-2.8c.4,0,.63.2.63.52a.89.89,0,0,1-.15.45h0a1,1,0,0,0-.18.57.94.94,0,0,0,1,.9h.06c.81,0,1-.93,1.29-1.82s.42-1.58,1-1.58a1.07,1.07,0,0,1,.85.66,3.27,3.27,0,0,0,.4-1.32,1.5,1.5,0,0,0-1.49-1.5c-1,0-1.3.82-1.52,1.49-.15.46-.29.86-.63.86A.59.59,0,0,1,72,86.1V86a1.67,1.67,0,0,1,.52-.92,2.28,2.28,0,0,0,.68-1.34c0-1-.91-1.79-1.84-2.54-.93.74-1.84,1.56-1.84,2.54a2.25,2.25,0,0,0,.68,1.33,1.7,1.7,0,0,1,.52.93.57.57,0,0,1-.57.58H70c-.33,0-.47-.4-.62-.85-.23-.67-.5-1.5-1.52-1.5a1.5,1.5,0,0,0-1.49,1.51,2.92,2.92,0,0,0,.41,1.32,1.08,1.08,0,0,1,.84-.66c.62,0,.82.77,1,1.59s.48,1.81,1.29,1.81A.93.93,0,0,0,71,89s0,0,0-.06a1.08,1.08,0,0,0-.19-.57.89.89,0,0,1-.15-.45c0-.34.24-.53.64-.53Z" transform="translate(0.02)"/><path class="a" d="M131,88.15a.55.55,0,0,0-.62-.24c-5.5,1.29-12.31-2.37-18.9-5.92-5.55-3-10.79-5.8-15.27-5.8a11.09,11.09,0,0,0-4.41.83,7.07,7.07,0,0,0-3.5,3.28,18.69,18.69,0,0,1-2.19,3.32c-.75,1-1.33,1.66-1.33,2.55a2.56,2.56,0,0,0,1.16,2,11.7,11.7,0,0,0,2.88,1.58,7.92,7.92,0,0,0,.85.34c1.07.43,1.76.72,1.88,1.23a43.93,43.93,0,0,1-8.17,1.85,83.49,83.49,0,0,1-11.72.77,83.49,83.49,0,0,1-11.72-.77,42.56,42.56,0,0,1-8.2-1.87c.09-.73.77-1,1.95-1.49.29-.1.57-.2.86-.33A15,15,0,0,0,57.34,88a2.18,2.18,0,0,0,1.13-1.83,4.26,4.26,0,0,0-1.31-2.55A19.85,19.85,0,0,1,55,80.3,6.91,6.91,0,0,0,51.47,77a11,11,0,0,0-4.39-.84c-4.5,0-9.75,2.81-15.3,5.79-6.57,3.55-13.39,7.21-18.89,5.92a.56.56,0,0,0-.62.26.39.39,0,0,0,.25.49h0a23.2,23.2,0,0,1,4.57,2.41c2,1.24,3.85,2.41,5.91,2.41a17,17,0,0,0,6.6-1.56c2.2-.93,4.5-2.2,6.72-3.41,4.35-2.39,8.83-4.85,13.09-5.13-.45.36-.88.68-1.29,1-1.26.9-2.34,1.69-2.34,3.27A6.24,6.24,0,0,0,47.08,91c.21.36.46.75.71,1.22a11.28,11.28,0,0,1,1,2.47c.11.4.26.85.44,1.39.26.82.77,2.35,3.9,3.62,3.61,1.49,9.83,2.25,18.54,2.25s14.92-.76,18.53-2.25c3.11-1.27,3.62-2.8,3.9-3.62.17-.54.32-1,.43-1.39a11.78,11.78,0,0,1,1-2.47c.35-.62.7-1.13,1-1.57a5.14,5.14,0,0,0,1.17-2.89c0-1.6-1.15-2.42-2.47-3.39-.42-.3-.87-.62-1.33-1,4.27.27,8.75,2.74,13.09,5.14,2.22,1.21,4.52,2.48,6.72,3.4a17,17,0,0,0,6.6,1.58c2.05,0,3.93-1.18,5.91-2.43a24.9,24.9,0,0,1,4.57-2.4.4.4,0,0,0,.28-.49v0" transform="translate(0.02)"/><path class="a" d="M82.25,74.09h0a23.19,23.19,0,0,1-5.16-.86c-.48-.11-.79-.2-1.21-.33l-.41-.12a5.58,5.58,0,0,1,.32-1.4,3.5,3.5,0,0,1,.68-1.24.65.65,0,0,0,.28-.24.73.73,0,0,1,.26-.23,14.29,14.29,0,0,0,4.6-3.61,17.73,17.73,0,0,0,3.1-5.38,19.81,19.81,0,0,0,1.12-6.1H72V70c1.1.05,3.14.26,3.17.26a4.11,4.11,0,0,0-.88,2.25c-1.46-.46-3-1-4.74-1.73A2.19,2.19,0,0,1,71.18,70V54.58H57.05a4.89,4.89,0,0,0-.55-1.9,3.8,3.8,0,0,1-1-2.66,4.59,4.59,0,0,0-1.15-2.49c-.38-.49-2.08-2.34-2.49-2.77a24.08,24.08,0,0,1,4.54-7.56,21.83,21.83,0,0,1,4.3-3.72A3.1,3.1,0,0,1,59,30.82,2.49,2.49,0,0,1,59.84,29c-.83-2.67-2.4-6.2-3.83-7.77L58.85,20a4.43,4.43,0,0,0-.61,3.23A3.63,3.63,0,0,0,59.85,21a13.63,13.63,0,0,0,1,3.1,3.42,3.42,0,0,0-1.44-.41,2.18,2.18,0,0,0-.9.2,3.33,3.33,0,0,0,2.67,1.3,4,4,0,0,0,.9-.11c.47-.12,2-.59,2-1.57a1,1,0,0,0-.93-1h-.08a.56.56,0,0,0-.43.3,1.47,1.47,0,0,0,0,1.13,2.9,2.9,0,0,1-1-2.39.86.86,0,0,1,.63-.8,1.26,1.26,0,0,1,.27,0c1,0,1.73,1.34,2,2.18.1-.73.48-2.42,1.66-2.42h.07a.83.83,0,0,1,.72.52,3.33,3.33,0,0,1-.3,2.6c-.08-.82-.52-1.27-.9-1.27h0c-.19,0-.82.15-.73,1.05.08.72,1.11,1.24,2.43,1.24,1,0,3.31-.26,3.52-2.69a4.21,4.21,0,0,0-2.48,1.52,15.74,15.74,0,0,0,0-3.88,3.84,3.84,0,0,0,2.45,1.52,4.72,4.72,0,0,0-2.06-2.66H74a4.64,4.64,0,0,0-2.07,2.67,3.86,3.86,0,0,0,2.49-1.52,15.66,15.66,0,0,0,0,3.87A4.41,4.41,0,0,0,71.89,22c.22,2.43,2.53,2.69,3.52,2.69,1.33,0,2.35-.52,2.44-1.23a1,1,0,0,0-.18-.77.76.76,0,0,0-.55-.28h0c-.39,0-.82.43-.9,1.27a3.35,3.35,0,0,1-.3-2.61.84.84,0,0,1,.73-.52h.07c1.17,0,1.55,1.69,1.66,2.42.33-1.05,1.14-2.17,2-2.17a.84.84,0,0,1,.27,0,.88.88,0,0,1,.64.81,2.88,2.88,0,0,1-1,2.37,1.37,1.37,0,0,0,0-1.12.55.55,0,0,0-.44-.31h-.07a1,1,0,0,0-.94,1c0,1,1.51,1.46,2,1.58a3.89,3.89,0,0,0,.9.11,3.3,3.3,0,0,0,2.67-1.32,2.6,2.6,0,0,0-.87-.18,3.56,3.56,0,0,0-1.44.4A12.88,12.88,0,0,0,83,21a3.6,3.6,0,0,0,1.57,2.15A4.45,4.45,0,0,0,84,20l2.84,1.2c-1.41,1.57-3,5.09-3.83,7.75a2.4,2.4,0,0,1,.89,1.88,3.1,3.1,0,0,1-1.7,2.66,22.12,22.12,0,0,1,4.3,3.72,21.32,21.32,0,0,1,2.67,3.61,2.88,2.88,0,0,0-.4.52,5.35,5.35,0,0,1-.53.63l-.29.33a1.88,1.88,0,0,0-.47,1.15,2.71,2.71,0,0,0,.43,1.29c.34.56,2.53,4.89,3.07,6a5.51,5.51,0,0,0,1.7,2,7.64,7.64,0,0,1,0,.93v.44A26.25,26.25,0,0,1,91,63.38,24.22,24.22,0,0,1,86.48,71a21.82,21.82,0,0,1-3,2.87h0A2,2,0,0,1,82.25,74.09ZM72,37.13V53.76H85.83a19.23,19.23,0,0,0-1.13-6.33,17.32,17.32,0,0,0-3.1-5.38A14.38,14.38,0,0,0,77,38.42,12.51,12.51,0,0,0,72,37.13Zm-.83,0a12.36,12.36,0,0,0-5.33,1.3,14.49,14.49,0,0,0-4.6,3.63,17.85,17.85,0,0,0-3.1,5.38A19.22,19.22,0,0,0,57,53.76H71.17Zm.26-6.92a17.53,17.53,0,0,1,9.84,2.65c1.09-.64,1.57-1.27,1.57-2,0-1.16-1.43-2-4.27-2.45a43.7,43.7,0,0,0-7.14-.46h0a43.7,43.7,0,0,0-7.14.46c-2.83.46-4.27,1.29-4.27,2.45,0,.76.48,1.39,1.55,2a17.44,17.44,0,0,1,9.86-2.65Z" transform="translate(0.02)"/><path class="a" d="M79.59,52.94h0a.89.89,0,0,1-.24-.89H75.27a.22.22,0,0,0,.07.17.27.27,0,0,0,.19.08.33.33,0,0,0,.26-.13.51.51,0,0,1-.47.55h0a.28.28,0,0,1-.13,0,.41.41,0,0,1-.21-.44,1,1,0,0,1-.62.24,1,1,0,0,1,.23-.63h-.09a.36.36,0,0,1-.36-.23.4.4,0,0,1,.05-.35.55.55,0,0,1,.49-.24.29.29,0,0,0-.13.34.25.25,0,0,0,.25.16h0V45.68a1.15,1.15,0,0,1-.26,0,.88.88,0,0,1-.65-.27.9.9,0,0,1,.63-.27,1.26,1.26,0,0,1,.28,0v-5.4h0a.25.25,0,0,0-.24.17.28.28,0,0,0,.11.32A.56.56,0,0,1,74.2,40a.35.35,0,0,1,.33-.56,1,1,0,0,1-.19-.66.91.91,0,0,1,.63.33.39.39,0,0,1,.24-.34l.11,0a.44.44,0,0,1,.32.15.56.56,0,0,1,.14.45.33.33,0,0,0-.28-.16.22.22,0,0,0-.24.22h0A11.12,11.12,0,0,1,78.6,41a13.47,13.47,0,0,1,3,2.79c.1.15.2.27.3.4a.86.86,0,0,1,.76-.41h.12a.93.93,0,0,1-.58.74h0s0,0,0,0a15.63,15.63,0,0,1,2.65,7h0a.26.26,0,0,0,.26-.18A.31.31,0,0,0,85,51h0a.54.54,0,0,1,.47.23.39.39,0,0,1,0,.35.36.36,0,0,1-.39.23h0a1,1,0,0,1,.25.62.93.93,0,0,1-.62-.23.4.4,0,0,1-.22.45.28.28,0,0,1-.13,0,.51.51,0,0,1-.48-.53.31.31,0,0,0,.24.13.25.25,0,0,0,.2-.09.22.22,0,0,0,.06-.19H79.83a.94.94,0,0,1-.24.89Zm.61-1.86.12,0a.43.43,0,0,1,.24.47H84a.83.83,0,0,1-.28-.65.76.76,0,0,1,.5.15,15.15,15.15,0,0,0-2.07-5.62.41.41,0,0,1-.19,0,.26.26,0,0,1-.17,0,.39.39,0,0,1-.14-.46,1.24,1.24,0,0,1-.53.15H81a.89.89,0,0,1,.32-.58.37.37,0,0,1-.28-.66,12.57,12.57,0,0,0-2.73-2.52,11.93,11.93,0,0,0-2.66-1.3,1.08,1.08,0,0,1,.14.58.85.85,0,0,1-.52-.21v4.05l.1,0a.42.42,0,0,1,.39.24.39.39,0,0,1-.18.47.92.92,0,0,1,.61.26.85.85,0,0,1-.61.28c.22.18.22.35.18.46a.38.38,0,0,1-.39.23h-.09v4.8a.86.86,0,0,1,.59-.23,1,1,0,0,1-.2.6h2.93a.46.46,0,0,1,.24-.47l.12,0a.45.45,0,0,1,.34.18,1,1,0,0,1,.28-.6,1,1,0,0,1,.27.6A.46.46,0,0,1,80.2,51.08Z" transform="translate(0.02)"/><path class="a" d="M82.43,49.55a.84.84,0,0,0,.38-.34.49.49,0,0,1-.39-.05c.13-.1.29,0,.13-.25s-.27-.26-.44-.09a1,1,0,0,1-1.21-.65,1.55,1.55,0,0,1,0-.21.78.78,0,0,0,.37.3l.13.07.15,0a.51.51,0,0,0,.32,0l0,0v-.05A.46.46,0,0,0,82.3,48c0-.46-.38-.66-.85-1.07a4.28,4.28,0,0,1-.45-.4,4.44,4.44,0,0,0-.46-1.21,4.56,4.56,0,0,0-.13-.53,1.48,1.48,0,0,0,.24,1.74c.47.5,1.45,1,1.4,1.42a.3.3,0,0,1-.24.23.8.8,0,0,1-.15,0l-.09,0a.72.72,0,0,1-.2-.09,1.8,1.8,0,0,1-.34-.26,8.72,8.72,0,0,1-1-1.26,1.77,1.77,0,0,1-.18-1.61c.32-.45-.2-1.35-.5-1.57a.87.87,0,0,0,0-.48.45.45,0,0,1-.28,0c-.09-.16-.12-.19-.23-.21s-.2-.14-.22-.22c-.11.09-.14.21-.26.21s-.23,0-.29.06a.44.44,0,0,1-.34.12c-.2,0-.19.11-.18.24a.27.27,0,0,0,.15.25.1.1,0,0,0,0,0l.14.16.11-.18c.08-.07.31-.1.36.08s.06.14-.1.16l-.4.05c-.1,0-.1.13-.09.21s.11.16.34.11.61-.09.61.1c0,.49-.56.47-.69,1a1,1,0,0,1-.34-.32,2.17,2.17,0,0,0-.43-.52,2.31,2.31,0,0,0-.42-.34c-.18-.11-.18-.21-.18-.42s.07-.32.07-.48a.75.75,0,0,0,0-.16.29.29,0,0,0-.26-.16.32.32,0,0,1,.1.17.2.2,0,0,0-.08.1.11.11,0,0,0,0,.16h0s0,0,0,0a.17.17,0,0,1,0,.07s0,0,0,0-.1-.29-.22-.3H76.1a.06.06,0,0,1,0,0c0-.12-.14-.22-.3-.06,0,0,.11,0,.12,0a.51.51,0,0,0,0,.13c0,.11.08.18.21.18a.08.08,0,0,1,0,0s0,0,0,.05,0,0,0,0c-.23-.09-.33,0-.34.12a.25.25,0,0,0,0,.08c-.08,0-.1.17,0,.27a.17.17,0,0,1,0-.15h0l.07.06s0,0,.11-.05h.06l.08.05s0,0,0,0c-.15.15-.12.28,0,.33-.09.15-.34.1-.33-.14-.19.3.12.51.38.4,0,.11,0,.33,0,.33s0,0,0,0a0,0,0,0,1,0,0,.15.15,0,0,0,.14.17s0-.06,0-.08l.12.22a2.27,2.27,0,0,0,1,1.06,2.45,2.45,0,0,0-.68.64c-.16.16-.4.34-.56.24s-.08-.1-.16-.18a.48.48,0,0,0-.2,0s-.06,0-.09,0a.32.32,0,0,0-.32.1.24.24,0,0,1,.23,0s0,.1,0,.1.05.14.35.13c0,0,0,0,0,0a.18.18,0,0,1-.17,0c-.14,0-.19-.14-.29,0a.27.27,0,0,1-.07.08h0c-.11,0-.23.28-.09.38a.22.22,0,0,1,.09-.2l.07.07c.08.14.17.2.38-.1,0,0,0,0,0,0s-.15.34,0,.37h.08v0a.28.28,0,0,0,.34.17h0a.27.27,0,0,1-.19-.21h.1c.1-.11,0-.24,0-.34h0a.19.19,0,0,0,.24.15l0,0a.27.27,0,0,0,.11-.19.91.91,0,0,1,.54-.11c0-.1.1-.26.32-.31a.34.34,0,0,1,.38.07.85.85,0,0,1,.21-.37c0,.86,1.15.85,1.41,1.35a2.07,2.07,0,0,0-1-.18c-.28,0-.78.31-.85.64a1.24,1.24,0,0,0,.51.93c-.33.06-.46,0-.76,0h0c-.25,0-.29-.44-.61-.32,0,0-.07,0-.09.06s-.28.15-.25.28a.35.35,0,0,1,.19-.12v.07s0,.1.12.1.08,0,.12,0a0,0,0,0,1,0,0h0c0,.11-.39-.08-.33.26a.18.18,0,0,0,.06.09c0,.1.07.2.25.15,0,0-.1-.07-.08-.13h.07s0,0,0-.05h0a.64.64,0,0,0,0,.09.2.2,0,0,0,0,.11c0,.12.17.24.33.12,0,0-.15,0-.16-.08a.2.2,0,0,1,.08,0,.2.2,0,0,0,0-.11c0-.05,0-.05,0-.05h.09s0,0,0,0a.2.2,0,0,0,.24.1.15.15,0,0,0,.11-.08l.14.08c0-.13,0-.22.33,0L79,49.7s.26.11.36,0,.08-.15.08-.3-.18-.23-.23-.48c-.08-.42.5-.66.86-.59a2,2,0,0,0,1.09,1.2c.4.13.55-.3.69-.24a.18.18,0,0,1,.07.1,2.42,2.42,0,0,1,0,.47c0,.1-.26,0-.4,0a.14.14,0,0,0-.16.07.32.32,0,0,0-.27.27.76.76,0,0,1,.23-.13s0,0,0,.06a.18.18,0,0,0,.21.17.21.21,0,0,0,.12-.05s.05,0,0,0-.28.24-.12.31l.09,0a.21.21,0,0,0,.15.23c0-.07,0-.1,0-.21l.09,0c.1,0,.06-.22.18-.28h0c0,.13,0,.28,0,.31h.1c0,.1.14.18.31.08,0,0-.13,0-.15-.09l.08-.1c.08-.25-.15-.27-.15-.37s.26-.05.26-.31c0,0,0,0,0,0s.24-.15.25-.24a.81.81,0,0,1-.31-.06Z" transform="translate(0.02)"/><path class="a" d="M66,68a.92.92,0,0,1-1-.86v-.06a.72.72,0,0,1,.74-.69h0a.44.44,0,0,1,.36.12.28.28,0,0,1,0,.25c0,.1-.14.11-.25.12s-.3,0-.3.2.15.31.42.31a.53.53,0,0,0,.59-.45.38.38,0,0,0,0-.15c0-.6-.49-.69-.78-.69a2,2,0,0,0-.49.06C61,64.9,58.68,60.68,59,57.51l-.18-.07-.1,0,.27-.64a.57.57,0,0,1-.42.19.53.53,0,0,1-.53-.53.53.53,0,1,1,1.06,0v.06l.26-.65a5.83,5.83,0,0,0,2.68.85A9.67,9.67,0,0,0,65.31,56a4.18,4.18,0,0,1,1.21-.33,1.39,1.39,0,0,1,1,.39,1.37,1.37,0,0,1,.35,1.06v.21l.24,0a.44.44,0,0,1,.44.46h0a.43.43,0,0,1-.45.4h-.24l-.18,7.46.23,0-.05.66c-.06.22-.34.24-.54.24a1.22,1.22,0,0,1-.26,1A1.47,1.47,0,0,1,66,68Zm-5.57-10.1a6.5,6.5,0,0,0,1.42,4.78,9,9,0,0,0,3.75,2.68Zm.62,0,4.7,6.8c.06-.32.12-.72.18-1.08h0l0-.31-3.77-5.42a6.06,6.06,0,0,1-.73,0A3.1,3.1,0,0,1,61,57.86Zm2.79-.45h0a10.43,10.43,0,0,1-1,.33l3.31,4.75c.09-.55.17-1,.24-1.51l-2.5-3.56Zm2.73-1a5.07,5.07,0,0,0-1.48.5h0c-.21.1-.46.2-.73.31l2.11,3,.09-.59h0c.1-.62.16-1.06.21-1.34l0-.19h-.14a.49.49,0,0,1-.34-.15.43.43,0,0,1,0-.61.44.44,0,0,1,.35-.12h0l.2,0c0-.45,0-.66-.07-.76A.33.33,0,0,0,66.55,56.4Z" transform="translate(0.02)"/><path class="a" d="M62,44h0a.29.29,0,0,1-.18-.1.18.18,0,0,1,0-.14s0,0,0,0a.12.12,0,0,0-.06-.05.12.12,0,0,1-.05-.07s0-.09.08-.14l.07-.09s0,0,0,0h0a.35.35,0,0,1-.22.1c-.08,0-.1-.08-.12-.16a.24.24,0,0,0,0-.08.27.27,0,0,0-.12.09h0a.11.11,0,0,1,0-.11.28.28,0,0,1,.21-.13h0a.18.18,0,0,0,.07,0l.06,0s.07,0,.1.07l.07.08.08,0H62s0,0,0,0h0c-.17,0-.22-.1-.24-.14s0,0,0-.06a.19.19,0,0,1,0-.09.17.17,0,0,0-.14-.09.12.12,0,0,1,.1,0,.21.21,0,0,1,.16.08H62a.14.14,0,0,1,.12.09.21.21,0,0,1,0,.12l0,.08a.26.26,0,0,0,.19.07,1.33,1.33,0,0,0,.48-.14.57.57,0,0,1,.26,0h.22a3.28,3.28,0,0,0,.63-.19,1.2,1.2,0,0,1-.18-.26c0-.05-.06-.09-.07-.09l0,0a.11.11,0,0,0,0,.08l-.07,0a.18.18,0,0,1,0-.1s0,0,0,0h0s-.07,0-.07,0,0,0-.06-.08h0a.37.37,0,0,1-.15,0A.25.25,0,0,1,63,42.3a.22.22,0,0,1,.06-.24.16.16,0,0,0,0,.13.14.14,0,0,0,.12.06.16.16,0,0,0,.17-.15s0,0,0,0h0c-.08,0-.13-.06-.14-.1s0-.11.12-.17v0l0,0a0,0,0,0,1,0,0h-.05l-.1.05h0l0-.05h0a.1.1,0,0,0-.06.11.13.13,0,0,1-.09-.11.11.11,0,0,1,.06-.11.56.56,0,0,1,0-.07.16.16,0,0,1,.17-.11.32.32,0,0,1,.14,0h0s0,0,0-.06l0,0a.18.18,0,0,1-.16,0,.1.1,0,0,1,0-.09v0a.36.36,0,0,1,0-.09s-.08,0-.11,0a.25.25,0,0,1,.16-.06.08.08,0,0,1,.08,0,.11.11,0,0,1,0,.08v0h.07c.1,0,.13.15.14.26h0s0,0,0,0v0s0,0,0,0a.05.05,0,0,1,0,0,.14.14,0,0,1,0-.1h0s0,0,.06-.05a.16.16,0,0,0-.06-.13h0a.2.2,0,0,1,.19.14.79.79,0,0,1,0,.13.6.6,0,0,1-.06.19.53.53,0,0,0-.07.2c0,.16,0,.24.13.34a1.84,1.84,0,0,1,.22.17,2.48,2.48,0,0,1,.15-.64l-.05,0,0,0c.06,0,.1-.1.14-.2a.91.91,0,0,1,.07-.14s-.06,0-.1-.11h0c.05,0,.1-.06.14-.12s.1-.11.15-.11a.37.37,0,0,1,0-.31.28.28,0,0,1,.2.08c0-.07.08-.07.14-.07h0l.1,0h0a.45.45,0,0,1,.25.07.72.72,0,0,1,.25.18.22.22,0,0,1,0,.11s0,0,0,0a.11.11,0,0,1,0,.15.35.35,0,0,1,.21.1.25.25,0,0,1-.19.2c.09.1,0,.27-.1.43a.81.81,0,0,0-.11.27,3.28,3.28,0,0,1,.7-.1A3.11,3.11,0,0,1,67,42a2.27,2.27,0,0,0,.58.1c.76,0,1.25-.18,1.25-.45s-.6-.4-1.25-.44S66,41.12,66,40.56a.49.49,0,0,1,.29-.4.24.24,0,0,1,0-.2,1.42,1.42,0,0,1,.58-.39,1.31,1.31,0,0,0,.5-.34.64.64,0,0,1-.36.58.93.93,0,0,0,.5-.32A1.54,1.54,0,0,1,68.66,39l.28,0a1.86,1.86,0,0,0-1,.57,2.18,2.18,0,0,1-1.46.72h0a.44.44,0,0,0-.2.31c0,.3.52.33,1.13.36.77,0,1.64.1,1.64.73,0,.31-.47.65-1.51.65h0s0,0,0,0a3,3,0,0,1,.5.1.92.92,0,0,0,.28,0h.1c.12,0,.14.06.15.08a0,0,0,0,0,0,0c0,.07,0,.09.07.09a.26.26,0,0,0,.16-.09.21.21,0,0,1-.07.23v.09c0,.06,0,.13.1.13h0a.08.08,0,0,1-.1.08h0a.18.18,0,0,1,.09.13.17.17,0,0,1-.13.18s-.08,0-.08.08,0,.05,0,.07a.17.17,0,0,1,.07.22.16.16,0,0,1-.07.09.26.26,0,0,0,.11.07.17.17,0,0,1-.1,0,.14.14,0,0,1-.13-.1h-.07c-.09,0-.07-.12,0-.22v0a.2.2,0,0,0-.08.13s0,.08-.06.08H68.2c0,.09,0,.13,0,.16a.15.15,0,0,1-.12-.17h0a.09.09,0,0,0-.07,0,.1.1,0,0,1,0-.05c0-.07.1-.16.15-.2h0a.12.12,0,0,1-.1.05.15.15,0,0,1-.15-.14v-.06l-.14.08,0,0a.22.22,0,0,1,.2-.21.12.12,0,0,1,.12-.07l.08,0,.15,0a.08.08,0,0,0,.09,0,.2.2,0,0,0,0-.11.5.5,0,0,1,0-.21.06.06,0,0,0,0,0,.08.08,0,0,0-.07,0h0l-.2,0a.44.44,0,0,0-.25.08s-.05,0-.05,0a.05.05,0,0,0,0,.05s0,0,0,0a.55.55,0,0,1-.18,0,1.34,1.34,0,0,1-.53-.14.3.3,0,0,1,0,.18c0,.05,0,.09,0,.12a.4.4,0,0,1,.13.41s-.09.06-.2.06a.63.63,0,0,1-.19,0h-.11c-.07,0-.07.07-.07.12a.14.14,0,0,1-.1.15h0a.17.17,0,0,1-.16-.1l0,0h0a.11.11,0,0,0-.08,0h0c0,.06,0,.09,0,.09h0l-.05,0s.1.06.14.06a.29.29,0,0,1-.13.05A.18.18,0,0,1,66,44a.08.08,0,0,1,0-.08l0-.08a.08.08,0,0,1,0,0v0s0,0,0,0h0a.07.07,0,0,1,0,.05h-.08a.1.1,0,0,0,0,.07l0,0h-.07a.13.13,0,0,1-.12,0,.1.1,0,0,1,0-.09.12.12,0,0,1,0-.08.14.14,0,0,1,0-.14s.09,0,.14,0,.1,0,.1-.05,0,0,0,0l0,0h-.06a.08.08,0,0,1-.08,0,.08.08,0,0,1,0-.07v-.05a.26.26,0,0,0-.16.09h0a.12.12,0,0,1,0-.13.23.23,0,0,1,.19-.1.2.2,0,0,1,.07-.06h.07c.09,0,.14.08.2.16h0c0,.08.1.16.17.16a.15.15,0,0,0,.09,0l.23-.06h0v0a.7.7,0,0,0-.28-.12.1.1,0,0,1-.1-.07.54.54,0,0,1,0-.45.68.68,0,0,1-.33.13h-.25c-.17,0-.27,0-.3.07a.12.12,0,0,0,0,.13.14.14,0,0,1,0,.14.26.26,0,0,1-.17.09.5.5,0,0,0-.12.08.88.88,0,0,1-.46.21h0c.06,0,0-.11,0-.16v0a.29.29,0,0,1-.24.14h0l-.06,0-.09.06c0,.14-.2.24-.29.24a.21.21,0,0,0,.1-.13s0,0,0,0h0a.43.43,0,0,1-.22.09c-.13,0-.22.06-.24.3a.23.23,0,0,1-.06-.18s0-.05,0-.05-.06.05-.06.06,0-.09,0-.16h0v0h0a.41.41,0,0,1-.19,0l-.11,0s0,0,0,0a.13.13,0,0,0,0-.09.37.37,0,0,1-.24.26.25.25,0,0,0,.06-.26.21.21,0,0,1-.11.1.16.16,0,0,0-.07-.16v0a.23.23,0,0,1-.21.21h0c-.13,0-.16-.17-.17-.2s0,0,0,0,0,0,0,0a.15.15,0,0,0,0,.1c0,.06,0,.13-.09.15h-.07A.18.18,0,0,0,62,44Zm2.8-2.84h0s0,0,0,0a.14.14,0,0,1-.08,0l0,0s.09.07.07.13-.05.06-.11.06-.06,0-.08.1a.16.16,0,0,0,0,.15.12.12,0,0,0,.07.07l.06,0a.15.15,0,0,0,.13-.11h0l0,0s0-.07,0-.1a.08.08,0,0,1,0-.11h0a.05.05,0,0,1,0,0,.17.17,0,0,1,.1,0c0-.05,0-.09,0-.1h0s0,0,0,.07,0,0,0,0h0s0,0,0-.06v0s0-.05-.06-.07l-.26-.13h-.09l0,0h0s0,0,0,0h0Z" transform="translate(0.02)"/><path class="a" d="M59.78,48.5h0a.27.27,0,0,1-.19-.11.2.2,0,0,1-.05-.19v0l0,0s0,0,0,0a.06.06,0,0,1,0-.06s0-.1.09-.16l.09-.11v0h0a.47.47,0,0,1-.26.11c-.1,0-.12-.08-.13-.17s0,0,0,0l0-.06a.22.22,0,0,0-.15.13.15.15,0,0,1,0-.16.25.25,0,0,1,.22-.13h0s0,0,0,0l.09-.05.08,0s.07,0,.11.07l.08.08a.12.12,0,0,0,.09,0,.08.08,0,0,0,.07,0h0s0,0,0,0c-.23-.08-.27-.17-.28-.2a0,0,0,0,1,0-.06.05.05,0,0,0,0,0l0-.06a.25.25,0,0,0-.16-.1h0a.14.14,0,0,1,.12,0,.23.23,0,0,1,.19.07h.1a.31.31,0,0,1,.16.12.58.58,0,0,1,0,.14.17.17,0,0,0,0,.1.24.24,0,0,0,.21.08,1.43,1.43,0,0,0,.57-.16,1.09,1.09,0,0,1,.4,0h.29a.12.12,0,0,0,0-.07.62.62,0,0,1-.09-.32.11.11,0,0,1-.08,0,.3.3,0,0,1-.19-.1l-.16-.1a1.42,1.42,0,0,1-.3-.25s-.07-.08-.09-.08,0,0,0,0a.08.08,0,0,0,0,.08c-.1,0-.13-.09-.13-.17s0,0,0,0a.08.08,0,0,0-.07.08.12.12,0,0,1-.08-.11h0a.35.35,0,0,1-.18,0,.31.31,0,0,1-.26-.15.27.27,0,0,1,0-.3.22.22,0,0,0,0,.17.16.16,0,0,0,.13.06.18.18,0,0,0,.18-.18v0s0,0,0,0a.19.19,0,0,1-.15-.1.23.23,0,0,1,.09-.22,0,0,0,0,0,0,0h0a.09.09,0,0,0-.06,0h0a.27.27,0,0,1-.11.05h0l0,0h0c-.05,0-.05.1-.05.14a.18.18,0,0,1-.1-.14.17.17,0,0,1,.07-.13v-.1a.15.15,0,0,1,.16-.13.29.29,0,0,1,.16,0h0v0a0,0,0,0,1,0,0l0,0a.25.25,0,0,1-.2-.06.14.14,0,0,1,0-.11.5.5,0,0,1,0-.13s-.09,0-.12,0a.21.21,0,0,1,.16-.08.13.13,0,0,1,.14.13h0a.06.06,0,0,1,0,0H60c.1,0,.16.18.19.29v0h0V45s0,0,0,0a.12.12,0,0,1,0-.16l0,0a.07.07,0,0,1,0,0l0-.05a.21.21,0,0,0-.09-.18h0a.26.26,0,0,1,.24.18c0,.05,0,.1,0,.15a1.57,1.57,0,0,1,0,.23.8.8,0,0,0-.05.26c0,.2,0,.29.19.4a2.22,2.22,0,0,1,.33.28l.09.1.11,0H61a.11.11,0,0,0,.08,0h.06l.21.08c0-.1,0-.22,0-.38,0,0-.09,0-.15-.13s.11-.11.16-.23l.08-.18s-.07,0-.11-.12h0c.06,0,.12-.07.17-.14s.11-.13.16-.13a.5.5,0,0,1,0-.36l.06,0a.56.56,0,0,1,.17.09c0-.08.1-.08.16-.08h0l.13,0,.1,0,.21.07a1.67,1.67,0,0,1,.28.18h0s0,.06,0,.1a.14.14,0,0,0,0,.06l0,0c0,.05.07.09,0,.15a.47.47,0,0,1,.26.11.32.32,0,0,1-.21.24c.1.13,0,.34-.15.53a1.48,1.48,0,0,1-.08.13,6.83,6.83,0,0,1,1.19-.1c.7,0,1.46.08,2.06.14.4,0,.75.07,1,.07.52,0,1.28-.07,1.28-.29s-.15-.25-1-.25c-.2,0-.49,0-.82.06a13.36,13.36,0,0,1-1.42.1,2.32,2.32,0,0,1-.87-.11.47.47,0,0,1-.37-.45c0-.4.41-.45.85-.45h.41a.3.3,0,0,1,.08-.08,1.06,1.06,0,0,1,.55-.13c.14,0,.28,0,.41,0h0l.38,0a.85.85,0,0,0,.45-.1c0,.14-.19.32-.79.32a2.58,2.58,0,0,0,.39,0,5.4,5.4,0,0,0,.69-.08h0a3.51,3.51,0,0,1,.65-.09,1.48,1.48,0,0,1,.9.3,1.55,1.55,0,0,0-.37,0,6.26,6.26,0,0,0-1,.11l-.1,0a8.4,8.4,0,0,1-1.23.12,3.19,3.19,0,0,1-.87-.11.36.36,0,0,1-.22-.13H64.7c-.26,0-.53,0-.53.24s.3.3.94.3c.38,0,.84,0,1.28-.07s.73-.06,1-.06c.87,0,1.32.18,1.32.52s-.93.53-1.6.53l.48,0a2.09,2.09,0,0,0,.43,0h.22a.11.11,0,0,1,.13.09h0a.09.09,0,0,0,.09.09h0a.35.35,0,0,0,.19-.1c0,.13,0,.21-.09.25a0,0,0,0,0,0,.05v.07c0,.08,0,.16.12.16h0a.1.1,0,0,1-.12.08h0v0a.15.15,0,0,1,.1.15.19.19,0,0,1-.15.21s-.08,0-.08.08,0,.05.06.08a.21.21,0,0,1,.08.25l-.07.12s.08.07.11.09a.21.21,0,0,1-.12,0,.19.19,0,0,1-.16-.11.11.11,0,0,0-.08,0c-.1,0-.07-.2,0-.3v0h0a.26.26,0,0,0-.09.16c0,.06,0,.1-.08.1h-.08c-.05.11-.05.14,0,.21a.22.22,0,0,1-.14-.22.19.19,0,0,1-.09,0,.06.06,0,0,1,0-.06c0-.06.1-.17.18-.21v0h0a.21.21,0,0,1-.13.05.18.18,0,0,1-.17-.17v0a.36.36,0,0,0-.21.11.28.28,0,0,1,.23-.25.17.17,0,0,1,.14-.07l.11,0,.17,0a.11.11,0,0,0,.1,0,.2.2,0,0,0,0-.13.65.65,0,0,1,0-.24c0-.09,0-.1-.09-.12H67.9l-.19,0a.6.6,0,0,0-.29.08h0a1.2,1.2,0,0,1-.78.19,1.69,1.69,0,0,1-.54-.12l-.08,0a.29.29,0,0,1,0,.2s0,.1.05.12a.48.48,0,0,1,.15.49s-.1.06-.22.06l-.24,0h-.12c-.08,0-.08.07-.08.13a.16.16,0,0,1-.12.18h-.06a.27.27,0,0,1-.19-.11s0,0-.06,0a.11.11,0,0,1-.08,0s0,0,0,0a.35.35,0,0,1,0,.13l-.09,0c0,.07.14.09.18.09a.3.3,0,0,1-.15.05.2.2,0,0,1-.15-.06.25.25,0,0,1,0-.12s0-.08,0-.1v-.06s0,0,0,0,0,0,0,0,0,0,0,0h-.08s.06.1.09.12h-.09a.16.16,0,0,1-.13-.06.1.1,0,0,1,0-.1.25.25,0,0,1,0-.26s.12,0,.19,0,.12,0,.12-.05,0,0,0,0l-.07,0h-.06a.1.1,0,0,1-.1,0,.08.08,0,0,1,0-.08v-.06a.32.32,0,0,0-.2.12.18.18,0,0,1,.05-.16.32.32,0,0,1,.21-.13l.09-.05.08,0c.1,0,.16.09.23.19h0c.06.09.12.17.2.17a.15.15,0,0,0,.1,0,1.31,1.31,0,0,1,.27-.06h0s0,0,0,0a.55.55,0,0,0-.33-.12.16.16,0,0,1-.11-.1.62.62,0,0,1,0-.5.82.82,0,0,1-.34.16,2.3,2.3,0,0,0-.45,0,.63.63,0,0,0-.61.29l0,0a.48.48,0,0,1-.47.26h-.11a1,1,0,0,0-.21,0h-.08a1.15,1.15,0,0,1-.78.59H62a.21.21,0,0,0,.11-.15v0h0s0,0,0,0a.82.82,0,0,1-.26.1c-.16,0-.26.05-.29.35a.31.31,0,0,1-.07-.21s0-.06,0-.06-.07.06-.07.08a.18.18,0,0,1,0-.16v0h0l-.19,0a.39.39,0,0,1-.15,0l0,0h0a.18.18,0,0,0-.07-.1.51.51,0,0,1-.24.28l0,0a.29.29,0,0,0,.06-.32.21.21,0,0,1-.13.13.15.15,0,0,0-.08-.17h0a0,0,0,0,0,0,0,.25.25,0,0,1-.22.24h0c-.15,0-.19-.15-.2-.23a0,0,0,0,0,0,0h0s0,.05,0,.1a.23.23,0,0,1-.12.18h-.08a.3.3,0,0,0,.09.25Zm2.33-3h0a.09.09,0,0,1,0,.05.12.12,0,0,1-.08,0h0s.11.07.08.15a.11.11,0,0,1-.12.08s-.06,0-.08.09v0a.18.18,0,0,0,0,.16.18.18,0,0,0,.07.08l.08,0a.2.2,0,0,0,.15-.12v0c0-.06,0-.12,0-.16s-.08-.08,0-.14a.08.08,0,0,1,.07,0,.23.23,0,0,1,.11,0h0a.17.17,0,0,1,0-.12h0s0,0,0,.08,0,0,0,0h0a.08.08,0,0,0,0-.07v0a0,0,0,0,0,0,0l0,0-.31-.15h-.1l0,0s0,0,0,0h.1Zm.44-.22a.29.29,0,0,0,.06.22.14.14,0,0,0,.08,0,.12.12,0,0,0,.1,0,.25.25,0,0,1,.16-.06A1.55,1.55,0,0,1,62.55,45.24ZM62,44.92h0a.37.37,0,0,1,0,.18.11.11,0,0,0,0,.1.13.13,0,0,0,.1,0,.21.21,0,0,0,.15-.11A1.15,1.15,0,0,1,62,44.92Z" transform="translate(0.02)"/><path class="a" d="M64.56,52.7a.2.2,0,0,1-.15-.06.1.1,0,0,1,0-.09.27.27,0,0,1,0-.12v0s0,0,0,0,0,0,0,0v0a0,0,0,0,0,0,0h0a.09.09,0,0,1,0,.07l-.09,0c0,.05.05.1.09.12h-.09a.13.13,0,0,1-.11-.05.13.13,0,0,1,0-.12.13.13,0,0,1-.06-.07.18.18,0,0,1,0-.16.24.24,0,0,1,.17-.06c.06,0,.11,0,.11,0a0,0,0,0,0,0,0l-.06,0a.09.09,0,0,1-.07,0,.09.09,0,0,1-.09,0,.06.06,0,0,1,0-.06v-.06a.36.36,0,0,0-.2.11.16.16,0,0,1,0-.14.3.3,0,0,1,.21-.12l0,0a.12.12,0,0,1,0,0l.08,0c.1,0,.17.1.22.18h0c.06.09.11.17.2.17a.19.19,0,0,0,.1,0,.83.83,0,0,1,.21-.06h0l0,0v0a.85.85,0,0,0-.31-.13.15.15,0,0,1-.13-.1.42.42,0,0,1,0-.39l0,0a.29.29,0,0,1-.16.07,3,3,0,0,0-.41,0,1.19,1.19,0,0,0-.91.27l0,0a.9.9,0,0,1-.71.26,2.6,2.6,0,0,1-.4,0h0s0,0-.08,0,0,0,0,0a.25.25,0,0,1-.21.08h-.08l-.07,0s0,0,0,0,0,.06,0,.08l-.43.19h0a.56.56,0,0,1-.29.12h0a.25.25,0,0,0,.13-.14v0l0,0a.84.84,0,0,1-.35.07c-.22,0-.43,0-.45.29A.28.28,0,0,1,60,52.5s0-.07,0-.07-.07.06-.07.08a.47.47,0,0,1,0-.17s0,0,0,0h0l-.21,0-.13,0a0,0,0,0,1,0,0,.14.14,0,0,0,0-.08.39.39,0,0,1-.26.28.28.28,0,0,0,.07-.3.22.22,0,0,1-.12.11c0-.06,0-.11-.09-.16h0a.23.23,0,0,1,0,.16.21.21,0,0,1-.17.08h0c-.16,0-.17-.15-.18-.2s0,0,0,0h0a.16.16,0,0,0,0,.11.19.19,0,0,1-.1.16h0l-.06,0a.23.23,0,0,0,.1.24h0a.26.26,0,0,1-.17-.09.21.21,0,0,1,0-.17h0v0a.18.18,0,0,0-.07,0,.11.11,0,0,1-.06-.07.27.27,0,0,1,.09-.15.4.4,0,0,0,.1-.12v0h0a.53.53,0,0,1-.24.11c-.09,0-.12-.09-.13-.17s0,0,0,0,0,0,0,0a.2.2,0,0,0-.15.12.14.14,0,0,1,0-.15.2.2,0,0,1,.18-.12h.07l0,0a.05.05,0,0,1,0,0l.06,0s.07,0,.11.08l.08.09.08,0,.07,0s0,0,0,0l0,0c-.19-.07-.24-.13-.26-.17a.09.09,0,0,1,0-.07l.05-.08a.24.24,0,0,0-.18-.13.17.17,0,0,1,.12,0,.19.19,0,0,1,.17.07h.12s.1.05.14.11a1.12,1.12,0,0,1,0,.13.19.19,0,0,0,0,.08.28.28,0,0,0,.23.09,1.17,1.17,0,0,0,.51-.16,1.87,1.87,0,0,1,.53,0h.26a.23.23,0,0,0,0-.11.9.9,0,0,1-.07-.27s-.08-.07-.08-.09a.2.2,0,0,1-.17.09h0a1.59,1.59,0,0,1-.54-.49s-.07-.08-.08-.08l0,0a.17.17,0,0,0,0,.1.18.18,0,0,1-.14-.17v0s-.06,0-.06,0a.09.09,0,0,1-.09-.07s0,0,0,0h0a.34.34,0,0,1-.17,0,.31.31,0,0,1-.26-.15.28.28,0,0,1,0-.29.24.24,0,0,0,.07.18.16.16,0,0,0,.13.06.16.16,0,0,0,.16-.16h0s0,0,0,0a.15.15,0,0,1-.15-.11.19.19,0,0,1,.08-.2,0,0,0,0,0,0,0h0l0,0h-.06a.21.21,0,0,1-.13,0l0,0,0,0h0s0,.08,0,.12v0a.21.21,0,0,1-.1-.14.16.16,0,0,1,.06-.13v-.07a.14.14,0,0,1,.14-.14h0a.29.29,0,0,1,.16,0,0,0,0,0,0,0,0v0s0,0,0-.05,0,0,0,0-.22-.05-.21-.17a.61.61,0,0,1,0-.13l-.07,0h0a.17.17,0,0,1,.13-.07.15.15,0,0,1,.14.15h0v0h.07c.09,0,.15.18.2.3h0s0,0,0,0v-.11a.12.12,0,0,1-.05-.09.1.1,0,0,1,0-.07.23.23,0,0,1,.07-.1.23.23,0,0,0-.1-.16h0A.26.26,0,0,1,59,49a.29.29,0,0,0,0,.09.13.13,0,0,1,0,.06.58.58,0,0,1,0,.23,2.23,2.23,0,0,0,0,.23c0,.2,0,.28.2.39a1.55,1.55,0,0,1,.27.24c.09.09.16.16.24.17h.16a.22.22,0,0,0,.14,0l.09,0c0-.09,0-.19,0-.29a.22.22,0,0,1-.09-.1c.07,0,.11-.1.15-.21a.89.89,0,0,1,.08-.17s-.07,0-.1-.14h0s.1-.06.15-.12.11-.13.16-.13a.38.38,0,0,1,0-.33.3.3,0,0,1,.21.1c0-.09.1-.09.16-.09H61L61,49h0l.05,0a1,1,0,0,1,.23.06l.23.15,0,0a.14.14,0,0,0,0,.06c0,.05,0,.11,0,.11s.09.11,0,.15a.55.55,0,0,1,.24.12.32.32,0,0,1-.21.24c.1.12,0,.31-.12.49a1.62,1.62,0,0,0-.1.18,6,6,0,0,1,1.52-.15c.85,0,1.82.08,2.53.14.44,0,.78.07,1,.07.43,0,1.24-.06,1.24-.29s-.16-.23-1-.23c-.17,0-.46,0-.79.06-.52,0-1.17.1-1.76.1a4.36,4.36,0,0,1-1.08-.11c-.3-.09-.45-.24-.45-.44,0-.38.53-.43,1.1-.43h.88l.09-.06a1,1,0,0,1,.53-.11,5.27,5.27,0,0,1,.56,0h0l.54,0a.76.76,0,0,0,.44-.09c0,.17-.59.26-1.12.26a1.34,1.34,0,0,0,.35,0,3,3,0,0,0,.72-.09h0a3.61,3.61,0,0,1,.65-.08,1,1,0,0,1,.74.27,1.41,1.41,0,0,0-.45-.07,5.62,5.62,0,0,0-1,.15l-.06,0a6,6,0,0,1-1.19.16,2.82,2.82,0,0,1-.65-.08.28.28,0,0,1-.2-.15l-.42,0-.58,0c-.32,0-.7,0-.7.24s.4.28,1.23.28c.51,0,1.1,0,1.62-.06s.76,0,1,0c.86,0,1.26.15,1.26.47s-1.07.48-1.53.5l.5.06a1.87,1.87,0,0,0,.34,0h.23a.15.15,0,0,1,.14.1h0c0,.08,0,.1.09.1a.27.27,0,0,0,.17-.1.25.25,0,0,1-.09.24h0v0a.22.22,0,0,0,0,.08c0,.07,0,.14.11.14h0s-.07.06-.12.07h0a.26.26,0,0,1,.12.15.18.18,0,0,1-.14.2s-.09,0-.09.1,0,0,0,.07a.19.19,0,0,1,.07.25.21.21,0,0,1-.06.1.16.16,0,0,0,.12.08.21.21,0,0,1-.11,0,.15.15,0,0,1-.15-.1l-.08,0c-.09,0-.08-.18,0-.27v0h0a.31.31,0,0,0-.08.15c0,.06,0,.11-.07.11h-.08c0,.1,0,.13,0,.17a.18.18,0,0,1-.14-.22l-.07,0a.09.09,0,0,1-.06-.06c0-.07.09-.15.16-.21s0,0,0,0h0a.17.17,0,0,1-.12,0,.16.16,0,0,1-.16-.16s0,0,0,0a.27.27,0,0,0-.14.07l0,0a.27.27,0,0,1,.22-.24.15.15,0,0,1,.14-.06h.09l.17,0a.13.13,0,0,0,.1,0,.2.2,0,0,0,0-.13.6.6,0,0,1,0-.23s0-.09-.09-.11h-.2a.53.53,0,0,0-.32.08,1.16,1.16,0,0,1-.73.18,1.52,1.52,0,0,1-.51-.12l-.08,0a.31.31,0,0,1,0,.19s0,.1,0,.13a.43.43,0,0,1,.15.46s-.12.06-.26.06l-.17,0h-.13c-.07,0-.07.07-.07.12a.14.14,0,0,1-.11.16H65a.15.15,0,0,1-.16-.11l0,0h-.1s0,0,0,0a.11.11,0,0,1,0,.11l-.09,0s.11.06.16.07h0A.23.23,0,0,1,64.56,52.7Zm-3.77-2.84h0a0,0,0,0,1,0,0s0,0-.1.05l0,0c.06,0,.12.07.09.14s0,.07-.13.07,0,0-.07.09l0,0a.18.18,0,0,0,.06.24l.06,0a.21.21,0,0,0,.16-.13c0-.08,0-.14,0-.15a.1.1,0,0,1,0-.14h0a.05.05,0,0,1,.06,0h.1s0-.08,0-.1h0s.06,0,.07.06,0,0,0,0,0-.07,0-.08h0a.13.13,0,0,0,0-.09h0l-.3-.13h0l-.06,0,0,0h0s-.05.05,0,.07h.09Z" transform="translate(0.02)"/><path class="a" d="M80.83,59a.16.16,0,0,1-.13-.06.12.12,0,0,1,0-.1.3.3,0,0,1,0-.1.06.06,0,0,1,0,0,0,0,0,0,1,0,0s0,0,0,0h0s0,0,0,0,0,.05,0,.05a.08.08,0,0,1-.07,0c0,.05.05.1.08.12l-.1,0a.13.13,0,0,1-.14-.12,0,0,0,0,1,0,0,.41.41,0,0,1,0-.09h0a.16.16,0,0,1,0-.15s.1,0,.17,0,.11,0,.11,0a0,0,0,0,0,0,0,.05.05,0,0,0,0,0l-.07,0c-.1,0-.12-.06-.12-.1v-.06a.24.24,0,0,0-.19.11.18.18,0,0,1,.05-.16.28.28,0,0,1,.2-.12l.05,0,0,0,.06,0c.1,0,.17.1.23.19h0c.06.09.11.17.2.17a.19.19,0,0,0,.1,0,.46.46,0,0,1,.26-.07v0h0a.84.84,0,0,0-.31-.12.16.16,0,0,1-.12-.11.64.64,0,0,1,0-.47l-.06.07c0,.05-.08.1-.14.1a3.32,3.32,0,0,0-.43,0,1.15,1.15,0,0,0-.89.27l0,0a.91.91,0,0,1-.7.25l-.42,0h0s-.06,0-.08.06l0,0a.22.22,0,0,1-.2.1h0c-.13,0-.28,0-.28.07s-.28.34-.42.34l-.06,0a.2.2,0,0,0,.12-.13s0,0,0,0h0a.58.58,0,0,1-.25.09c-.14,0-.25.06-.28.33a.28.28,0,0,1-.06-.18s0-.07,0-.07-.06.06-.06.08a.16.16,0,0,1,0-.16v0h0a.55.55,0,0,1-.18,0,.32.32,0,0,1-.14,0l0,0a.17.17,0,0,0-.06-.1.48.48,0,0,1-.26.3.3.3,0,0,0,.06-.3.43.43,0,0,1-.11.12.15.15,0,0,0-.09-.17h0a.17.17,0,0,1,0,.14.21.21,0,0,1-.18.09h0c-.14,0-.17-.13-.18-.21s0,0,0,0h0s0,.06-.06.11,0,.14-.1.16h0l-.06,0h0a.26.26,0,0,0,.11.24h0a.31.31,0,0,1-.18-.09.25.25,0,0,1-.05-.19,0,0,0,0,1,0,0h0l0,0a.08.08,0,0,1,0-.07s0-.1.08-.15l.08-.1v0h0a.51.51,0,0,1-.24.1c-.09,0-.12-.08-.13-.17a.19.19,0,0,1,0-.07v0a.18.18,0,0,0-.14.14.17.17,0,0,1,0-.17.23.23,0,0,1,.2-.12h0l0,0h0l.06,0a.14.14,0,0,1,.11.07l.08.08a.12.12,0,0,0,.09,0h.07v0l0,0a.47.47,0,0,1-.25-.17.14.14,0,0,1,0-.09.2.2,0,0,0,0-.08.21.21,0,0,0-.16-.11.2.2,0,0,1,.11,0,.28.28,0,0,1,.18.06h.11a.26.26,0,0,1,.14.11.78.78,0,0,1,0,.14.36.36,0,0,0,0,.09.22.22,0,0,0,.2.08,1.3,1.3,0,0,0,.53-.16.57.57,0,0,1,.22,0h.32s0,0,0,0a.45.45,0,0,1-.14-.33l0,0a.24.24,0,0,1-.14-.17l-.1.06c-.07,0-.13.06-.13.08a1.47,1.47,0,0,1-.5-.49c0-.06-.08-.1-.1-.1h0a.14.14,0,0,0,0,.09c-.08,0-.12-.07-.13-.17v0a0,0,0,0,0,0,0s-.06.05-.06.07h0s-.06,0-.08-.09a0,0,0,0,0,0,0s0,0,0,0a.39.39,0,0,1-.18,0,.28.28,0,0,1-.26-.14.27.27,0,0,1,0-.29.23.23,0,0,0,.06.16.2.2,0,0,0,.14.06.16.16,0,0,0,.16-.16h0a0,0,0,0,0,0,0h0a.18.18,0,0,1-.15-.11.2.2,0,0,1,.08-.21s0,0,0,0l-.06,0h0l-.11.05s0,0,0,0a.1.1,0,0,1-.05,0h0c-.07,0,0,.11,0,.14a.16.16,0,0,1-.1-.14.09.09,0,0,1,0-.11.11.11,0,0,1,0-.08.14.14,0,0,1,.14-.14h0l.16,0h0a.07.07,0,0,1,0,0,0,0,0,0,0,0,0,.24.24,0,0,1-.18,0,.13.13,0,0,1,0-.12.2.2,0,0,1,0-.11.17.17,0,0,0-.12,0,.22.22,0,0,1,.15-.08.15.15,0,0,1,.13.14s0,0,0,0h.08c.1,0,.17.18.2.29v0h0s0,0,0,0a.11.11,0,0,0,0-.08l0,0a.13.13,0,0,1,0-.16s0,0,0,0l0,0a.23.23,0,0,0-.1-.16h0a.26.26,0,0,1,.21.17l0,.14a.59.59,0,0,1,0,.23,1.8,1.8,0,0,0,0,.22c0,.2,0,.29.19.39a1.61,1.61,0,0,1,.28.24c.09.09.15.16.23.17H76l.08,0h.15l.16.06s0-.11,0-.16a.5.5,0,0,1,0-.12.36.36,0,0,1-.16-.14c.07,0,.11-.09.16-.2a1,1,0,0,1,.09-.17s-.08-.05-.13-.13h0c.06,0,.11-.06.16-.12s.11-.12.17-.12a.37.37,0,0,1,0-.34.31.31,0,0,1,.22.09c0-.07.09-.07.16-.07h0l.12,0h0a.64.64,0,0,1,.28.06,1.12,1.12,0,0,1,.29.19.51.51,0,0,1,0,.1.09.09,0,0,0,0,.07s.08.11,0,.16a.57.57,0,0,1,.23.12.32.32,0,0,1-.21.24c.1.11,0,.29-.11.46a.88.88,0,0,0-.12.21,6,6,0,0,1,1.58-.15c.84,0,1.79.07,2.49.12.44,0,.78.07,1,.07s1.23,0,1.23-.28-.16-.24-1-.24c-.17,0-.46,0-.79.06-.52,0-1.17.1-1.76.1a3.86,3.86,0,0,1-1.07-.11c-.3-.09-.46-.24-.46-.43,0-.38.57-.43,1.13-.43H81a.15.15,0,0,1,.09-.06,1,1,0,0,1,.53-.12,5.27,5.27,0,0,1,.56,0h0c.19,0,.37,0,.53,0a.85.85,0,0,0,.45-.09c0,.15-.61.26-1.12.26a1.58,1.58,0,0,0,.38,0,3.57,3.57,0,0,0,.73-.1h0a3.57,3.57,0,0,1,.72-.1,1.66,1.66,0,0,1,.62.11.84.84,0,0,0-.27,0,4.39,4.39,0,0,0-1,.2l-.1,0a5.45,5.45,0,0,1-1.33.23,2.41,2.41,0,0,1-.6-.08c-.1,0-.18-.07-.2-.13l-.47,0-.59,0c-.45,0-.64.06-.64.22s.41.3,1.25.3c.51,0,1.1,0,1.61-.06s.74-.05,1-.05c.86,0,1.26.15,1.26.47s-1,.43-1.54.47c0,0,0,0,0,0s0,0,0,0l.53,0a2.83,2.83,0,0,0,.41,0l.17,0h0c.12,0,.13.09.13.1s0,.09.07.09a.3.3,0,0,0,.19-.1.29.29,0,0,1-.1.25s0,0,0,0a.09.09,0,0,1,0,.07.12.12,0,0,0,0,.12.07.07,0,0,0,.08,0h0a.15.15,0,0,1-.13.07h0a.16.16,0,0,1,.08.15.19.19,0,0,1-.15.19s-.09,0-.09.08,0,.05.05.08a.2.2,0,0,1,0,.25s0,0,0,.05l0,.06s0,0,.08.07h0a.2.2,0,0,1-.11,0,.15.15,0,0,1-.15-.1l-.06,0a.07.07,0,0,1-.06,0,.32.32,0,0,1,0-.25h0a.24.24,0,0,0-.09.14c0,.06,0,.12-.1.12h-.07a.18.18,0,0,0,0,.19.2.2,0,0,1-.13-.21l-.06-.05s0,0,0,0,.1-.15.17-.2h0a0,0,0,0,0,0,0,0,0,0,0,0,0,0h0a.17.17,0,0,1-.12,0,.18.18,0,0,1-.1,0,.12.12,0,0,1,0-.11v-.06a.34.34,0,0,0-.15.06l-.06,0c0-.11.13-.2.25-.24h0a.16.16,0,0,1,.1,0h0l.13,0h.13a.12.12,0,0,0,.11,0,.21.21,0,0,0,0-.11.85.85,0,0,1,0-.23c0-.08,0-.1-.06-.11h-.07l-.16,0a.55.55,0,0,0-.3.09,1.33,1.33,0,0,1-.78.16,2,2,0,0,1-.59-.12.26.26,0,0,1,.05.17c0,.06,0,.1,0,.13a.42.42,0,0,1,.16.45c0,.06-.17.07-.25.07l-.18,0h-.13c-.07,0-.07,0-.08.11a.14.14,0,0,1-.1.16l-.08,0a.18.18,0,0,1-.16-.1v0l0,0H81s0,0,0,0,0,.1,0,.11l-.09,0c0,.06.1.08.18.08A.2.2,0,0,1,80.83,59ZM77,56.44s-.06,0-.09.08l0,0a.17.17,0,0,0,.07.23.07.07,0,0,0,.06,0,.17.17,0,0,0,.16-.11.24.24,0,0,0,0-.15c-.06-.06-.06-.09,0-.15a0,0,0,0,1,0,0,.45.45,0,0,1,.11,0h0c0-.06,0-.08,0-.1h0a.13.13,0,0,1,.05.07s0,0,0,0h0s0,0,0-.07v0s0,0,0-.06v0l-.3-.14H77s0,0,0,0h0s0,0,0,0,0,0,0,0h.1a.08.08,0,0,1,0,0s-.07,0-.08,0h0s.1.08.07.13,0,.07-.08.07Zm.48-.52a.22.22,0,0,0,0,.19.12.12,0,0,0,.1.06.08.08,0,0,0,.08,0,.24.24,0,0,1,.16-.07A2,2,0,0,1,77.5,55.92Z" transform="translate(0.02)"/><path class="a" d="M74.72,63h0a.26.26,0,0,1-.17-.09.23.23,0,0,1-.07-.17l0,0a.18.18,0,0,1-.07-.05.1.1,0,0,1,0-.06s0-.1.08-.15a1,1,0,0,1,.08-.11h0a.66.66,0,0,1-.24.11c-.08,0-.11-.08-.12-.16s0-.06,0-.08a.19.19,0,0,0-.14.11.17.17,0,0,1,0-.14.3.3,0,0,1,.21-.13h.06l.06,0,.07,0s.06,0,.1.07l.07.09a.14.14,0,0,0,.09,0h0s0,0,0,0h0c-.2-.08-.26-.14-.27-.18a.07.07,0,0,1,0,0v0l0-.06a.16.16,0,0,0-.15-.12.24.24,0,0,1,.12,0,.17.17,0,0,1,.16.07h.11a.27.27,0,0,1,.18.22.11.11,0,0,0,0,.08.25.25,0,0,0,.2.09,1.23,1.23,0,0,0,.49-.16.91.91,0,0,1,.23,0h.29a.38.38,0,0,0,0-.15,1.22,1.22,0,0,1,0-.27l-.21,0a.18.18,0,0,1-.12-.12.82.82,0,0,0-.26-.1l-.06,0h-.06a.21.21,0,0,0,0,.11c-.06,0-.11-.08-.12-.18v0h0s0,0,0,0-.08,0-.1-.1h0a.33.33,0,0,1-.17,0,.29.29,0,0,1-.25-.14.26.26,0,0,1,0-.27.19.19,0,0,0,.05.16.21.21,0,0,0,.13,0c.07,0,.15,0,.15-.18a0,0,0,0,0,0,0,.16.16,0,0,1-.14-.08.21.21,0,0,1,.07-.21h0s0,0,0,0h0l0,0s0,0-.05,0h0l-.1,0s0,0,0,0a.1.1,0,0,1,0,0h0s0,.06,0,.09v0a.17.17,0,0,1-.1-.12.12.12,0,0,1,0-.1.33.33,0,0,1,0-.1.13.13,0,0,1,.14-.12l.15,0h0v0s0,0,0,0a.28.28,0,0,1-.18-.06.19.19,0,0,1,0-.12.56.56,0,0,1,0-.12l-.06,0,0,0a.19.19,0,0,1,.13-.07.12.12,0,0,1,.11.14h.08c.09,0,.14.14.18.25v0h0s0,0,0,0v0s0,0,0,0,0-.11,0-.16,0-.05.07-.08a.2.2,0,0,0-.1-.15h0a.27.27,0,0,1,.21.15v0l0,.1a1,1,0,0,1,0,.24,1.7,1.7,0,0,0,0,.22c0,.17,0,.27.19.37a.93.93,0,0,0,.4.12H76l.11,0a1,1,0,0,1,.06-.34l0,0,0-.06c.06,0,.1-.1.14-.19a.75.75,0,0,1,.08-.18s-.07-.05-.1-.12h0s.1-.06.14-.12.1-.12.15-.12a.44.44,0,0,1,0-.32.38.38,0,0,1,.21.07c0-.06.08-.06.15-.06h.19a.78.78,0,0,1,.25.07.72.72,0,0,1,.25.18.15.15,0,0,1,.05.09s0,.05,0,.05h0s.07.09,0,.15a.67.67,0,0,1,.23.1.38.38,0,0,1-.19.24c.09.1,0,.28-.11.45a.57.57,0,0,0-.08.13,4.66,4.66,0,0,1,1-.09c.65,0,1.34.07,1.89.12.36,0,.67.07.86.07.42,0,1.29-.07,1.29-.26v0a.18.18,0,0,0,0-.12s-.22-.07-.64-.07c-.18,0-.43,0-.73.06s-.86.08-1.29.09a2.42,2.42,0,0,1-.8-.11.45.45,0,0,1-.33-.41c0-.34.34-.4.85-.4H80l.07,0a1.08,1.08,0,0,1,.53-.11l.52,0a4.77,4.77,0,0,0,.5,0,.8.8,0,0,0,.43-.09c0,.15-.57.24-1.08.24a2.33,2.33,0,0,0,.37,0,3.28,3.28,0,0,0,.7-.1,3.84,3.84,0,0,1,.68-.09,1.78,1.78,0,0,1,.61.11.73.73,0,0,0-.25,0,4.65,4.65,0,0,0-1,.2l-.1,0a5.05,5.05,0,0,1-1.27.22,2.25,2.25,0,0,1-.58-.07.36.36,0,0,1-.21-.15h0l-.41,0c-.21,0-.42,0-.42.21s.29.28.9.28c.35,0,.75,0,1.13-.06s.65,0,.88,0c.9,0,.94.16.94.44s-1.09.41-1.56.44l0,0h0l.38,0c.21,0,.42.05.64.06h.22a.11.11,0,0,1,.08,0,.14.14,0,0,1,0,.06.07.07,0,0,0,0,.06l.06,0a.42.42,0,0,0,.18-.08.29.29,0,0,1-.13.22s0,0,0,.05,0,0,0,.08a.17.17,0,0,0,0,.1l.07,0h0a.13.13,0,0,1-.13.08h0a.1.1,0,0,1,0,0,.11.11,0,0,1,0,.11.22.22,0,0,1-.16.16s-.1,0-.11.1,0,0,0,.07.08.09,0,.23l0,0,0,.06s0,.05.06.07h0l-.12,0a.1.1,0,0,1-.12-.09h0a.08.08,0,0,0-.07,0s0,0,0,0a.31.31,0,0,1,.06-.23h0a.24.24,0,0,0-.11.13c0,.06,0,.11-.1.11h-.07c-.07.08-.07.11-.07.16a.09.09,0,0,1,0,0,.18.18,0,0,1,0-.16.2.2,0,0,0-.08,0,.07.07,0,0,1,0-.05c0-.07.13-.15.21-.2h0s0,0,0,0h0a.21.21,0,0,1-.13,0,.11.11,0,0,1-.11-.15v0a.32.32,0,0,0-.2.1.37.37,0,0,1,.27-.24l.13-.05.1,0,.15,0a.1.1,0,0,0,.1,0,.21.21,0,0,0,0-.11.65.65,0,0,1,.07-.21.07.07,0,0,0,0-.09.05.05,0,0,0-.05,0,.64.64,0,0,0-.2,0,.56.56,0,0,0-.3.08,1.52,1.52,0,0,1-.81.17,1.19,1.19,0,0,1-.56-.14.27.27,0,0,1,0,.19s0,.09,0,.12a.34.34,0,0,1,.15.22.41.41,0,0,1,0,.22.28.28,0,0,1-.2.05l-.22,0h-.1c-.08,0-.08.06-.08.11a.16.16,0,0,1-.11.16h-.07a.15.15,0,0,1-.15-.11l0,0s0,0,0,0H79.5c0,.07,0,.1,0,.12l0,0h0c0,.07.12.07.15.07a.19.19,0,0,1-.13.05.24.24,0,0,1-.14-.05.19.19,0,0,1,0-.1s0-.1,0-.1,0,0,0,0v0s0,0,0,0,0,0,0,0,0,0,0,0h-.08s0,.1.08.11l-.08,0a.16.16,0,0,1-.11,0,.19.19,0,0,1,0-.1l-.06-.09a.2.2,0,0,1,0-.15.21.21,0,0,1,.17,0c.06,0,.1,0,.1,0s0,0,0,0l0,0h-.06a.1.1,0,0,1-.1,0,0,0,0,0,1,0-.05.13.13,0,0,1,0-.06.31.31,0,0,0-.19.09.12.12,0,0,1,0-.13.27.27,0,0,1,.18-.11h0l.06-.05h.08c.09,0,.15.08.21.17h0c0,.08.1.15.17.15a.17.17,0,0,0,.1,0,.69.69,0,0,1,.25,0v0h0v0a.81.81,0,0,0-.3-.13.18.18,0,0,1-.1-.09.56.56,0,0,1,0-.44.6.6,0,0,1-.28.13h0a1.75,1.75,0,0,0-.4,0,.53.53,0,0,0-.53.24v0a.42.42,0,0,1-.43.23h-.09s0,0-.06.05l0,0a.22.22,0,0,1-.2.08h0c.08,0,.07-.06,0-.11a.14.14,0,0,1-.07.08c-.06.15-.27.44-.49.44a.23.23,0,0,1-.14,0,.21.21,0,0,0,.11-.13v0h0a.69.69,0,0,1-.25.1c-.17.05-.32.09-.34.35a.25.25,0,0,1-.08-.18s0-.07,0-.07-.07.07-.07.1a.22.22,0,0,1,0-.18h0a.58.58,0,0,1-.19,0h-.13l0,0,0,0a.37.37,0,0,1-.25.28c.14-.15.08-.25.06-.28a.38.38,0,0,1-.11.11.14.14,0,0,0-.07-.16h0a.17.17,0,0,1,0,.12.27.27,0,0,1-.18.1.2.2,0,0,1-.19-.19v0h0a0,0,0,0,0,0,0,.12.12,0,0,0,0,.1.18.18,0,0,1-.1.15h-.08a.27.27,0,0,0,.08.22Zm2.06-2.75,0,0s0,0,0,0,0,0-.08.07h0c.06,0,.12.07.09.14s0,.06-.11.06-.06,0-.09.1,0,.19,0,.22l.07,0a.16.16,0,0,0,.15-.11s0,0,0,0,0-.08,0-.1-.06-.08,0-.14a.05.05,0,0,1,0,0l0,0h0l0,0c0-.06,0-.09,0-.1h0s0,0,0,.06,0,0,0,0,0-.06,0-.08h0a.09.09,0,0,0-.06-.09l-.28-.13,0,0,0,0h0s0,0,0,.06h0Z" transform="translate(0.02)"/><path class="a" d="M77.5,67.7a.21.21,0,0,1-.14-.07.08.08,0,0,1,0-.08s0-.07,0-.09l0,0a0,0,0,0,0,0,0s0,0,0,0l0,0s0,0,0,0,0,0,0,0h-.06s0,.08.07.09l-.08,0a.15.15,0,0,1-.1,0,.1.1,0,0,1,0-.1v0a.07.07,0,0,1,0-.06.12.12,0,0,1,0-.13s.1,0,.16,0,.1,0,.1,0,0-.06,0-.06l0,0-.06,0c-.09,0-.1,0-.1-.09V67a.27.27,0,0,0-.17.1.17.17,0,0,1,0-.14.21.21,0,0,1,.17-.09h0s0,0,0,0l0,0h.06c.09,0,.14.07.2.16h0c0,.07.1.15.17.15l.09,0a.59.59,0,0,1,.23,0h0s0,0,0,0h0a.69.69,0,0,1-.29-.42.76.76,0,0,1,.11-.44,1,1,0,0,0-.4.14,1.06,1.06,0,0,1-.39.13h-.08a1.43,1.43,0,0,1-.19.57.11.11,0,0,0,0,.07c0,.14-.27.26-.36.26a.26.26,0,0,0,.1-.13h0a.92.92,0,0,1-.23.09c-.13,0-.22.05-.24.29a.28.28,0,0,1-.06-.18s0-.06,0-.06a.24.24,0,0,0-.06.08.2.2,0,0,1,0-.15v0h0a1.25,1.25,0,0,1-.19,0,.2.2,0,0,1-.11,0v0a.22.22,0,0,0,0-.08.36.36,0,0,1-.24.24.18.18,0,0,0,0-.24.18.18,0,0,1-.1.09c0-.08,0-.14-.08-.15s0,0,0,0a.22.22,0,0,1-.2.21h0a.17.17,0,0,1-.16-.15,0,0,0,0,0,0,0v0h0a.15.15,0,0,0,0,.11c0,.06,0,.12-.09.15l-.08,0a.26.26,0,0,0,.07.22h0a.21.21,0,0,1-.15-.09.14.14,0,0,1,0-.15.06.06,0,0,1,0,0,.05.05,0,0,1,0,0h0a.08.08,0,0,1,0-.07s0-.09.07-.14a.39.39,0,0,0,.08-.1v0h0a.51.51,0,0,1-.21.1c-.06,0-.1,0-.11-.15h0a.21.21,0,0,0,0-.07.16.16,0,0,0-.13.11.14.14,0,0,1,0-.15.25.25,0,0,1,.17-.11H74l.07,0a.08.08,0,0,1,.07,0s0,0,.08,0a.3.3,0,0,0,.08.08.11.11,0,0,0,.08,0h.08l0,0c-.18,0-.23-.11-.24-.15a0,0,0,0,1,0-.06,0,0,0,0,1,0,0,.14.14,0,0,1,0-.06.21.21,0,0,0-.14-.1h0a.2.2,0,0,1,.11,0,.17.17,0,0,1,.15,0h.1a.25.25,0,0,1,.13.12.3.3,0,0,1,0,.1.36.36,0,0,0,0,.09.26.26,0,0,0,.2.07H75a1.09,1.09,0,0,0,.38-.14.45.45,0,0,1,.23,0h.34s0,0,0-.08a1.18,1.18,0,0,1-.11-.19h0a.38.38,0,0,1-.37-.3.64.64,0,0,1-.31-.48s0-.08,0-.08l0,0a.08.08,0,0,0,0,.07c-.07,0-.1,0-.1-.16s0,0,0,0,0,0,0,0,0,0,0,0a.08.08,0,0,1-.08-.07h0a.27.27,0,0,1-.16,0,.25.25,0,0,1-.23-.12.24.24,0,0,1,0-.26.2.2,0,0,0,0,.15.14.14,0,0,0,.12.06.16.16,0,0,0,.15-.15h0s0,0,0,0h0a.19.19,0,0,1-.14-.1.2.2,0,0,1,.07-.18s0,0,0,0a.06.06,0,0,0-.06,0,0,0,0,0,0,0,0s0,0,0,0h0l-.08,0a0,0,0,0,1,0,0h0l0,0a.05.05,0,0,1,0,0c-.05,0-.05.07-.05.11v0a.18.18,0,0,1-.08-.15.14.14,0,0,1,.05-.1.19.19,0,0,1,0-.08.13.13,0,0,1,.15-.11.23.23,0,0,1,.14,0s0,0,0,0,0,0,0-.05,0,0,0,0a.23.23,0,0,1-.18,0,.16.16,0,0,1,0-.09s0,0,0,0l0-.08a.08.08,0,0,0-.07,0l0,0a.18.18,0,0,1,.12,0,.11.11,0,0,1,.12.11h0v0h.07c.1,0,.16.2.18.26a0,0,0,0,1,0,0v0a.19.19,0,0,0,0-.07s0,0,0,0a.09.09,0,0,1,0-.13h0l.06-.09a.17.17,0,0,0-.07-.13h0a.2.2,0,0,1,.19.14.39.39,0,0,1,0,.14.5.5,0,0,1,0,.21,1.38,1.38,0,0,0,0,.2c0,.18,0,.25.17.35a2,2,0,0,1,.43.48l.2.25a2.26,2.26,0,0,1,.06-.73l-.12-.1c.08,0,.13-.11.18-.23l.06-.12h0s-.06,0-.1-.11h0c.05,0,.1-.06.14-.11S76,64.05,76,64a.34.34,0,0,1,0-.31.82.82,0,0,1,.19.09.06.06,0,0,1,.08-.06h.09l.11,0h0l0,0a.52.52,0,0,1,.21.07A.67.67,0,0,1,77,64l0,.09a.12.12,0,0,0,0,.05s.09.1.06.15h0a.31.31,0,0,1,.2.11.31.31,0,0,1-.18.21c.08.1,0,.29-.13.47a2,2,0,0,0-.11.2v0a4.14,4.14,0,0,1,1-.13,7.87,7.87,0,0,1,1.19.12,4.64,4.64,0,0,0,.64.07c.8,0,1.36-.2,1.36-.38s-.1-.07-.32-.07l-.59,0h-.07c-.26,0-.53,0-.8,0a3.8,3.8,0,0,1-.82-.08q-.36-.1-.36-.33c0-.27.33-.46.66-.53l.1-.07a1,1,0,0,1,.51-.11l.55,0h0a4.38,4.38,0,0,0,.51,0,.78.78,0,0,0,.4-.08c0,.14-.6.24-1.08.24a2.21,2.21,0,0,0,.37,0,3.28,3.28,0,0,0,.69-.1h0a3.84,3.84,0,0,1,.68-.09,1.73,1.73,0,0,1,.6.11A.69.69,0,0,0,82,64a4.16,4.16,0,0,0-1,.2l-.1,0a5.06,5.06,0,0,1-1.28.23,2.59,2.59,0,0,1-.55-.07c-.13,0-.19-.1-.22-.17-.27.1-.41.21-.41.34s.19.19.62.19l.71,0h0l.76,0c.62,0,.9.1.9.3a.3.3,0,0,1-.08.22,2.36,2.36,0,0,1-1.53.38h-.28c0,.12.11.18.23.25A.82.82,0,0,1,80,66a.11.11,0,0,1,0,.12.29.29,0,0,1-.18.16s-.06,0,0,0,.13.12.2.12h0a.23.23,0,0,1-.17.1h0s0,0,0,0l-.06.07a.14.14,0,0,0-.05.09.12.12,0,0,0,.05.07l-.06,0a.1.1,0,0,1-.08,0h0a.14.14,0,0,1,0,.14.17.17,0,0,1-.12.06.17.17,0,0,1-.1,0h0l-.06,0a.05.05,0,0,0,0,0,.1.1,0,0,0,0,.09.17.17,0,0,1-.12.2H79a.23.23,0,0,0,0,.14.2.2,0,0,1-.12-.1.13.13,0,0,1,0-.12l0-.06a.09.09,0,0,1,0-.07A.22.22,0,0,1,79,66.9v0h0a.18.18,0,0,0-.1,0h0l-.08,0,0,0s0,0-.05-.05-.1.05-.12.1a.14.14,0,0,1,0-.09.19.19,0,0,1,.07-.12l0-.08a.06.06,0,0,1,0-.06.14.14,0,0,1,.12,0l.12,0s0,0,0,0v0h0a.08.08,0,0,1,0-.08s0,0,0,0h-.06a.34.34,0,0,0-.14,0,.2.2,0,0,1,.2-.12.16.16,0,0,1,.07,0,.11.11,0,0,1,.13,0c.06,0,.11.09.16.15l0,0v0a.17.17,0,0,0,.1-.06l.15-.13a.08.08,0,0,0,0,0,.08.08,0,0,0,0-.07A1.11,1.11,0,0,0,79,66c0,.06-.16.09-.35.09a2.46,2.46,0,0,1-.6-.07.71.71,0,0,1,.27.69c0,.1,0,.16,0,.18a.38.38,0,0,1,.14.42.1.1,0,0,1-.09,0l-.2,0h-.11a.1.1,0,0,0-.07.11.14.14,0,0,1-.1.15h-.06a.19.19,0,0,1-.15-.09s0,0,0,0h-.09s0,0,0,0,0,.08,0,.08,0,0-.08,0a.15.15,0,0,0,.12.08h0A.34.34,0,0,1,77.5,67.7Zm-1.2-3.22,0,0a0,0,0,0,1,0,0l-.08,0,0,0s.07.06,0,.12a.1.1,0,0,1-.11.06s0,0-.06.07h0v0a.16.16,0,0,0,0,.12.14.14,0,0,0,.07.1h0a.16.16,0,0,0,.14-.12.15.15,0,0,0,0-.13s-.06-.08,0-.13a.05.05,0,0,1,0,0h.11s0-.07,0-.08,0,0,0,0,0,0,0,0,0,0,0,0h0a.15.15,0,0,0,0-.07h0v0s0,0-.06-.07l-.26-.13-.06,0,0,0h0s-.05,0,0,.08h0A.05.05,0,0,1,76.3,64.48Z" transform="translate(0.02)"/><path class="a" d="M18.28,12.26a.73.73,0,1,0-.74.71h0a.73.73,0,0,0,.73-.71" transform="translate(0.02)"/><path class="a" d="M18,10.32a.73.73,0,1,0-.75.75.73.73,0,0,0,.75-.75v0" transform="translate(0.02)"/><path class="a" d="M18.44,9.47a.72.72,0,1,0-.72-.72h0a.73.73,0,0,0,.72.71" transform="translate(0.02)"/><path class="a" d="M20.36,9.35a.71.71,0,0,0,.75-.7.73.73,0,0,0-.7-.75h-.05a.72.72,0,0,0-.72.72h0a.71.71,0,0,0,.71.72h0" transform="translate(0.02)"/><path class="a" d="M33.91,8a.73.73,0,0,0,1,0,.72.72,0,0,0,0-1h0a.73.73,0,0,0-1,1" transform="translate(0.02)"/><path class="a" d="M33.54,6.47a.74.74,0,0,0,0-1,.71.71,0,0,0-1,0h0a.72.72,0,0,0,0,1,.71.71,0,0,0,1,0h0" transform="translate(0.02)"/><path class="a" d="M31.26,6.16a.73.73,0,1,0-1,0,.76.76,0,0,0,1,0" transform="translate(0.02)"/><path class="a" d="M29.31,7.37a.72.72,0,0,0,0-1h0a.71.71,0,0,0-1,0v0a.74.74,0,0,0,0,1,.72.72,0,0,0,1,0" transform="translate(0.02)"/><path class="a" d="M20.25,6.37l.57,1.27.75-.88a.11.11,0,0,0,.08,0,14,14,0,0,1,.09,1.58.92.92,0,0,0,1.83,0,.89.89,0,0,0-.48-.8,8.32,8.32,0,0,1-1-1,.42.42,0,0,0,0-.1l1.23.1-.5-1.3-.9.79-.06,0-.07-1.34-1.25.48.84,1a.16.16,0,0,0-.05.11Z" transform="translate(0.02)"/><path class="a" d="M28.61,8.63a1.84,1.84,0,0,1,.4,1,2.19,2.19,0,0,1-.75-.7l.16,1.68A1.4,1.4,0,0,1,29,10c-.05,1.1-.5,1.54-.87,1.62a.73.73,0,0,1-.86-.56c-.09-.49.33-.79.77-.35.06-1-.74-1-1.1-.57a1.49,1.49,0,0,0-.43-2.06.77.77,0,0,0-.18-.1,1.57,1.57,0,0,0,.35,2.18l0,0c-.67-.34-1.28.23-.68,1,.13-.65.69-.52.82,0s-.31,1-1,1.22c-1,.3-1.37-.35-1.62-.9.22-.16.76-.12,1.35.27l-.5-1.64a1.71,1.71,0,0,1-1,1,5.07,5.07,0,0,1,.31-1.45l-2,.81a5,5,0,0,1,1.23.81,1.63,1.63,0,0,1-1.4,0L23,12.84c.16-.68.51-1.1.77-1.15.2.58.43,1.29-.52,1.79a1.23,1.23,0,0,1-1.6-.16c-.28-.45,0-1,.57-.58-.09-1-.92-1-1.16-.24a1.57,1.57,0,0,0-1.27-1.84,1.46,1.46,0,0,0,.82,1.89,1.09,1.09,0,0,0,.24.07c-.56,0-1.15.5-.39,1.18,0-.62.5-.69.8-.28a.71.71,0,0,1-.19,1l-.05,0c-.32.2-.94.19-1.75-.56a1.63,1.63,0,0,1,.85,0l-1.06-1.3a1.83,1.83,0,0,1-.07,1,1.88,1.88,0,0,1-.4-1l-.82.73a9.62,9.62,0,0,1,2.74,2.69,33.51,33.51,0,0,1,4.41-2.19,35,35,0,0,1,4.68-1.52,9.11,9.11,0,0,1,.09-3.82Z" transform="translate(0.02)"/><path class="a" d="M11.46,85.51h0a1.35,1.35,0,0,1-1.37-.79,2.24,2.24,0,0,1,.26-2c.33-.31.55-.53.53-.77s-.13-.31-.38-.48a1,1,0,0,0-.58-.18,1.49,1.49,0,0,0-1.37,1.26,3.59,3.59,0,0,1-.33-3.43,5.41,5.41,0,0,0,.23-3.35,5.12,5.12,0,0,1-2,3.1A4,4,0,0,0,6.22,77,7.7,7.7,0,0,1,6,75.26a5.57,5.57,0,0,1,1.21-3.5,2.09,2.09,0,0,0,.53-1.07,1.89,1.89,0,0,0-.14-.58c-.15-.41-.3-.83.17-1.23A.41.41,0,0,1,8,68.79a1.94,1.94,0,0,1,.7.2,2.44,2.44,0,0,0,.7.2c2.3,0,3.84-3,4.16-6,.4-3.67,1.83-6.24,3.33-9l.15-.28c.07-.52.15-1,.24-1.35a26.94,26.94,0,0,0-1.58,2.3,17.78,17.78,0,0,1-3.47,4.35,2.71,2.71,0,0,1-.81,2,5.85,5.85,0,0,1-4.06,1.82,3.62,3.62,0,0,1-2.3-.76h.18a3.13,3.13,0,0,0,2.89-1.72A3.67,3.67,0,0,1,7,60.36a2.75,2.75,0,0,1-1.32.33,3.25,3.25,0,0,1-2.28-.93,2,2,0,0,1-.6-1.46,1.94,1.94,0,0,0,1.47.77A1.75,1.75,0,0,0,5,58.89a4.84,4.84,0,0,1-.92-3c0-3.73,3-6.81,5.93-9.8,2.62-2.67,5.09-5.2,5.09-7.94A2.46,2.46,0,0,0,13,35.44l-.28,0a3.88,3.88,0,0,0-2.21.69,2.43,2.43,0,0,1,.89,1.82,5,5,0,0,1-2,4.09A18.27,18.27,0,0,1,5,44.31c-2.36,1-4.6,1.94-5,3.82a4.13,4.13,0,0,1,.88-3.21,8.67,8.67,0,0,1,2.43-1.77c1.51-.86,3.08-1.75,3.34-3.86-1.17,1.68-2.95,2.9-4.24,2.9a1.56,1.56,0,0,1-.82-.2h0c1.62,0,2.22-1.6,2.85-3.3S5.88,35,7.9,35a3.65,3.65,0,0,1,1.31.27,5.79,5.79,0,0,1,3.4-1.4,4.32,4.32,0,0,1,2.62,1,4.05,4.05,0,0,1,1.45,3.28c0,3.5-2.88,6.39-5.68,9.19s-5.42,5.43-5.42,8.61c0,2,1.12,3.21,3,3.21,2.68,0,4.71-3.36,7.07-7.25,1.08-1.79,2.2-3.63,3.5-5.39,1.6-2.33,2.9-6.13,4.06-9.48a56,56,0,0,1,2.09-5.5,7.4,7.4,0,0,0-1.95,2.74c-.73,1.43-1.42,2.78-2.84,2.92.74-.62.76-1.95.8-3.48a12.11,12.11,0,0,1,.41-3.55,4.48,4.48,0,0,0,.22-2.73,7.35,7.35,0,0,0-1.16,3.39c-.36,1.9-.74,3.86-2.15,4.26.57-.7.36-1.69.14-2.73a8.77,8.77,0,0,1-.24-1.76,6.9,6.9,0,0,1,.87-3.41,7,7,0,0,0,.86-3c-.57.22-.85,1-1.14,1.82-.44,1.25-.94,2.66-2.59,2.66H16.4a3.78,3.78,0,0,0,1-3,4.36,4.36,0,0,1,1.25-3.48,3.4,3.4,0,0,1-2.33-2.82,5.3,5.3,0,0,1,2.94-1.05c-.45-.7.18-1.38.78-1.89a1,1,0,0,1,.1.15c.16.22.35.5.58.5a.27.27,0,0,0,.17-.06,25.2,25.2,0,0,1,4.31-2.32,40.39,40.39,0,0,1,4.67-1.4c.36-.07.3-.48.23-.84a1.37,1.37,0,0,1,0-.19l.45,0c.89,0,1.36.3,1.43.91a4.82,4.82,0,0,1,2.73-1A4.71,4.71,0,0,1,34.9,16a3.94,3.94,0,0,1,1.59.56,3.17,3.17,0,0,0,1.47.49,2.2,2.2,0,0,0,.44,0,2.22,2.22,0,0,1-1.91,1,6.67,6.67,0,0,1-1.17-.14c-.24,0-.48-.09-.72-.11A8.46,8.46,0,0,1,38.8,21c.78,1,1.45,1.79,2.39,1.89a2.22,2.22,0,0,1-1.39.55,4.07,4.07,0,0,1-2.13-.93h0a4.11,4.11,0,0,0-2.1-.92h0A12.41,12.41,0,0,1,40.6,26c.51.74.86,1.22,1.41,1.24a1.73,1.73,0,0,1-1.19.51,3.9,3.9,0,0,1-1.75-.64,7.47,7.47,0,0,0-1.86-.8c4,2.7,4.27,4.83,3.95,6.57a3.36,3.36,0,0,1,.8,2.63c0,.16,0,.32,0,.48a6.1,6.1,0,0,1,1.89-.67l.68-.18c-.26.26-.52.54-.77.82l0,0a23.13,23.13,0,0,0-4.59,7.37c-.91-.91-1.88-1.82-2.25-2.17a2,2,0,0,0-1.4-.58,2.69,2.69,0,0,0-.4,0l-.1,0c.54.6,1.6,1.75,2.72,3,1.6,1.74,3.42,3.72,4.16,4.57a4.78,4.78,0,0,1,1.22,3c0,.2,0,.4.07.61a3.31,3.31,0,0,0,.76,1.43c.37.49.69.92.54,1.33a1.13,1.13,0,0,0,.17,1.17,1.32,1.32,0,0,1,.27.72c0,.78-.56,1.31-1.7,1.61a1.7,1.7,0,0,0,.15-1.52,1.5,1.5,0,0,0-1.16-.71,2.5,2.5,0,0,1-.52,2,1.82,1.82,0,0,1-1.34.58,1.49,1.49,0,0,1-.65-.14.94.94,0,0,0,.65-.52,2.32,2.32,0,0,0,0-1.88,2.36,2.36,0,0,1-2,1.49,1.88,1.88,0,0,1-1.65-1.23,1.28,1.28,0,0,0,.7.24.91.91,0,0,0,.92-.79c0-.21-.18-.38-.37-.55a1.23,1.23,0,0,1-.52-.87,1.31,1.31,0,0,1,.95-1.31c.45-.22.88-.42.88-1.16s-.37-.85-.7-.85-1,.16-1.13,1.18c-.54-.47-.46-1.27-.37-2.13a4.3,4.3,0,0,0,0-1.75,1.93,1.93,0,0,1-1.09,2,2.13,2.13,0,0,0-.67.56c-.33-.33-.33-.83-.32-1.46a5.14,5.14,0,0,0-.31-2.13,2.94,2.94,0,0,1-.68,1.69,1.68,1.68,0,0,0-.44.87,6,6,0,0,0-2.57-.52,5,5,0,0,0-3.54,1.14c.73.58,1.5,1.08,2.24,1.57,2.41,1.6,4.49,3,4.49,5.82,0,1.58-1.37,2.62-2.57,3.55-1,.76-1.86,1.42-1.86,2.24s1,2.32,2.61,3.72c1.28,1.13,3.09,2.34,4.36,2.34a1.5,1.5,0,0,0,1-.51,1.42,1.42,0,0,1,.8-.46h.51c.45,0,.86,0,1.24.06a1.1,1.1,0,0,1,1,1.09,2,2,0,0,1,1.54,1.3,1.68,1.68,0,0,1-.47,1.82,1.61,1.61,0,0,0-1.44-1.34,1.88,1.88,0,0,0-.89.26,2,2,0,0,1,0,1.71,2.33,2.33,0,0,1-1.56,1.19,1.66,1.66,0,0,0,.26-1.55.66.66,0,0,0-.62-.32c-.4,0-.49.11-.59.24s-.3.37-1.32.37h-.64c-1,0-1,0-1.5-.71l-.14-.2c-.63-.88-1.09-1.29-1.45-1.29a.47.47,0,0,0-.17,0,.68.68,0,0,0-.35.58,1,1,0,0,0,.45,1c-2.23,0-2.57-1.37-2.9-2.7-.22-.89-.43-1.73-1.21-2.11a9.47,9.47,0,0,1,0,2.71,7.12,7.12,0,0,1-2.48-3.5,4.6,4.6,0,0,1-.14-.74c-.09-.63-.17-1.17-.84-1.5a.87.87,0,0,1-.52-1c.05-.26.16-.3.43-.39a3.39,3.39,0,0,0,.53-.2A3.06,3.06,0,0,0,27,60.35a5.26,5.26,0,0,0-2.8-5c.17,2.94.19,5.78-1.31,8.31a15.52,15.52,0,0,1-6.75,5.8l-.8.32c-1.63.64-3.48,1.37-3.48,3.35,0,4.5,2,6.94,3.9,6.94a1.3,1.3,0,0,0,1.09-.62,1.91,1.91,0,0,1,1.68-.8c.79,0,1.68.3,1.85.88a2,2,0,0,1,.34,0c.86,0,1.75.51,1.75,1.36a1.46,1.46,0,0,1-1.19,1.64.9.9,0,0,0,0-.91,1.14,1.14,0,0,0-1-.44.78.78,0,0,0-.42.09c-.25.17-.17.39,0,.69a2.08,2.08,0,0,1,.19.78c0,.67-.18,1.4-1.54,1.77a.84.84,0,0,0,.11-.81.65.65,0,0,0-.62-.27c-.38,0-.64.3-.92.61a1.59,1.59,0,0,1-1.16.71,5.61,5.61,0,0,1-1.68-.26,4.16,4.16,0,0,0-1.21-.21,3.05,3.05,0,0,0-.74.08c-.72.15-.88.46-.91.63a.51.51,0,0,0,.25.52ZM27.58,23.44a.8.8,0,0,1,.79.49A1.27,1.27,0,0,1,28,25.6c-.3.29-.12.9.16,1.73A2.17,2.17,0,0,0,30,28.84a1.83,1.83,0,0,0,.69-.16,1.76,1.76,0,0,0,1-1A2.12,2.12,0,0,0,31.59,26c-.39-.82-.68-1.36-1.08-1.36-.73,0-1.21-.15-1.45-.91s.36-1.07,1-1.45l.36-.21c-.59-.18-.94-.4-1-.61s0-.24.2-.35a.56.56,0,0,1,.39-.13,1.86,1.86,0,0,1,.52.11l.06,0a1.13,1.13,0,0,0,.37.1.18.18,0,0,0,.18-.1c.14-.27-.2-.53-.46-.74h0a1.75,1.75,0,0,1-.2-.16A.66.66,0,0,0,30,20a2.07,2.07,0,0,0-.65.16l-3.77,1.43c-.51.2-.78.39-.79.84a2.83,2.83,0,0,1,0,.29h0c0,.35-.09.73.2.83h.06c.13,0,.22-.18.32-.39s.32-.64.7-.69h.1a.32.32,0,0,1,.3.13c.11.19,0,.59-.28,1.12l.3-.08.08,0h0A3.71,3.71,0,0,1,27.58,23.44ZM25,18.36h0l-.1,0a29,29,0,0,1-4.16,1.38,4,4,0,0,1,1.7.88,1.39,1.39,0,0,0,.94.44h.12a1.55,1.55,0,0,0,1.13-.64A2.7,2.7,0,0,0,25,18.36Zm7-3a24.53,24.53,0,0,1-3.4,1.6l-.06,0-.61.25a2.46,2.46,0,0,0,2,1.3,1.5,1.5,0,0,0,.95-.33,1.28,1.28,0,0,0,.48-1.05A3.83,3.83,0,0,1,32,15.34Z" transform="translate(0.02)"/><path class="a" d="M141.26,75.52a3.11,3.11,0,1,1,3.11-3.11A3.11,3.11,0,0,1,141.26,75.52Zm0-5.43a2.32,2.32,0,1,0,2.3,2.34v0A2.33,2.33,0,0,0,141.26,70.09Z" transform="translate(0.02)"/><path class="a" d="M128.32,78.9h0a3.31,3.31,0,0,1-.55-.05,2.73,2.73,0,0,1-1.55-.84,1.76,1.76,0,0,1,.29-2.73,2.5,2.5,0,0,1,1.43-.42,3.31,3.31,0,0,1,.55,0A2.69,2.69,0,0,1,130.22,76a1.77,1.77,0,0,1-.69,2.62A2.55,2.55,0,0,1,128.32,78.9ZM128,75.66a1.73,1.73,0,0,0-1,.29,1,1,0,0,0-.44.64,1,1,0,0,0,.17.73,1.88,1.88,0,0,0,1.23.74,2.45,2.45,0,0,0,.38,0,1.35,1.35,0,0,0,1.44-.92v0c0-.05,0-.09,0-.14a1.57,1.57,0,0,0-1.41-1.32Z" transform="translate(0.02)"/><path class="a" d="M103.54,35a1.7,1.7,0,0,1-1.37-.61,1.67,1.67,0,0,1-.31-1.26,2.38,2.38,0,0,1,1-1.56,2.52,2.52,0,0,1,1.51-.55l.26,0a1.7,1.7,0,0,1,1.12.61,1.66,1.66,0,0,1,.31,1.24,2.37,2.37,0,0,1-1,1.58A2.53,2.53,0,0,1,103.54,35Zm.79-3.19a1.86,1.86,0,0,0-1,.38,1.64,1.64,0,0,0-.67,1.2.87.87,0,0,0,.17.52.91.91,0,0,0,.74.3,1.77,1.77,0,0,0,1.68-1.42,1,1,0,0,0-.16-.66.92.92,0,0,0-.58-.31Z" transform="translate(0.02)"/><path class="a" d="M124.09,74.44H124a1.72,1.72,0,0,1-1.25-.58,2.54,2.54,0,0,1-.69-1.82V72a2.67,2.67,0,0,1,.76-1.87,1.76,1.76,0,0,1,2.71.24,2.8,2.8,0,0,1,.53,1.71,2.74,2.74,0,0,1-.77,1.85A1.8,1.8,0,0,1,124.09,74.44Zm0-4.06a1,1,0,0,0-.67.31,1.78,1.78,0,0,0-.51,1.31,1.8,1.8,0,0,0,.47,1.32,1,1,0,0,0,.69.34,1.05,1.05,0,0,0,.71-.31,1.94,1.94,0,0,0,.53-1.31,1.88,1.88,0,0,0-.48-1.34,1,1,0,0,0-.69-.32Z" transform="translate(0.02)"/><path class="a" d="M102.26,49a2.9,2.9,0,0,1-1.23-.3,2.66,2.66,0,0,1-1.37-1.45,1.74,1.74,0,0,1,1.09-2.3,2.38,2.38,0,0,1,.79-.13,2.66,2.66,0,0,1,1.21.29,2.62,2.62,0,0,1,1.39,1.46,1.73,1.73,0,0,1-1.1,2.29A2.29,2.29,0,0,1,102.26,49Zm-.71-3.38a1.65,1.65,0,0,0-.54.09.88.88,0,0,0-.58.5,1,1,0,0,0,.06,1,1.94,1.94,0,0,0,.88.82,2.33,2.33,0,0,0,.9.21,1.69,1.69,0,0,0,.5-.08,1.06,1.06,0,0,0,.6-.5,1,1,0,0,0,0-.78,2,2,0,0,0-1.83-1.23Z" transform="translate(0.02)"/><path class="a" d="M128.19,85.75a1.84,1.84,0,0,1-.41,0,9.88,9.88,0,0,0,.35-1.21,24.28,24.28,0,0,1,.72-2.34,3.91,3.91,0,0,0-1.3,2.17c-.27.77-.6,1.14-1,1.14a1.07,1.07,0,0,1-.61-.23,9.05,9.05,0,0,0,.75-1.18,10.1,10.1,0,0,1,2.21-3l.18-.13a3.69,3.69,0,0,0,2-3.15,12.82,12.82,0,0,0,0-3.5c-.05-.52-.1-1.05-.11-1.64-.05-1.71-.54-2-1.07-2a2.43,2.43,0,0,0-.38,0l-.35,0c-1.7,0-7.8-4-7.8-8a10.66,10.66,0,0,1,.08-1.26h-.24c-2.88,0-4.12,1-4.12,3.36a2.75,2.75,0,0,0,.76,2.28c.28.24.56.52.52.79s-.24.39-.64.57c-1.06.49-9.34,3.92-9.69,4.07a2.09,2.09,0,0,1-.7.15c-.41,0-.59-.23-.83-.53l-.15-.19a1.39,1.39,0,0,0-1-.6.9.9,0,0,0-.52.17.36.36,0,0,0-.17.23c0,.16.11.32.25.49a1.23,1.23,0,0,1,.34.67c0,1.2-1.14,1.84-3.3,1.84l-.91,0,.93-1.58c.19-.36.36-.72.29-.87a.13.13,0,0,0-.09-.07h0c-.19,0-.39.29-.66.7l-.12.17-1.14,1.48h-.19A6.61,6.61,0,0,1,99,74.41c.8-.8,1.4-1.39,1.94-1.91l1.23-1.22a5.58,5.58,0,0,1,3.53-1.45l.25,0h0c2.31-.35,8.47-1.26,8.47-3.36a3.06,3.06,0,0,0-1.26-2.37,4.06,4.06,0,0,1-1.56-3.29,5.06,5.06,0,0,1,1.55-4c1.41-1.26,3.77-1.88,7.22-1.88h.49a6.8,6.8,0,0,0-4.67-3.79,6.8,6.8,0,0,1-4.12-2.6,8.35,8.35,0,0,1-1.36-4l-1.83-.09-1.24-.06a17.3,17.3,0,0,1-2.58-.4,5.92,5.92,0,0,0-1.18-.19.83.83,0,0,0-.55.16A.79.79,0,0,0,103.2,45l0,0c.1.16.23.39.38.65.41.71,1,1.69,1.48,2.41h0c.5.07,1.26.17,1.36.78a.8.8,0,0,1-.28.76.71.71,0,0,0-.21.3.42.42,0,0,0,.06.39.45.45,0,0,0,.37.18.44.44,0,0,0,.37-.17.4.4,0,0,0,.09-.35,1.52,1.52,0,0,1,.86-.2,4.36,4.36,0,0,1,1.13.17,8.07,8.07,0,0,1,1.94,3A11.08,11.08,0,0,0,108,52c-.2,0-.32,0-.33.09s.13.17.35.25a6.53,6.53,0,0,1,1.84.89l-.08,1.11a18.11,18.11,0,0,0-3.3-1.85l-.1,0A3.25,3.25,0,0,1,104,50.35a66,66,0,0,0-3.1-5.87c-.49-.82-.33-1.14-.08-1.44s.37-.5.53-.73l.12-.17c.28-.45.44-.58.71-.58l.3,0,.3,0c.22,0,.68,0,1.18,0a5.09,5.09,0,0,0,1.78-.21l.52-.2c-1.66-1.81-3.61-4.4-3.82-4.71a1.42,1.42,0,0,0-1.06-.71,1.39,1.39,0,0,0-.9.27l-.16.13-.27.2c-.13-.17-.28-.35-.46-.55s-.58-.63-.88-.94c.62-.45,1.17-.9,1.39-1.08l.25-.23c.26-.24.45-.41.72-.41l.68,0h.41a1.23,1.23,0,0,1,1.06.43,18,18,0,0,0,2.22,1.87l.18.14.11.09.15.11a1.89,1.89,0,0,1,.2-.2,1.59,1.59,0,0,1,1.13-.45h.06a1.6,1.6,0,0,1,1.12.56,2.41,2.41,0,0,1,.57,1.72,3.91,3.91,0,0,1-.14.68,18.19,18.19,0,0,1,1.78,1.62,13.46,13.46,0,0,1,2.86-6.28l-.21-.13v0a2.53,2.53,0,0,1,.12-.37c.25-.76.61-2,.88-2.84l.23-.74c.11-.36.13-.43.14-.45l.16-.55,2.44.95a2.29,2.29,0,0,1,.23-.21,15.47,15.47,0,0,1,3-2c2.13-1.21,4.34-2.46,4.34-4.38a2.93,2.93,0,0,0-1-2.23,2.24,2.24,0,0,1,.3,1.73,3,3,0,0,1-.94,1.53,3.5,3.5,0,0,1-2.4.94,2.94,2.94,0,0,1-1.71-.76,1.38,1.38,0,0,0-.6-.34,1.55,1.55,0,0,0-.87.44c.08,1.51-.56,2.35-1.19,2.48a2.27,2.27,0,0,0-.06-1.54s0-.05-.07-.05h0c-.19.12-.42.36-.45,1.21a2.37,2.37,0,0,1-2,2.16c.25-.38.61-1.79.37-2a.18.18,0,0,0-.12,0,.68.68,0,0,0-.4.23.83.83,0,0,1-.43.23.68.68,0,0,1-.59-.66c0-.14-.15-.15-.3-.15h-.12c-.15,0-.29,0-.34-.14a.18.18,0,0,1,0-.16,3,3,0,0,1,1.45-1c.36-.13,1.52-.6,1.7-1a.23.23,0,0,0,0-.2.46.46,0,0,0-.48-.25,8.4,8.4,0,0,0-3.1,1.3,1.72,1.72,0,0,1-.79.32.17.17,0,0,1-.16-.06c-.1-.1-.08-.31-.07-.54a1.29,1.29,0,0,0,0-.55c-.49-1.14-.18-1.4.33-1.82l.26-.23a22.66,22.66,0,0,1,4.49-2.93,1.43,1.43,0,0,1,.91-1.35l1.08-.41c.42-.17.86-.34,1.3-.48L108.33,3.34c-.28-.31-.21-.51-.14-.6a.16.16,0,0,1,.11-.05c.12,0,.3.12.54.34L121,15a4.79,4.79,0,0,0,.26-2.87,5.51,5.51,0,0,1,3,3.58h.15a7,7,0,0,1,3.4.82l.62.34a2.79,2.79,0,0,0,1.21.49.84.84,0,0,0,.5-.17.71.71,0,0,1-.1.57,2.15,2.15,0,0,1-1.44.8,5.3,5.3,0,0,1,3.72,3c.45.81.85,1.51,1.93,1.67a1.35,1.35,0,0,1-1.05.46,2.54,2.54,0,0,1-.81-.16,7.5,7.5,0,0,1,1.26,5.28c-.08,1.25-.14,2.23.82,3.08a1.27,1.27,0,0,1-.34.05,3.16,3.16,0,0,1-2.32-1.75,10.42,10.42,0,0,1,.13,4.27,4,4,0,0,0,.06,2.13,1.13,1.13,0,0,1-.32.05c-.7,0-1.27-.69-1.57-1.9a11.69,11.69,0,0,1-.66,2l1,.8-.39.42h0L130,38c-1.6,1.71-2.4,2.58-2.77,3l-.28.31,0,0a2.15,2.15,0,0,1-.32-.18c-1,1.23-1.93,2.39-1.93,3.66,0,1.43,1.92,4,3.88,6.61a2.47,2.47,0,0,1-.15-.81v-.07a1.76,1.76,0,0,1,1.75-1.76h.09a2.79,2.79,0,0,1,2.59,2.68v.09A1.78,1.78,0,0,1,131,53.22H131a2.55,2.55,0,0,1-1.38-.5l.06.08A34.1,34.1,0,0,1,133,57.71c1.52,3.16,2.76,4.51,4.16,4.51A3.27,3.27,0,0,0,140.48,59v-.14c0-3.44-2.16-5.36-4.45-7.39s-4.89-4.32-4.89-8.46A5.45,5.45,0,0,1,133,38.82a5.24,5.24,0,0,1,3.26-1.37,3.64,3.64,0,0,1,2.88,1.13,3.36,3.36,0,0,1,.71-.08c2.37,0,2.67,1.68,3,3.31.26,1.44.51,2.8,2.11,3a2.28,2.28,0,0,1-1,.22c-1.46,0-2.83-1.26-3.57-3.3.13,2.79,2,3.8,3.61,4.68s2.82,1.54,2.34,3.46c-.05-1.09-1.6-1.69-3.4-2.38-2.59-1-5.82-2.25-6-5.5a3.49,3.49,0,0,1,.87-2.66,2.21,2.21,0,0,0-1.44-.47,4.28,4.28,0,0,0-3.84,4.26c0,3.4,2.18,5.32,4.48,7.35s4.82,4.25,4.82,8.17a4.88,4.88,0,0,1-1.75,3.92h.23a3.2,3.2,0,0,0,2.2-1,3.18,3.18,0,0,1-3.07,2.57,2.23,2.23,0,0,1-1.73-.71h-.41a6,6,0,0,1-.73-.07c.73,1.48,1.6,2.23,2.59,2.23a1.42,1.42,0,0,0,.29,0,3.19,3.19,0,0,1-2,.75,3.46,3.46,0,0,1-2.61-1.3,4,4,0,0,1-.93-3.24,11.11,11.11,0,0,1-1.72-2.84c-.1-.22-.22-.35-.35-.35a.31.31,0,0,0-.19.09,1.06,1.06,0,0,0-.19.73,9.15,9.15,0,0,1-1,3.77,7.27,7.27,0,0,0-.8,2.65,3.91,3.91,0,0,0,1,2.36A2.81,2.81,0,0,0,132,69.25a1.57,1.57,0,0,0,.78-.31,1.14,1.14,0,0,1,.55-.24.32.32,0,0,1,.14,0c.41.19.37.73.29,1.9v.09c0,.66.05,2.12.15,3.82,0,.42.06.86.08,1.3a2.64,2.64,0,0,1,1.14-1.5,2.74,2.74,0,0,1,1.5-.47,1.83,1.83,0,0,1,.47,0,1.78,1.78,0,0,1,1.16.76,1.68,1.68,0,0,1,.28.95,1.81,1.81,0,0,1,0,.4,2.86,2.86,0,0,1-2.69,2.13h-.2a1.83,1.83,0,0,1-1.42-.79c-.05-.09-.09-.18-.13-.27l0,.51c0,.51,0,1,0,1.45,0,1.45-.3,2.26-1.1,2.68a1.28,1.28,0,0,0-1.16-.72.83.83,0,0,0-.87.67.89.89,0,0,0,.37.69,1.29,1.29,0,0,1,.5,1.07C131.89,84.43,129.78,85.75,128.19,85.75Zm8.46-11.08a2,2,0,0,0-1.89,1.48,1,1,0,0,0,.13.76,1.11,1.11,0,0,0,1,.45,2.09,2.09,0,0,0,1.08-.34,1.92,1.92,0,0,0,.83-1.14,1,1,0,0,0-.13-.76,1,1,0,0,0-.65-.42A1.73,1.73,0,0,0,136.65,74.67Zm-10.86-12a1.7,1.7,0,0,0-1.33.77,1.45,1.45,0,0,0,.1,2,1,1,0,0,0,.61.19,1.71,1.71,0,0,0,1.34-.76,1.48,1.48,0,0,0-.1-2A1.08,1.08,0,0,0,125.79,62.69Zm3.69-5.8a1.74,1.74,0,0,0-1.35.77,1.47,1.47,0,0,0,.1,2,1.06,1.06,0,0,0,.62.19,1.71,1.71,0,0,0,1.33-.76,1.49,1.49,0,0,0-.09-2A1.11,1.11,0,0,0,129.48,56.89Zm.72-7.38a1,1,0,0,0-.73.27.94.94,0,0,0-.3.71,2,2,0,0,0,.54,1.3,1.9,1.9,0,0,0,1.28.61,1,1,0,0,0,.72-.26,1,1,0,0,0,.3-.71,1.87,1.87,0,0,0-.54-1.3,2,2,0,0,0-1.27-.63Zm-15-20.38s0,0,0,.05v0l0,.06c-.55,1.79-1,3.14-1.21,3.9l12.91,7.45,2.87-3.1-1.19-.95a4.85,4.85,0,0,1-.16,1.65,1.47,1.47,0,0,1-.56-1.15l-1,1.2a1.83,1.83,0,0,1,1.19.39,1.47,1.47,0,0,1-1,.48,1.87,1.87,0,0,1-1-.39c-.86-.56-1.15-1-.93-1.38a.57.57,0,0,1,.51-.28.76.76,0,0,1,.75.72,1.09,1.09,0,0,0,.65-.63.81.81,0,0,0-.08-.66.75.75,0,0,0-.69-.34,1.62,1.62,0,0,0-.44.07,2.28,2.28,0,0,0,1.35-2.62,2.37,2.37,0,0,0-2,2.09c-.08-.54-.39-.94-.75-1h0a.84.84,0,0,0-.6.25,1.1,1.1,0,0,0-.27.83,1,1,0,0,1,.3,0,.73.73,0,0,1,.65.38.61.61,0,0,1,0,.64.64.64,0,0,1-.57.31,2.44,2.44,0,0,1-1.11-.4,1.48,1.48,0,0,1-.68-2,1.06,1.06,0,0,1,.12-.2,1.71,1.71,0,0,1,.43,1.28l1-1.7a1.82,1.82,0,0,1-1.19,0h0a2.35,2.35,0,0,1,1.45-.9l-2-1.18a2.27,2.27,0,0,1-.06,1.7h0a1.89,1.89,0,0,1-.59-1l-.94,1.76a1.9,1.9,0,0,1,1-.31,1,1,0,0,1,.33.05,1.54,1.54,0,0,1-1.29.84,1.89,1.89,0,0,1-.87-.24c-.86-.5-1.16-1-.92-1.42a.6.6,0,0,1,.56-.32.75.75,0,0,1,.74.65,1.09,1.09,0,0,0,.6-.68.77.77,0,0,0-.11-.64.74.74,0,0,0-.64-.28,1.39,1.39,0,0,0-.57.12,2.4,2.4,0,0,0,.81-2.82,2.31,2.31,0,0,0-1.6,2.49c-.12-.5-.44-.83-.81-.83a.79.79,0,0,0-.6.26,1.06,1.06,0,0,0-.22.87.84.84,0,0,1,.35-.07.73.73,0,0,1,.64.36.57.57,0,0,1,0,.58.56.56,0,0,1-.51.27A2.63,2.63,0,0,1,116,33a1.44,1.44,0,0,1-1-1.79v0A2,2,0,0,1,116,32l.57-1.42a1.22,1.22,0,0,1-.71.2,1.28,1.28,0,0,1-.58-.11,4.92,4.92,0,0,1,1.35-.95l-1.41-.55ZM107.25,36a.91.91,0,0,0-.59.23,1.54,1.54,0,0,0-.47,1.1v.11c0,.71.41,1.31.92,1.34a.94.94,0,0,0,.6-.24,1.59,1.59,0,0,0,.48-1.1,1.57,1.57,0,0,0-.35-1.14.81.81,0,0,0-.57-.3Zm10.68-17.54c-1.06,0-1.17.62-1.28,1.27h0a2.81,2.81,0,0,1-.24.81,9.54,9.54,0,0,1,3.84-1.06,5.13,5.13,0,0,1-1-.52A2.57,2.57,0,0,0,117.93,18.49Z" transform="translate(0.02)"/></svg>